<svg width="760" height="339" viewBox="0 0 760 339" fill="none" xmlns="http://www.w3.org/2000/svg">
<g clip-path="url(#clip0_998_5385)">
<rect width="760" height="339" rx="8" fill="#F2F3F5"/>
<g filter="url(#filter0_d_998_5385)">
<rect x="32" y="56" width="162" height="168" rx="12" fill="white"/>
<rect x="81" y="88" width="64" height="64" rx="20" fill="#F3C846"/>
<path fill-rule="evenodd" clip-rule="evenodd" d="M116.181 124.594C112.647 127.425 107.474 127.202 104.199 123.926C100.684 120.411 100.684 114.713 104.199 111.198C107.713 107.683 113.412 107.683 116.926 111.198C120.202 114.474 120.425 119.646 117.595 123.18L124.469 130.054C124.859 130.445 124.859 131.078 124.469 131.469C124.078 131.859 123.445 131.859 123.055 131.469L116.181 124.594ZM105.613 122.512C102.879 119.778 102.879 115.346 105.613 112.612C108.346 109.879 112.779 109.879 115.512 112.612C118.244 115.344 118.246 119.772 115.518 122.506C115.516 122.508 115.514 122.51 115.512 122.512C115.51 122.514 115.508 122.516 115.506 122.518C112.772 125.246 108.344 125.244 105.613 122.512Z" fill="white"/>
<path d="M81.5859 173.625H85.7188C86.5833 173.625 87.3255 173.755 87.9453 174.016C88.5651 174.276 89.0417 174.661 89.375 175.172C89.7083 175.682 89.875 176.31 89.875 177.055C89.875 177.643 89.7708 178.154 89.5625 178.586C89.3542 179.018 89.0599 179.38 88.6797 179.672C88.3047 179.964 87.862 180.193 87.3516 180.359L86.6797 180.703H83.0312L83.0156 179.008H85.7422C86.1849 179.008 86.5521 178.93 86.8438 178.773C87.1354 178.617 87.3542 178.401 87.5 178.125C87.651 177.849 87.7266 177.534 87.7266 177.18C87.7266 176.799 87.6536 176.471 87.5078 176.195C87.362 175.914 87.1406 175.698 86.8438 175.547C86.5469 175.396 86.1719 175.32 85.7188 175.32H83.7344V185H81.5859V173.625ZM88.0078 185L85.375 179.906L87.6484 179.898L90.3125 184.891V185H88.0078ZM94.9984 185.156C94.3578 185.156 93.7823 185.052 93.2719 184.844C92.7615 184.635 92.3266 184.346 91.9672 183.977C91.613 183.602 91.3396 183.167 91.1469 182.672C90.9594 182.172 90.8656 181.635 90.8656 181.062V180.75C90.8656 180.099 90.9594 179.508 91.1469 178.977C91.3344 178.44 91.6 177.979 91.9438 177.594C92.2875 177.208 92.699 176.911 93.1781 176.703C93.6573 176.495 94.1859 176.391 94.7641 176.391C95.363 176.391 95.8917 176.492 96.35 176.695C96.8083 176.893 97.1911 177.174 97.4984 177.539C97.8057 177.904 98.0375 178.341 98.1938 178.852C98.35 179.357 98.4281 179.917 98.4281 180.531V181.398H91.8031V179.977H96.3969V179.82C96.3865 179.492 96.324 179.193 96.2094 178.922C96.0948 178.646 95.9177 178.427 95.6781 178.266C95.4385 178.099 95.1286 178.016 94.7484 178.016C94.4411 178.016 94.1729 178.083 93.9438 178.219C93.7198 178.349 93.5323 178.536 93.3813 178.781C93.2354 179.021 93.126 179.307 93.0531 179.641C92.9802 179.974 92.9438 180.344 92.9438 180.75V181.062C92.9438 181.417 92.9906 181.745 93.0844 182.047C93.1833 182.349 93.3266 182.612 93.5141 182.836C93.7068 183.055 93.9359 183.227 94.2016 183.352C94.4724 183.471 94.7797 183.531 95.1234 183.531C95.5557 183.531 95.9464 183.448 96.2953 183.281C96.6495 183.109 96.9568 182.857 97.2172 182.523L98.2563 183.602C98.0792 183.862 97.8396 184.112 97.5375 184.352C97.2406 184.591 96.8813 184.786 96.4594 184.938C96.0375 185.083 95.5505 185.156 94.9984 185.156ZM104.059 182.688C104.059 182.51 104.013 182.352 103.919 182.211C103.825 182.07 103.648 181.943 103.388 181.828C103.132 181.708 102.757 181.596 102.263 181.492C101.825 181.398 101.421 181.281 101.052 181.141C100.682 181 100.364 180.831 100.098 180.633C99.8328 180.43 99.6245 180.193 99.4734 179.922C99.3276 179.646 99.2547 179.328 99.2547 178.969C99.2547 178.62 99.3302 178.292 99.4813 177.984C99.6323 177.672 99.851 177.398 100.138 177.164C100.424 176.924 100.773 176.737 101.184 176.602C101.596 176.461 102.059 176.391 102.575 176.391C103.294 176.391 103.911 176.508 104.427 176.742C104.947 176.977 105.346 177.299 105.622 177.711C105.898 178.117 106.036 178.576 106.036 179.086H103.973C103.973 178.862 103.921 178.659 103.817 178.477C103.718 178.294 103.565 178.148 103.356 178.039C103.148 177.924 102.885 177.867 102.567 177.867C102.281 177.867 102.039 177.914 101.841 178.008C101.648 178.102 101.502 178.224 101.403 178.375C101.304 178.526 101.255 178.693 101.255 178.875C101.255 179.01 101.281 179.133 101.333 179.242C101.39 179.346 101.481 179.443 101.606 179.531C101.731 179.62 101.901 179.701 102.114 179.773C102.333 179.846 102.601 179.917 102.919 179.984C103.549 180.109 104.098 180.276 104.567 180.484C105.041 180.688 105.411 180.958 105.677 181.297C105.942 181.635 106.075 182.068 106.075 182.594C106.075 182.969 105.994 183.312 105.833 183.625C105.671 183.932 105.437 184.201 105.13 184.43C104.822 184.659 104.455 184.839 104.028 184.969C103.601 185.094 103.119 185.156 102.583 185.156C101.807 185.156 101.151 185.018 100.614 184.742C100.078 184.461 99.6714 184.107 99.3953 183.68C99.1193 183.247 98.9813 182.799 98.9813 182.336H100.958C100.973 182.664 101.062 182.927 101.223 183.125C101.385 183.323 101.588 183.466 101.833 183.555C102.083 183.638 102.346 183.68 102.622 183.68C102.934 183.68 103.197 183.638 103.411 183.555C103.624 183.466 103.786 183.349 103.895 183.203C104.005 183.052 104.059 182.88 104.059 182.688ZM111.042 185.156C110.402 185.156 109.826 185.052 109.316 184.844C108.805 184.635 108.37 184.346 108.011 183.977C107.657 183.602 107.383 183.167 107.191 182.672C107.003 182.172 106.909 181.635 106.909 181.062V180.75C106.909 180.099 107.003 179.508 107.191 178.977C107.378 178.44 107.644 177.979 107.987 177.594C108.331 177.208 108.743 176.911 109.222 176.703C109.701 176.495 110.23 176.391 110.808 176.391C111.407 176.391 111.935 176.492 112.394 176.695C112.852 176.893 113.235 177.174 113.542 177.539C113.849 177.904 114.081 178.341 114.237 178.852C114.394 179.357 114.472 179.917 114.472 180.531V181.398H107.847V179.977H112.441V179.82C112.43 179.492 112.368 179.193 112.253 178.922C112.139 178.646 111.961 178.427 111.722 178.266C111.482 178.099 111.172 178.016 110.792 178.016C110.485 178.016 110.217 178.083 109.987 178.219C109.764 178.349 109.576 178.536 109.425 178.781C109.279 179.021 109.17 179.307 109.097 179.641C109.024 179.974 108.987 180.344 108.987 180.75V181.062C108.987 181.417 109.034 181.745 109.128 182.047C109.227 182.349 109.37 182.612 109.558 182.836C109.751 183.055 109.98 183.227 110.245 183.352C110.516 183.471 110.823 183.531 111.167 183.531C111.599 183.531 111.99 183.448 112.339 183.281C112.693 183.109 113.001 182.857 113.261 182.523L114.3 183.602C114.123 183.862 113.883 184.112 113.581 184.352C113.284 184.591 112.925 184.786 112.503 184.938C112.081 185.083 111.594 185.156 111.042 185.156ZM120.111 183.203V179.305C120.111 179.018 120.061 178.771 119.963 178.562C119.864 178.354 119.713 178.193 119.509 178.078C119.306 177.964 119.048 177.906 118.736 177.906C118.46 177.906 118.218 177.953 118.009 178.047C117.806 178.141 117.65 178.273 117.541 178.445C117.431 178.612 117.377 178.805 117.377 179.023H115.306C115.306 178.674 115.39 178.344 115.556 178.031C115.723 177.714 115.96 177.432 116.267 177.188C116.58 176.938 116.952 176.742 117.384 176.602C117.822 176.461 118.311 176.391 118.853 176.391C119.494 176.391 120.064 176.5 120.564 176.719C121.069 176.932 121.465 177.255 121.752 177.688C122.043 178.12 122.189 178.664 122.189 179.32V183.008C122.189 183.43 122.215 183.792 122.267 184.094C122.324 184.391 122.408 184.648 122.517 184.867V185H120.416C120.317 184.786 120.241 184.516 120.189 184.188C120.137 183.854 120.111 183.526 120.111 183.203ZM120.4 179.852L120.416 181.078H119.111C118.788 181.078 118.504 181.112 118.259 181.18C118.015 181.242 117.814 181.336 117.658 181.461C117.502 181.581 117.384 181.727 117.306 181.898C117.228 182.065 117.189 182.255 117.189 182.469C117.189 182.677 117.236 182.865 117.33 183.031C117.429 183.198 117.569 183.331 117.752 183.43C117.939 183.523 118.158 183.57 118.408 183.57C118.772 183.57 119.09 183.497 119.361 183.352C119.632 183.201 119.843 183.018 119.994 182.805C120.145 182.591 120.226 182.388 120.236 182.195L120.83 183.086C120.757 183.299 120.647 183.526 120.502 183.766C120.356 184.005 120.168 184.229 119.939 184.438C119.71 184.646 119.434 184.818 119.111 184.953C118.788 185.089 118.413 185.156 117.986 185.156C117.439 185.156 116.949 185.047 116.517 184.828C116.085 184.609 115.744 184.31 115.494 183.93C115.244 183.549 115.119 183.117 115.119 182.633C115.119 182.185 115.202 181.789 115.369 181.445C115.535 181.102 115.783 180.812 116.111 180.578C116.439 180.339 116.845 180.159 117.33 180.039C117.819 179.914 118.379 179.852 119.009 179.852H120.4ZM125.711 178.273V185H123.648V176.547H125.602L125.711 178.273ZM128.281 176.492L128.25 178.414C128.135 178.393 128.005 178.378 127.859 178.367C127.719 178.357 127.586 178.352 127.461 178.352C127.143 178.352 126.865 178.396 126.625 178.484C126.385 178.568 126.185 178.69 126.023 178.852C125.867 179.013 125.747 179.211 125.664 179.445C125.581 179.674 125.534 179.935 125.523 180.227L125.078 180.172C125.078 179.635 125.133 179.138 125.242 178.68C125.352 178.221 125.51 177.82 125.719 177.477C125.927 177.133 126.188 176.867 126.5 176.68C126.818 176.487 127.182 176.391 127.594 176.391C127.708 176.391 127.831 176.401 127.961 176.422C128.096 176.438 128.203 176.461 128.281 176.492ZM132.327 183.531C132.618 183.531 132.879 183.474 133.108 183.359C133.337 183.245 133.519 183.083 133.655 182.875C133.795 182.667 133.871 182.424 133.881 182.148H135.827C135.816 182.721 135.655 183.234 135.342 183.688C135.03 184.141 134.613 184.5 134.092 184.766C133.577 185.026 132.998 185.156 132.358 185.156C131.707 185.156 131.139 185.047 130.655 184.828C130.17 184.609 129.767 184.305 129.444 183.914C129.126 183.523 128.886 183.07 128.725 182.555C128.569 182.039 128.491 181.487 128.491 180.898V180.648C128.491 180.06 128.569 179.508 128.725 178.992C128.886 178.477 129.126 178.023 129.444 177.633C129.767 177.242 130.17 176.938 130.655 176.719C131.139 176.5 131.704 176.391 132.35 176.391C133.032 176.391 133.631 176.523 134.147 176.789C134.668 177.055 135.074 177.43 135.366 177.914C135.662 178.398 135.816 178.969 135.827 179.625H133.881C133.871 179.323 133.803 179.052 133.678 178.812C133.553 178.573 133.376 178.38 133.147 178.234C132.918 178.089 132.639 178.016 132.311 178.016C131.962 178.016 131.67 178.089 131.436 178.234C131.207 178.38 131.027 178.581 130.897 178.836C130.772 179.086 130.683 179.367 130.631 179.68C130.584 179.987 130.561 180.31 130.561 180.648V180.898C130.561 181.242 130.584 181.57 130.631 181.883C130.683 182.195 130.772 182.477 130.897 182.727C131.027 182.971 131.207 183.167 131.436 183.312C131.67 183.458 131.967 183.531 132.327 183.531ZM138.825 173V185H136.755V173H138.825ZM138.497 180.469H137.888C137.888 179.88 137.966 179.339 138.122 178.844C138.278 178.349 138.499 177.919 138.786 177.555C139.072 177.185 139.414 176.898 139.809 176.695C140.21 176.492 140.653 176.391 141.138 176.391C141.554 176.391 141.932 176.451 142.27 176.57C142.614 176.685 142.908 176.87 143.153 177.125C143.398 177.38 143.585 177.714 143.716 178.125C143.851 178.531 143.919 179.026 143.919 179.609V185H141.841V179.594C141.841 179.203 141.783 178.896 141.669 178.672C141.554 178.443 141.39 178.279 141.177 178.18C140.968 178.081 140.71 178.031 140.403 178.031C140.07 178.031 139.783 178.096 139.544 178.227C139.304 178.352 139.106 178.526 138.95 178.75C138.799 178.974 138.684 179.232 138.606 179.523C138.533 179.815 138.497 180.13 138.497 180.469Z" fill="#333333"/>
</g>
<g filter="url(#filter1_d_998_5385)">
<rect x="210" y="56" width="162" height="168" rx="12" fill="white"/>
<rect x="259" y="88" width="64" height="64" rx="20" fill="#3E72E9"/>
<path d="M284.333 117.333C282.86 117.333 281.666 118.527 281.666 120C281.666 121.473 282.86 122.667 284.333 122.667C285.805 122.667 286.999 121.473 286.999 120C286.999 118.527 285.805 117.333 284.333 117.333Z" fill="white"/>
<path fill-rule="evenodd" clip-rule="evenodd" d="M284.333 112.333C280.098 112.333 276.666 115.766 276.666 120C276.666 124.234 280.098 127.667 284.333 127.667C287.24 127.667 289.768 126.048 291.067 123.667H295.333V126.667C295.333 127.219 295.78 127.667 296.333 127.667H300.999C301.552 127.667 301.999 127.219 301.999 126.667V123.667H304.333C304.885 123.667 305.333 123.219 305.333 122.667V118.667C305.333 117.378 304.288 116.333 302.999 116.333H291.067C289.768 113.952 287.24 112.333 284.333 112.333ZM278.666 120C278.666 116.87 281.203 114.333 284.333 114.333C286.655 114.333 288.653 115.73 289.528 117.734C289.687 118.098 290.047 118.333 290.445 118.333H302.999C303.183 118.333 303.333 118.483 303.333 118.667V121.667H300.999C300.447 121.667 299.999 122.114 299.999 122.667V125.667H297.333V122.667C297.333 122.114 296.885 121.667 296.333 121.667H290.445C290.047 121.667 289.687 121.902 289.528 122.266C288.653 124.27 286.655 125.667 284.333 125.667C281.203 125.667 278.666 123.13 278.666 120Z" fill="white"/>
<path d="M281.469 173.625V185H279.328V173.625H281.469ZM285 173.625V175.32H275.836V173.625H285ZM287.389 178.273V185H285.327V176.547H287.28L287.389 178.273ZM289.959 176.492L289.928 178.414C289.814 178.393 289.683 178.378 289.538 178.367C289.397 178.357 289.264 178.352 289.139 178.352C288.821 178.352 288.543 178.396 288.303 178.484C288.064 178.568 287.863 178.69 287.702 178.852C287.545 179.013 287.426 179.211 287.342 179.445C287.259 179.674 287.212 179.935 287.202 180.227L286.756 180.172C286.756 179.635 286.811 179.138 286.92 178.68C287.03 178.221 287.189 177.82 287.397 177.477C287.605 177.133 287.866 176.867 288.178 176.68C288.496 176.487 288.86 176.391 289.272 176.391C289.386 176.391 289.509 176.401 289.639 176.422C289.774 176.438 289.881 176.461 289.959 176.492ZM292.88 176.547V185H290.809V176.547H292.88ZM290.669 174.336C290.669 174.029 290.773 173.773 290.981 173.57C291.195 173.367 291.481 173.266 291.841 173.266C292.2 173.266 292.484 173.367 292.692 173.57C292.906 173.773 293.012 174.029 293.012 174.336C293.012 174.638 292.906 174.891 292.692 175.094C292.484 175.297 292.2 175.398 291.841 175.398C291.481 175.398 291.195 175.297 290.981 175.094C290.773 174.891 290.669 174.638 290.669 174.336ZM299.105 183.203V179.305C299.105 179.018 299.055 178.771 298.956 178.562C298.857 178.354 298.706 178.193 298.503 178.078C298.3 177.964 298.042 177.906 297.73 177.906C297.454 177.906 297.211 177.953 297.003 178.047C296.8 178.141 296.644 178.273 296.534 178.445C296.425 178.612 296.37 178.805 296.37 179.023H294.3C294.3 178.674 294.383 178.344 294.55 178.031C294.717 177.714 294.954 177.432 295.261 177.188C295.573 176.938 295.946 176.742 296.378 176.602C296.816 176.461 297.305 176.391 297.847 176.391C298.487 176.391 299.058 176.5 299.558 176.719C300.063 176.932 300.459 177.255 300.745 177.688C301.037 178.12 301.183 178.664 301.183 179.32V183.008C301.183 183.43 301.209 183.792 301.261 184.094C301.318 184.391 301.402 184.648 301.511 184.867V185H299.409C299.31 184.786 299.235 184.516 299.183 184.188C299.131 183.854 299.105 183.526 299.105 183.203ZM299.394 179.852L299.409 181.078H298.105C297.782 181.078 297.498 181.112 297.253 181.18C297.008 181.242 296.808 181.336 296.652 181.461C296.495 181.581 296.378 181.727 296.3 181.898C296.222 182.065 296.183 182.255 296.183 182.469C296.183 182.677 296.23 182.865 296.323 183.031C296.422 183.198 296.563 183.331 296.745 183.43C296.933 183.523 297.152 183.57 297.402 183.57C297.766 183.57 298.084 183.497 298.355 183.352C298.626 183.201 298.836 183.018 298.987 182.805C299.139 182.591 299.219 182.388 299.23 182.195L299.823 183.086C299.751 183.299 299.641 183.526 299.495 183.766C299.349 184.005 299.162 184.229 298.933 184.438C298.704 184.646 298.428 184.818 298.105 184.953C297.782 185.089 297.407 185.156 296.98 185.156C296.433 185.156 295.943 185.047 295.511 184.828C295.079 184.609 294.737 184.31 294.487 183.93C294.237 183.549 294.112 183.117 294.112 182.633C294.112 182.185 294.196 181.789 294.362 181.445C294.529 181.102 294.777 180.812 295.105 180.578C295.433 180.339 295.839 180.159 296.323 180.039C296.813 179.914 297.373 179.852 298.003 179.852H299.394ZM304.83 173V185H302.759V173H304.83Z" fill="#333333"/>
</g>
<g filter="url(#filter2_d_998_5385)">
<rect x="388" y="56" width="162" height="168" rx="12" fill="white"/>
<rect x="437" y="88" width="64" height="64" rx="20" fill="#9ECD61"/>
<path fill-rule="evenodd" clip-rule="evenodd" d="M466.981 109.486C467.88 107.936 470.118 107.936 471.017 109.486L473.771 114.231C474.025 114.669 474.464 114.967 474.964 115.043L479.537 115.734C481.53 116.035 482.229 118.551 480.677 119.838L477.345 122.598C476.877 122.985 476.658 123.597 476.771 124.193L477.704 129.094C478.07 131.014 476.055 132.506 474.325 131.596L469.776 129.2C469.29 128.944 468.709 128.944 468.223 129.2L463.673 131.596C461.944 132.506 459.929 131.014 460.294 129.094L461.227 124.193C461.341 123.597 461.121 122.985 460.654 122.598L457.322 119.838C455.769 118.551 456.468 116.035 458.462 115.734L463.035 115.043C463.535 114.967 463.973 114.669 464.227 114.231L466.981 109.486ZM469.288 110.489C469.159 110.268 468.839 110.268 468.711 110.489L465.957 115.235C465.399 116.198 464.434 116.854 463.333 117.021L458.76 117.711C458.476 117.754 458.376 118.114 458.598 118.297L461.929 121.058C462.958 121.91 463.442 123.255 463.192 124.567L462.259 129.469C462.207 129.743 462.495 129.956 462.742 129.826L467.291 127.43C468.36 126.867 469.638 126.867 470.708 127.43L475.257 129.826C475.504 129.956 475.792 129.743 475.74 129.469L474.806 124.567C474.556 123.255 475.04 121.91 476.069 121.058L479.401 118.297C479.623 118.114 479.523 117.754 479.238 117.711L474.665 117.021C473.565 116.854 472.6 116.198 472.041 115.235L469.288 110.489Z" fill="white"/>
<path d="M433.445 179.93H430.539L430.523 178.414H433.016C433.443 178.414 433.799 178.354 434.086 178.234C434.372 178.115 434.589 177.94 434.734 177.711C434.885 177.482 434.961 177.203 434.961 176.875C434.961 176.51 434.891 176.214 434.75 175.984C434.615 175.755 434.401 175.589 434.109 175.484C433.818 175.375 433.448 175.32 433 175.32H431.234V185H429.086V173.625H433C433.646 173.625 434.221 173.688 434.727 173.812C435.237 173.932 435.669 174.12 436.023 174.375C436.378 174.63 436.646 174.951 436.828 175.336C437.016 175.721 437.109 176.18 437.109 176.711C437.109 177.18 437 177.612 436.781 178.008C436.568 178.398 436.237 178.716 435.789 178.961C435.346 179.206 434.784 179.346 434.102 179.383L433.445 179.93ZM433.352 185H429.906L430.805 183.312H433.352C433.779 183.312 434.13 183.242 434.406 183.102C434.688 182.961 434.896 182.768 435.031 182.523C435.172 182.273 435.242 181.987 435.242 181.664C435.242 181.31 435.18 181.003 435.055 180.742C434.935 180.482 434.742 180.281 434.477 180.141C434.216 180 433.872 179.93 433.445 179.93H431.211L431.227 178.414H434.07L434.562 179C435.219 179.005 435.753 179.135 436.164 179.391C436.581 179.646 436.888 179.974 437.086 180.375C437.284 180.776 437.383 181.208 437.383 181.672C437.383 182.401 437.224 183.013 436.906 183.508C436.594 184.003 436.135 184.375 435.531 184.625C434.932 184.875 434.206 185 433.352 185ZM442.483 185.156C441.842 185.156 441.267 185.052 440.756 184.844C440.246 184.635 439.811 184.346 439.452 183.977C439.097 183.602 438.824 183.167 438.631 182.672C438.444 182.172 438.35 181.635 438.35 181.062V180.75C438.35 180.099 438.444 179.508 438.631 178.977C438.819 178.44 439.084 177.979 439.428 177.594C439.772 177.208 440.183 176.911 440.663 176.703C441.142 176.495 441.67 176.391 442.248 176.391C442.847 176.391 443.376 176.492 443.834 176.695C444.293 176.893 444.676 177.174 444.983 177.539C445.29 177.904 445.522 178.341 445.678 178.852C445.834 179.357 445.913 179.917 445.913 180.531V181.398H439.288V179.977H443.881V179.82C443.871 179.492 443.808 179.193 443.694 178.922C443.579 178.646 443.402 178.427 443.163 178.266C442.923 178.099 442.613 178.016 442.233 178.016C441.926 178.016 441.657 178.083 441.428 178.219C441.204 178.349 441.017 178.536 440.866 178.781C440.72 179.021 440.61 179.307 440.538 179.641C440.465 179.974 440.428 180.344 440.428 180.75V181.062C440.428 181.417 440.475 181.745 440.569 182.047C440.668 182.349 440.811 182.612 440.998 182.836C441.191 183.055 441.42 183.227 441.686 183.352C441.957 183.471 442.264 183.531 442.608 183.531C443.04 183.531 443.431 183.448 443.78 183.281C444.134 183.109 444.441 182.857 444.702 182.523L445.741 183.602C445.564 183.862 445.324 184.112 445.022 184.352C444.725 184.591 444.366 184.786 443.944 184.938C443.522 185.083 443.035 185.156 442.483 185.156ZM451.544 182.688C451.544 182.51 451.497 182.352 451.403 182.211C451.309 182.07 451.132 181.943 450.872 181.828C450.617 181.708 450.242 181.596 449.747 181.492C449.309 181.398 448.906 181.281 448.536 181.141C448.166 181 447.848 180.831 447.583 180.633C447.317 180.43 447.109 180.193 446.958 179.922C446.812 179.646 446.739 179.328 446.739 178.969C446.739 178.62 446.815 178.292 446.966 177.984C447.117 177.672 447.335 177.398 447.622 177.164C447.908 176.924 448.257 176.737 448.669 176.602C449.08 176.461 449.544 176.391 450.059 176.391C450.778 176.391 451.395 176.508 451.911 176.742C452.432 176.977 452.83 177.299 453.106 177.711C453.382 178.117 453.52 178.576 453.52 179.086H451.458C451.458 178.862 451.406 178.659 451.302 178.477C451.203 178.294 451.049 178.148 450.841 178.039C450.632 177.924 450.369 177.867 450.052 177.867C449.765 177.867 449.523 177.914 449.325 178.008C449.132 178.102 448.986 178.224 448.888 178.375C448.789 178.526 448.739 178.693 448.739 178.875C448.739 179.01 448.765 179.133 448.817 179.242C448.874 179.346 448.966 179.443 449.091 179.531C449.216 179.62 449.385 179.701 449.598 179.773C449.817 179.846 450.085 179.917 450.403 179.984C451.033 180.109 451.583 180.276 452.052 180.484C452.526 180.688 452.895 180.958 453.161 181.297C453.427 181.635 453.559 182.068 453.559 182.594C453.559 182.969 453.479 183.312 453.317 183.625C453.156 183.932 452.921 184.201 452.614 184.43C452.307 184.659 451.94 184.839 451.513 184.969C451.085 185.094 450.604 185.156 450.067 185.156C449.291 185.156 448.635 185.018 448.098 184.742C447.562 184.461 447.156 184.107 446.88 183.68C446.604 183.247 446.466 182.799 446.466 182.336H448.442C448.458 182.664 448.546 182.927 448.708 183.125C448.869 183.323 449.072 183.466 449.317 183.555C449.567 183.638 449.83 183.68 450.106 183.68C450.419 183.68 450.682 183.638 450.895 183.555C451.109 183.466 451.27 183.349 451.38 183.203C451.489 183.052 451.544 182.88 451.544 182.688ZM458.73 176.547V178.031H453.886V176.547H458.73ZM455.183 174.469H457.253V182.562C457.253 182.812 457.287 183.005 457.355 183.141C457.422 183.276 457.524 183.367 457.659 183.414C457.795 183.461 457.956 183.484 458.144 183.484C458.279 183.484 458.404 183.477 458.519 183.461C458.633 183.445 458.73 183.43 458.808 183.414L458.816 184.961C458.644 185.018 458.448 185.065 458.23 185.102C458.016 185.138 457.774 185.156 457.503 185.156C457.04 185.156 456.633 185.078 456.284 184.922C455.935 184.76 455.665 184.503 455.472 184.148C455.279 183.789 455.183 183.315 455.183 182.727V174.469ZM470.102 181.258H472.25C472.193 182.018 471.982 182.693 471.617 183.281C471.253 183.865 470.745 184.323 470.094 184.656C469.443 184.99 468.654 185.156 467.727 185.156C467.013 185.156 466.37 185.031 465.797 184.781C465.229 184.526 464.742 184.164 464.336 183.695C463.935 183.221 463.628 182.654 463.414 181.992C463.201 181.326 463.094 180.578 463.094 179.75V178.883C463.094 178.055 463.203 177.307 463.422 176.641C463.641 175.974 463.953 175.406 464.359 174.938C464.771 174.464 465.263 174.099 465.836 173.844C466.414 173.589 467.06 173.461 467.773 173.461C468.701 173.461 469.484 173.633 470.125 173.977C470.766 174.315 471.263 174.781 471.617 175.375C471.971 175.969 472.185 176.651 472.258 177.422H470.109C470.068 176.943 469.964 176.536 469.797 176.203C469.635 175.87 469.391 175.617 469.062 175.445C468.74 175.268 468.31 175.18 467.773 175.18C467.357 175.18 466.99 175.258 466.672 175.414C466.359 175.57 466.099 175.805 465.891 176.117C465.682 176.424 465.526 176.81 465.422 177.273C465.318 177.732 465.266 178.263 465.266 178.867V179.75C465.266 180.328 465.312 180.846 465.406 181.305C465.5 181.763 465.646 182.151 465.844 182.469C466.042 182.786 466.297 183.029 466.609 183.195C466.922 183.362 467.294 183.445 467.727 183.445C468.253 183.445 468.68 183.362 469.008 183.195C469.341 183.029 469.594 182.784 469.766 182.461C469.943 182.138 470.055 181.737 470.102 181.258ZM475.381 173V185H473.311V173H475.381ZM475.053 180.469H474.444C474.444 179.88 474.522 179.339 474.678 178.844C474.834 178.349 475.056 177.919 475.342 177.555C475.629 177.185 475.97 176.898 476.366 176.695C476.767 176.492 477.209 176.391 477.694 176.391C478.11 176.391 478.488 176.451 478.827 176.57C479.17 176.685 479.465 176.87 479.709 177.125C479.954 177.38 480.142 177.714 480.272 178.125C480.407 178.531 480.475 179.026 480.475 179.609V185H478.397V179.594C478.397 179.203 478.34 178.896 478.225 178.672C478.11 178.443 477.946 178.279 477.733 178.18C477.524 178.081 477.267 178.031 476.959 178.031C476.626 178.031 476.34 178.096 476.1 178.227C475.86 178.352 475.662 178.526 475.506 178.75C475.355 178.974 475.241 179.232 475.162 179.523C475.09 179.815 475.053 180.13 475.053 180.469ZM481.528 180.859V180.695C481.528 180.076 481.617 179.505 481.794 178.984C481.971 178.458 482.229 178.003 482.567 177.617C482.906 177.232 483.32 176.932 483.809 176.719C484.299 176.5 484.856 176.391 485.481 176.391C486.117 176.391 486.679 176.5 487.169 176.719C487.664 176.932 488.08 177.232 488.419 177.617C488.757 178.003 489.015 178.458 489.192 178.984C489.369 179.505 489.458 180.076 489.458 180.695V180.859C489.458 181.474 489.369 182.044 489.192 182.57C489.015 183.091 488.757 183.547 488.419 183.938C488.08 184.323 487.666 184.622 487.177 184.836C486.687 185.049 486.127 185.156 485.497 185.156C484.872 185.156 484.312 185.049 483.817 184.836C483.322 184.622 482.906 184.323 482.567 183.938C482.229 183.547 481.971 183.091 481.794 182.57C481.617 182.044 481.528 181.474 481.528 180.859ZM483.591 180.695V180.859C483.591 181.229 483.627 181.576 483.7 181.898C483.773 182.221 483.885 182.505 484.036 182.75C484.187 182.995 484.382 183.188 484.622 183.328C484.867 183.464 485.158 183.531 485.497 183.531C485.83 183.531 486.117 183.464 486.356 183.328C486.596 183.188 486.791 182.995 486.942 182.75C487.098 182.505 487.213 182.221 487.286 181.898C487.359 181.576 487.395 181.229 487.395 180.859V180.695C487.395 180.331 487.359 179.99 487.286 179.672C487.213 179.349 487.098 179.065 486.942 178.82C486.791 178.57 486.593 178.375 486.348 178.234C486.109 178.089 485.82 178.016 485.481 178.016C485.148 178.016 484.861 178.089 484.622 178.234C484.382 178.375 484.187 178.57 484.036 178.82C483.885 179.065 483.773 179.349 483.7 179.672C483.627 179.99 483.591 180.331 483.591 180.695ZM492.745 176.547V185H490.675V176.547H492.745ZM490.534 174.336C490.534 174.029 490.639 173.773 490.847 173.57C491.06 173.367 491.347 173.266 491.706 173.266C492.066 173.266 492.349 173.367 492.558 173.57C492.771 173.773 492.878 174.029 492.878 174.336C492.878 174.638 492.771 174.891 492.558 175.094C492.349 175.297 492.066 175.398 491.706 175.398C491.347 175.398 491.06 175.297 490.847 175.094C490.639 174.891 490.534 174.638 490.534 174.336ZM497.783 183.531C498.074 183.531 498.335 183.474 498.564 183.359C498.793 183.245 498.976 183.083 499.111 182.875C499.252 182.667 499.327 182.424 499.338 182.148H501.283C501.272 182.721 501.111 183.234 500.798 183.688C500.486 184.141 500.069 184.5 499.548 184.766C499.033 185.026 498.455 185.156 497.814 185.156C497.163 185.156 496.595 185.047 496.111 184.828C495.627 184.609 495.223 184.305 494.9 183.914C494.582 183.523 494.343 183.07 494.181 182.555C494.025 182.039 493.947 181.487 493.947 180.898V180.648C493.947 180.06 494.025 179.508 494.181 178.992C494.343 178.477 494.582 178.023 494.9 177.633C495.223 177.242 495.627 176.938 496.111 176.719C496.595 176.5 497.16 176.391 497.806 176.391C498.489 176.391 499.088 176.523 499.603 176.789C500.124 177.055 500.53 177.43 500.822 177.914C501.119 178.398 501.272 178.969 501.283 179.625H499.338C499.327 179.323 499.259 179.052 499.134 178.812C499.009 178.573 498.832 178.38 498.603 178.234C498.374 178.089 498.095 178.016 497.767 178.016C497.418 178.016 497.127 178.089 496.892 178.234C496.663 178.38 496.483 178.581 496.353 178.836C496.228 179.086 496.14 179.367 496.088 179.68C496.041 179.987 496.017 180.31 496.017 180.648V180.898C496.017 181.242 496.041 181.57 496.088 181.883C496.14 182.195 496.228 182.477 496.353 182.727C496.483 182.971 496.663 183.167 496.892 183.312C497.127 183.458 497.423 183.531 497.783 183.531ZM506.055 185.156C505.414 185.156 504.839 185.052 504.328 184.844C503.818 184.635 503.383 184.346 503.023 183.977C502.669 183.602 502.396 183.167 502.203 182.672C502.016 182.172 501.922 181.635 501.922 181.062V180.75C501.922 180.099 502.016 179.508 502.203 178.977C502.391 178.44 502.656 177.979 503 177.594C503.344 177.208 503.755 176.911 504.234 176.703C504.714 176.495 505.242 176.391 505.82 176.391C506.419 176.391 506.948 176.492 507.406 176.695C507.865 176.893 508.247 177.174 508.555 177.539C508.862 177.904 509.094 178.341 509.25 178.852C509.406 179.357 509.484 179.917 509.484 180.531V181.398H502.859V179.977H507.453V179.82C507.443 179.492 507.38 179.193 507.266 178.922C507.151 178.646 506.974 178.427 506.734 178.266C506.495 178.099 506.185 178.016 505.805 178.016C505.497 178.016 505.229 178.083 505 178.219C504.776 178.349 504.589 178.536 504.438 178.781C504.292 179.021 504.182 179.307 504.109 179.641C504.036 179.974 504 180.344 504 180.75V181.062C504 181.417 504.047 181.745 504.141 182.047C504.24 182.349 504.383 182.612 504.57 182.836C504.763 183.055 504.992 183.227 505.258 183.352C505.529 183.471 505.836 183.531 506.18 183.531C506.612 183.531 507.003 183.448 507.352 183.281C507.706 183.109 508.013 182.857 508.273 182.523L509.312 183.602C509.135 183.862 508.896 184.112 508.594 184.352C508.297 184.591 507.938 184.786 507.516 184.938C507.094 185.083 506.607 185.156 506.055 185.156Z" fill="#333333"/>
</g>
<g filter="url(#filter3_d_998_5385)">
<rect x="566" y="56" width="162" height="168" rx="12" fill="#E0E0E0"/>
<rect x="615" y="88" width="64" height="64" rx="20" fill="#E05538"/>
<path d="M642.294 115.293C642.684 114.902 643.318 114.902 643.708 115.293L647.001 118.586L650.294 115.293C650.684 114.902 651.318 114.902 651.708 115.293C652.099 115.683 652.099 116.317 651.708 116.707L648.415 120L651.708 123.293C652.099 123.683 652.099 124.317 651.708 124.707C651.318 125.098 650.684 125.098 650.294 124.707L647.001 121.414L643.708 124.707C643.318 125.098 642.684 125.098 642.294 124.707C641.903 124.317 641.903 123.683 642.294 123.293L645.587 120L642.294 116.707C641.903 116.317 641.903 115.683 642.294 115.293Z" fill="white"/>
<path fill-rule="evenodd" clip-rule="evenodd" d="M640.757 109.025C644.873 108.565 649.129 108.565 653.245 109.025C655.68 109.297 657.647 111.215 657.933 113.665C658.426 117.874 658.426 122.126 657.933 126.335C657.647 128.785 655.68 130.703 653.245 130.975C649.129 131.435 644.873 131.435 640.757 130.975C638.321 130.703 636.355 128.785 636.068 126.335C635.576 122.126 635.576 117.874 636.068 113.665C636.355 111.215 638.321 109.297 640.757 109.025ZM653.023 111.013C649.054 110.569 644.948 110.569 640.979 111.013C639.453 111.183 638.231 112.388 638.055 113.897C637.581 117.952 637.581 122.048 638.055 126.103C638.231 127.613 639.453 128.817 640.979 128.987C644.948 129.431 649.054 129.431 653.023 128.987C654.549 128.817 655.77 127.613 655.947 126.103C656.421 122.048 656.421 117.952 655.947 113.897C655.77 112.388 654.549 111.183 653.023 111.013Z" fill="white"/>
<path d="M639.133 178.32V180.008H633.148V178.32H639.133ZM633.734 173.625V185H631.586V173.625H633.734ZM640.727 173.625V185H638.578V173.625H640.727ZM641.991 180.859V180.695C641.991 180.076 642.079 179.505 642.256 178.984C642.433 178.458 642.691 178.003 643.03 177.617C643.368 177.232 643.782 176.932 644.272 176.719C644.761 176.5 645.319 176.391 645.944 176.391C646.579 176.391 647.142 176.5 647.631 176.719C648.126 176.932 648.543 177.232 648.881 177.617C649.22 178.003 649.478 178.458 649.655 178.984C649.832 179.505 649.92 180.076 649.92 180.695V180.859C649.92 181.474 649.832 182.044 649.655 182.57C649.478 183.091 649.22 183.547 648.881 183.938C648.543 184.323 648.129 184.622 647.639 184.836C647.149 185.049 646.59 185.156 645.959 185.156C645.334 185.156 644.774 185.049 644.28 184.836C643.785 184.622 643.368 184.323 643.03 183.938C642.691 183.547 642.433 183.091 642.256 182.57C642.079 182.044 641.991 181.474 641.991 180.859ZM644.053 180.695V180.859C644.053 181.229 644.09 181.576 644.163 181.898C644.235 182.221 644.347 182.505 644.498 182.75C644.649 182.995 644.845 183.188 645.084 183.328C645.329 183.464 645.621 183.531 645.959 183.531C646.293 183.531 646.579 183.464 646.819 183.328C647.058 183.188 647.254 182.995 647.405 182.75C647.561 182.505 647.676 182.221 647.748 181.898C647.821 181.576 647.858 181.229 647.858 180.859V180.695C647.858 180.331 647.821 179.99 647.748 179.672C647.676 179.349 647.561 179.065 647.405 178.82C647.254 178.57 647.056 178.375 646.811 178.234C646.571 178.089 646.282 178.016 645.944 178.016C645.61 178.016 645.324 178.089 645.084 178.234C644.845 178.375 644.649 178.57 644.498 178.82C644.347 179.065 644.235 179.349 644.163 179.672C644.09 179.99 644.053 180.331 644.053 180.695ZM653.208 173V185H651.138V173H653.208ZM659.847 183.203V173H661.925V185H660.05L659.847 183.203ZM654.417 180.875V180.711C654.417 180.065 654.49 179.479 654.636 178.953C654.787 178.422 655.006 177.966 655.292 177.586C655.579 177.206 655.925 176.911 656.331 176.703C656.743 176.495 657.209 176.391 657.73 176.391C658.235 176.391 658.675 176.492 659.05 176.695C659.43 176.898 659.753 177.188 660.019 177.562C660.29 177.938 660.506 178.383 660.667 178.898C660.829 179.409 660.946 179.971 661.019 180.586V181.031C660.946 181.63 660.829 182.18 660.667 182.68C660.506 183.18 660.29 183.617 660.019 183.992C659.753 184.362 659.43 184.648 659.05 184.852C658.67 185.055 658.224 185.156 657.714 185.156C657.198 185.156 656.735 185.049 656.323 184.836C655.917 184.622 655.571 184.323 655.284 183.938C655.003 183.552 654.787 183.099 654.636 182.578C654.49 182.057 654.417 181.49 654.417 180.875ZM656.487 180.711V180.875C656.487 181.24 656.519 181.581 656.581 181.898C656.644 182.216 656.745 182.497 656.886 182.742C657.027 182.982 657.206 183.169 657.425 183.305C657.649 183.44 657.92 183.508 658.237 183.508C658.644 183.508 658.977 183.419 659.237 183.242C659.503 183.06 659.709 182.812 659.855 182.5C660.001 182.182 660.094 181.826 660.136 181.43V180.203C660.115 179.891 660.06 179.602 659.972 179.336C659.889 179.07 659.769 178.841 659.612 178.648C659.461 178.456 659.274 178.305 659.05 178.195C658.826 178.086 658.56 178.031 658.253 178.031C657.935 178.031 657.665 178.102 657.441 178.242C657.217 178.378 657.034 178.568 656.894 178.812C656.753 179.057 656.649 179.341 656.581 179.664C656.519 179.987 656.487 180.336 656.487 180.711Z" fill="#333333"/>
<rect x="566.5" y="56.5" width="161" height="167" rx="11.5" stroke="white"/>
</g>
<path d="M260.434 57.8245C260.89 58.137 261.512 58.0212 261.825 57.5658L266.917 50.1452C267.23 49.6899 267.114 49.0674 266.658 48.7549C266.203 48.4424 265.581 48.5582 265.268 49.0135L260.741 55.6096L254.145 51.0829C253.69 50.7704 253.067 50.8862 252.755 51.3416C252.442 51.7969 252.558 52.4194 253.014 52.7319L260.434 57.8245ZM194.5 57C195.43 57.3677 195.43 57.3681 195.43 57.3684C195.43 57.3684 195.43 57.3687 195.43 57.3687C195.43 57.3687 195.43 57.3683 195.43 57.3677C195.43 57.3664 195.431 57.3639 195.433 57.3601C195.436 57.3524 195.441 57.3397 195.449 57.3221C195.463 57.2869 195.486 57.2322 195.518 57.1591C195.582 57.0131 195.681 56.7941 195.818 56.5126C196.091 55.9494 196.514 55.1369 197.106 54.158C198.29 52.1991 200.146 49.5822 202.824 46.9652C208.165 41.7452 216.798 36.5 230 36.5V34.5C216.202 34.5 207.085 40.0048 201.426 45.5348C198.604 48.2928 196.647 51.0509 195.394 53.1232C194.767 54.16 194.315 55.0272 194.018 55.6398C193.87 55.9461 193.76 56.1891 193.686 56.358C193.649 56.4424 193.621 56.5084 193.602 56.5545C193.592 56.5776 193.585 56.5958 193.579 56.6088C193.577 56.6153 193.575 56.6205 193.573 56.6245C193.572 56.6264 193.572 56.6281 193.571 56.6294C193.571 56.63 193.571 56.6308 193.571 56.6311C193.57 56.6318 193.57 56.6323 194.5 57ZM230 36.5C243.19 36.5 250.658 41.7324 254.849 46.8813C256.958 49.4723 258.255 52.0651 259.023 54.0083C259.407 54.979 259.658 55.7844 259.811 56.342C259.888 56.6207 259.941 56.837 259.973 56.9808C259.99 57.0526 260.001 57.1062 260.008 57.1404C260.012 57.1574 260.014 57.1696 260.016 57.1768C260.016 57.1803 260.017 57.1827 260.017 57.1837C260.017 57.1842 260.017 57.1844 260.017 57.1843C260.017 57.1842 260.017 57.1839 260.017 57.1838C260.017 57.1834 260.017 57.1829 261 57C261.983 56.8171 261.983 56.8164 261.983 56.8157C261.983 56.8153 261.983 56.8145 261.983 56.8138C261.982 56.8123 261.982 56.8106 261.982 56.8085C261.981 56.8043 261.98 56.7988 261.978 56.7921C261.976 56.7785 261.972 56.7599 261.967 56.7363C261.957 56.6891 261.943 56.622 261.923 56.5363C261.884 56.3651 261.825 56.1196 261.739 55.8103C261.569 55.1921 261.296 54.3179 260.883 53.273C260.058 51.1849 258.667 48.4027 256.401 45.6187C251.842 40.0177 243.81 34.5 230 34.5V36.5Z" fill="url(#paint0_linear_998_5385)"/>
<path d="M648 227.453L645.113 230.339L648 233.226L650.887 230.339L648 227.453ZM111.5 225V226.625H112.5V225H111.5ZM111.5 229.875V233.125H112.5V229.875H111.5ZM111.5 236.375V238H112.5V236.375H111.5ZM111.5 238C111.5 238.464 111.53 238.922 111.589 239.371L112.58 239.241C112.527 238.835 112.5 238.421 112.5 238H111.5ZM112.297 242.019C112.651 242.873 113.114 243.67 113.67 244.393L114.462 243.783C113.96 243.129 113.541 242.408 113.221 241.636L112.297 242.019ZM115.607 246.33C116.33 246.886 117.127 247.349 117.981 247.703L118.364 246.779C117.592 246.459 116.871 246.04 116.217 245.538L115.607 246.33ZM120.629 248.411C121.078 248.47 121.536 248.5 122 248.5V247.5C121.579 247.5 121.165 247.473 120.759 247.42L120.629 248.411ZM122 248.5H123.478V247.5H122V248.5ZM126.434 248.5H129.39V247.5H126.434V248.5ZM132.346 248.5H135.303V247.5H132.346V248.5ZM138.259 248.5H141.215V247.5H138.259V248.5ZM144.171 248.5H147.127V247.5H144.171V248.5ZM150.083 248.5H153.039V247.5H150.083V248.5ZM155.996 248.5H158.952V247.5H155.996V248.5ZM161.908 248.5H164.864V247.5H161.908V248.5ZM167.82 248.5H170.776V247.5H167.82V248.5ZM173.732 248.5H176.689V247.5H173.732V248.5ZM179.645 248.5H182.601V247.5H179.645V248.5ZM185.557 248.5H188.513V247.5H185.557V248.5ZM191.469 248.5H194.425V247.5H191.469V248.5ZM197.382 248.5H200.338V247.5H197.382V248.5ZM203.294 248.5H206.25V247.5H203.294V248.5ZM209.206 248.5H212.162V247.5H209.206V248.5ZM215.118 248.5H218.074V247.5H215.118V248.5ZM221.031 248.5H223.987V247.5H221.031V248.5ZM226.943 248.5H229.899V247.5H226.943V248.5ZM232.855 248.5H235.811V247.5H232.855V248.5ZM238.767 248.5H241.724V247.5H238.767V248.5ZM244.68 248.5H247.636V247.5H244.68V248.5ZM250.592 248.5H253.548V247.5H250.592V248.5ZM256.504 248.5H259.46V247.5H256.504V248.5ZM262.417 248.5H265.373V247.5H262.417V248.5ZM268.329 248.5H271.285V247.5H268.329V248.5ZM274.241 248.5H277.197V247.5H274.241V248.5ZM280.153 248.5H283.109V247.5H280.153V248.5ZM286.066 248.5H287.544V247.5H286.066V248.5ZM464.32 248.5H465.817V247.5H464.32V248.5ZM468.812 248.5H471.806V247.5H468.812V248.5ZM474.801 248.5H477.795V247.5H474.801V248.5ZM480.79 248.5H483.784V247.5H480.79V248.5ZM486.779 248.5H489.773V247.5H486.779V248.5ZM492.768 248.5H495.762V247.5H492.768V248.5ZM498.757 248.5H501.751V247.5H498.757V248.5ZM504.746 248.5H507.74V247.5H504.746V248.5ZM510.735 248.5H513.729V247.5H510.735V248.5ZM516.724 248.5H519.718V247.5H516.724V248.5ZM522.713 248.5H525.707V247.5H522.713V248.5ZM528.701 248.5H531.696V247.5H528.701V248.5ZM534.69 248.5H537.685V247.5H534.69V248.5ZM540.679 248.5H543.674V247.5H540.679V248.5ZM546.668 248.5H549.663V247.5H546.668V248.5ZM552.657 248.5H555.652V247.5H552.657V248.5ZM558.646 248.5H561.641V247.5H558.646V248.5ZM564.635 248.5H567.63V247.5H564.635V248.5ZM570.624 248.5H573.619V247.5H570.624V248.5ZM576.613 248.5H579.608V247.5H576.613V248.5ZM582.602 248.5H585.597V247.5H582.602V248.5ZM588.591 248.5H591.586V247.5H588.591V248.5ZM594.58 248.5H597.575V247.5H594.58V248.5ZM600.569 248.5H603.564V247.5H600.569V248.5ZM606.558 248.5H609.552V247.5H606.558V248.5ZM612.547 248.5H615.541V247.5H612.547V248.5ZM618.536 248.5H621.53V247.5H618.536V248.5ZM624.525 248.5H627.519V247.5H624.525V248.5ZM630.514 248.5H633.508V247.5H630.514V248.5ZM636.503 248.5H638V247.5H636.503V248.5ZM638 248.5C638.464 248.5 638.922 248.47 639.371 248.411L639.241 247.42C638.835 247.473 638.421 247.5 638 247.5V248.5ZM642.019 247.703C642.873 247.349 643.67 246.886 644.393 246.33L643.783 245.538C643.129 246.04 642.408 246.459 641.636 246.779L642.019 247.703ZM646.33 244.393C646.886 243.67 647.349 242.873 647.703 242.019L646.779 241.636C646.459 242.408 646.04 243.129 645.538 243.783L646.33 244.393ZM648.411 239.371C648.47 238.922 648.5 238.464 648.5 238H647.5C647.5 238.421 647.473 238.835 647.42 239.241L648.411 239.371ZM648.5 238V236.085H647.5V238H648.5ZM648.5 232.254V230.339H647.5V232.254H648.5ZM287.044 224V225.5H288.044V224H287.044ZM287.044 228.5V231.5H288.044V228.5H287.044ZM287.044 234.5V237.5H288.044V234.5H287.044ZM287.044 240.5V243.5H288.044V240.5H287.044ZM287.044 246.5V248H288.044V246.5H287.044ZM287.544 248.5H289.068V247.5H287.544V248.5ZM292.116 248.5H295.163V247.5H292.116V248.5ZM298.211 248.5H301.259V247.5H298.211V248.5ZM304.307 248.5H307.355V247.5H304.307V248.5ZM310.403 248.5H313.451V247.5H310.403V248.5ZM316.498 248.5H319.546V247.5H316.498V248.5ZM322.594 248.5H325.642V247.5H322.594V248.5ZM328.69 248.5H331.738V247.5H328.69V248.5ZM334.786 248.5H337.834V247.5H334.786V248.5ZM340.881 248.5H343.929V247.5H340.881V248.5ZM346.977 248.5H350.025V247.5H346.977V248.5ZM353.073 248.5H356.121V247.5H353.073V248.5ZM359.169 248.5H362.217V247.5H359.169V248.5ZM365.264 248.5H368.312V247.5H365.264V248.5ZM371.36 248.5H374.408V247.5H371.36V248.5ZM377.456 248.5H380.504V247.5H377.456V248.5ZM383.552 248.5H386.599V247.5H383.552V248.5ZM389.647 248.5H392.695V247.5H389.647V248.5ZM395.743 248.5H398.791V247.5H395.743V248.5ZM401.839 248.5H404.887V247.5H401.839V248.5ZM407.935 248.5H410.982V247.5H407.935V248.5ZM414.03 248.5H417.078V247.5H414.03V248.5ZM420.126 248.5H423.174V247.5H420.126V248.5ZM426.222 248.5H429.27V247.5H426.222V248.5ZM432.317 248.5H435.365V247.5H432.317V248.5ZM438.413 248.5H441.461V247.5H438.413V248.5ZM444.509 248.5H447.557V247.5H444.509V248.5ZM450.605 248.5H453.653V247.5H450.605V248.5ZM456.7 248.5H459.748V247.5H456.7V248.5ZM462.796 248.5H464.32V247.5H462.796V248.5ZM463.82 224V225.5H464.82V224H463.82ZM463.82 228.5V231.5H464.82V228.5H463.82ZM463.82 234.5V237.5H464.82V234.5H463.82ZM463.82 240.5V243.5H464.82V240.5H463.82ZM463.82 246.5V248H464.82V246.5H463.82Z" fill="#C5C5C5"/>
<path d="M437.934 57.3245C438.39 57.637 439.012 57.5212 439.325 57.0658L444.417 49.6452C444.73 49.1899 444.614 48.5674 444.158 48.2549C443.703 47.9424 443.081 48.0582 442.768 48.5135L438.241 55.1096L431.645 50.5829C431.19 50.2704 430.567 50.3862 430.255 50.8416C429.942 51.2969 430.058 51.9194 430.514 52.2319L437.934 57.3245ZM372 56.5C372.93 56.8677 372.93 56.8681 372.93 56.8684C372.93 56.8684 372.93 56.8687 372.93 56.8687C372.93 56.8687 372.93 56.8683 372.93 56.8677C372.93 56.8664 372.931 56.8639 372.933 56.8601C372.936 56.8524 372.941 56.8397 372.949 56.8221C372.963 56.7869 372.986 56.7322 373.018 56.6591C373.082 56.5131 373.181 56.2941 373.318 56.0126C373.591 55.4494 374.014 54.6369 374.606 53.658C375.79 51.6991 377.646 49.0822 380.324 46.4652C385.665 41.2452 394.298 36 407.5 36V34C393.702 34 384.585 39.5048 378.926 45.0348C376.104 47.7928 374.147 50.5509 372.894 52.6232C372.267 53.66 371.815 54.5272 371.518 55.1398C371.37 55.4461 371.26 55.6891 371.186 55.858C371.149 55.9424 371.121 56.0084 371.102 56.0545C371.092 56.0776 371.085 56.0958 371.079 56.1088C371.077 56.1153 371.075 56.1205 371.073 56.1245C371.072 56.1264 371.072 56.1281 371.071 56.1294C371.071 56.13 371.071 56.1308 371.071 56.1311C371.07 56.1318 371.07 56.1323 372 56.5ZM407.5 36C420.69 36 428.158 41.2324 432.349 46.3813C434.458 48.9723 435.755 51.5651 436.523 53.5083C436.907 54.479 437.158 55.2844 437.311 55.842C437.388 56.1207 437.441 56.337 437.473 56.4808C437.49 56.5526 437.501 56.6062 437.508 56.6404C437.512 56.6574 437.514 56.6696 437.516 56.6768C437.516 56.6803 437.517 56.6827 437.517 56.6837C437.517 56.6842 437.517 56.6844 437.517 56.6843C437.517 56.6842 437.517 56.6839 437.517 56.6838C437.517 56.6834 437.517 56.6829 438.5 56.5C439.483 56.3171 439.483 56.3164 439.483 56.3157C439.483 56.3153 439.483 56.3145 439.483 56.3138C439.482 56.3123 439.482 56.3106 439.482 56.3085C439.481 56.3043 439.48 56.2988 439.478 56.2921C439.476 56.2785 439.472 56.2599 439.467 56.2363C439.457 56.1891 439.443 56.122 439.423 56.0363C439.384 55.8651 439.325 55.6196 439.239 55.3103C439.069 54.6921 438.796 53.8179 438.383 52.773C437.558 50.6849 436.167 47.9027 433.901 45.1187C429.342 39.5177 421.31 34 407.5 34V36Z" fill="url(#paint1_linear_998_5385)"/>
<path d="M209.702 276.734V278H205.167V276.734H209.702ZM205.659 269.469V278H204.048V269.469H205.659ZM209.111 272.99V274.227H205.167V272.99H209.111ZM209.685 269.469V270.74H205.167V269.469H209.685ZM216.214 275.193H217.825C217.782 275.764 217.624 276.27 217.35 276.711C217.077 277.148 216.696 277.492 216.208 277.742C215.72 277.992 215.128 278.117 214.432 278.117C213.897 278.117 213.415 278.023 212.985 277.836C212.559 277.645 212.194 277.373 211.889 277.021C211.589 276.666 211.358 276.24 211.198 275.744C211.038 275.244 210.958 274.684 210.958 274.062V273.412C210.958 272.791 211.04 272.23 211.204 271.73C211.368 271.23 211.602 270.805 211.907 270.453C212.216 270.098 212.585 269.824 213.014 269.633C213.448 269.441 213.932 269.346 214.468 269.346C215.163 269.346 215.751 269.475 216.231 269.732C216.712 269.986 217.085 270.336 217.35 270.781C217.616 271.227 217.776 271.738 217.831 272.316H216.22C216.188 271.957 216.11 271.652 215.985 271.402C215.864 271.152 215.68 270.963 215.434 270.834C215.192 270.701 214.87 270.635 214.468 270.635C214.155 270.635 213.88 270.693 213.641 270.811C213.407 270.928 213.212 271.104 213.055 271.338C212.899 271.568 212.782 271.857 212.704 272.205C212.626 272.549 212.587 272.947 212.587 273.4V274.062C212.587 274.496 212.622 274.885 212.692 275.229C212.763 275.572 212.872 275.863 213.02 276.102C213.169 276.34 213.36 276.521 213.595 276.646C213.829 276.771 214.108 276.834 214.432 276.834C214.827 276.834 215.147 276.771 215.393 276.646C215.643 276.521 215.833 276.338 215.962 276.096C216.095 275.854 216.179 275.553 216.214 275.193ZM225.116 269.469V270.74H220.95V269.469H225.116ZM226.305 269.469V278H224.688V269.469H226.305ZM220.692 269.469H222.297L222.086 273.729C222.055 274.357 221.998 274.908 221.916 275.381C221.834 275.854 221.723 276.258 221.582 276.594C221.442 276.926 221.266 277.195 221.055 277.402C220.844 277.609 220.594 277.762 220.305 277.859C220.02 277.953 219.688 278 219.309 278H218.905V276.734L219.133 276.711C219.332 276.695 219.504 276.646 219.649 276.564C219.797 276.482 219.924 276.359 220.03 276.195C220.135 276.027 220.221 275.812 220.288 275.551C220.358 275.289 220.413 274.971 220.452 274.596C220.495 274.221 220.526 273.781 220.545 273.277L220.692 269.469ZM229.934 275.422L233.537 269.469H235.154V278H233.537V272.047L229.934 278H228.322V269.469H229.934V275.422ZM243.952 269.469V278H242.347V269.469H243.952ZM246.601 269.469V270.74H239.728V269.469H246.601ZM253.727 276.734V278H249.192V276.734H253.727ZM249.684 269.469V278H248.073V269.469H249.684ZM253.136 272.99V274.227H249.192V272.99H253.136ZM253.71 269.469V270.74H249.192V269.469H253.71ZM256.53 269.469L258.235 272.51L259.946 269.469H261.797L259.266 273.699L261.862 278H259.993L258.235 274.9L256.483 278H254.608L257.204 273.699L254.672 269.469H256.53ZM268.912 272.99V274.256H264.424V272.99H268.912ZM264.863 269.469V278H263.252V269.469H264.863ZM270.107 269.469V278H268.496V269.469H270.107ZM279.056 273.518V273.957C279.056 274.602 278.97 275.182 278.798 275.697C278.627 276.209 278.382 276.645 278.066 277.004C277.75 277.363 277.373 277.639 276.935 277.83C276.498 278.021 276.011 278.117 275.476 278.117C274.949 278.117 274.464 278.021 274.023 277.83C273.586 277.639 273.207 277.363 272.886 277.004C272.566 276.645 272.318 276.209 272.142 275.697C271.966 275.182 271.879 274.602 271.879 273.957V273.518C271.879 272.869 271.966 272.289 272.142 271.777C272.318 271.266 272.564 270.83 272.88 270.471C273.197 270.107 273.574 269.83 274.011 269.639C274.453 269.447 274.937 269.352 275.464 269.352C276 269.352 276.486 269.447 276.923 269.639C277.361 269.83 277.738 270.107 278.054 270.471C278.375 270.83 278.621 271.266 278.793 271.777C278.968 272.289 279.056 272.869 279.056 273.518ZM277.427 273.957V273.506C277.427 273.041 277.384 272.633 277.298 272.281C277.213 271.926 277.086 271.627 276.918 271.385C276.75 271.143 276.543 270.961 276.296 270.84C276.05 270.715 275.773 270.652 275.464 270.652C275.152 270.652 274.875 270.715 274.632 270.84C274.394 270.961 274.191 271.143 274.023 271.385C273.855 271.627 273.726 271.926 273.636 272.281C273.55 272.633 273.507 273.041 273.507 273.506V273.957C273.507 274.418 273.55 274.826 273.636 275.182C273.726 275.537 273.855 275.838 274.023 276.084C274.195 276.326 274.402 276.51 274.644 276.635C274.886 276.76 275.164 276.822 275.476 276.822C275.789 276.822 276.066 276.76 276.308 276.635C276.55 276.51 276.754 276.326 276.918 276.084C277.086 275.838 277.213 275.537 277.298 275.182C277.384 274.826 277.427 274.418 277.427 273.957ZM286.277 269.469V270.74H282.111V269.469H286.277ZM287.466 269.469V278H285.849V269.469H287.466ZM281.853 269.469H283.458L283.247 273.729C283.216 274.357 283.159 274.908 283.077 275.381C282.995 275.854 282.884 276.258 282.743 276.594C282.603 276.926 282.427 277.195 282.216 277.402C282.005 277.609 281.755 277.762 281.466 277.859C281.181 277.953 280.849 278 280.47 278H280.066V276.734L280.294 276.711C280.493 276.695 280.665 276.646 280.81 276.564C280.958 276.482 281.085 276.359 281.191 276.195C281.296 276.027 281.382 275.812 281.448 275.551C281.519 275.289 281.573 274.971 281.613 274.596C281.655 274.221 281.687 273.781 281.706 273.277L281.853 269.469ZM296.427 273.518V273.957C296.427 274.602 296.341 275.182 296.169 275.697C295.997 276.209 295.753 276.645 295.436 277.004C295.12 277.363 294.743 277.639 294.305 277.83C293.868 278.021 293.382 278.117 292.846 278.117C292.319 278.117 291.835 278.021 291.393 277.83C290.956 277.639 290.577 277.363 290.257 277.004C289.936 276.645 289.688 276.209 289.513 275.697C289.337 275.182 289.249 274.602 289.249 273.957V273.518C289.249 272.869 289.337 272.289 289.513 271.777C289.688 271.266 289.934 270.83 290.251 270.471C290.567 270.107 290.944 269.83 291.382 269.639C291.823 269.447 292.307 269.352 292.835 269.352C293.37 269.352 293.856 269.447 294.294 269.639C294.731 269.83 295.108 270.107 295.425 270.471C295.745 270.83 295.991 271.266 296.163 271.777C296.339 272.289 296.427 272.869 296.427 273.518ZM294.798 273.957V273.506C294.798 273.041 294.755 272.633 294.669 272.281C294.583 271.926 294.456 271.627 294.288 271.385C294.12 271.143 293.913 270.961 293.667 270.84C293.421 270.715 293.143 270.652 292.835 270.652C292.522 270.652 292.245 270.715 292.003 270.84C291.764 270.961 291.561 271.143 291.393 271.385C291.225 271.627 291.096 271.926 291.007 272.281C290.921 272.633 290.878 273.041 290.878 273.506V273.957C290.878 274.418 290.921 274.826 291.007 275.182C291.096 275.537 291.225 275.838 291.393 276.084C291.565 276.326 291.772 276.51 292.014 276.635C292.257 276.76 292.534 276.822 292.846 276.822C293.159 276.822 293.436 276.76 293.679 276.635C293.921 276.51 294.124 276.326 294.288 276.084C294.456 275.838 294.583 275.537 294.669 275.182C294.755 274.826 294.798 274.418 294.798 273.957ZM303.717 269.469V270.74H299.815V278H298.209V269.469H303.717ZM306.859 275.422L310.463 269.469H312.08V278H310.463V272.047L306.859 278H305.248V269.469H306.859V275.422ZM318.703 274.848H316.365L315.779 274.607C315.123 274.4 314.621 274.088 314.273 273.67C313.925 273.252 313.752 272.723 313.752 272.082C313.752 271.516 313.877 271.039 314.127 270.652C314.38 270.262 314.74 269.967 315.205 269.768C315.673 269.568 316.228 269.469 316.869 269.469H319.787V278H318.17V270.74H316.869C316.357 270.74 315.978 270.867 315.732 271.121C315.486 271.375 315.363 271.729 315.363 272.182C315.363 272.498 315.418 272.766 315.527 272.984C315.64 273.203 315.806 273.367 316.025 273.477C316.248 273.586 316.523 273.641 316.851 273.641H318.697L318.703 274.848ZM316.957 274.168L315.017 278H313.277L315.228 274.168H316.957ZM330.811 272.99V274.256H326.323V272.99H330.811ZM326.763 269.469V278H325.151V269.469H326.763ZM332.007 269.469V278H330.395V269.469H332.007ZM339.702 276.734V278H335.166V276.734H339.702ZM335.659 269.469V278H334.047V269.469H335.659ZM339.11 272.99V274.227H335.166V272.99H339.11ZM339.684 269.469V270.74H335.166V269.469H339.684ZM351.459 269.469V278H349.847V270.74H346.238V278H344.627V269.469H351.459ZM360.425 273.518V273.957C360.425 274.602 360.339 275.182 360.167 275.697C359.995 276.209 359.751 276.645 359.435 277.004C359.118 277.363 358.741 277.639 358.304 277.83C357.866 278.021 357.38 278.117 356.845 278.117C356.318 278.117 355.833 278.021 355.392 277.83C354.954 277.639 354.575 277.363 354.255 277.004C353.935 276.645 353.687 276.209 353.511 275.697C353.335 275.182 353.247 274.602 353.247 273.957V273.518C353.247 272.869 353.335 272.289 353.511 271.777C353.687 271.266 353.933 270.83 354.249 270.471C354.566 270.107 354.943 269.83 355.38 269.639C355.821 269.447 356.306 269.352 356.833 269.352C357.368 269.352 357.855 269.447 358.292 269.639C358.73 269.83 359.107 270.107 359.423 270.471C359.743 270.83 359.989 271.266 360.161 271.777C360.337 272.289 360.425 272.869 360.425 273.518ZM358.796 273.957V273.506C358.796 273.041 358.753 272.633 358.667 272.281C358.581 271.926 358.454 271.627 358.286 271.385C358.118 271.143 357.911 270.961 357.665 270.84C357.419 270.715 357.142 270.652 356.833 270.652C356.521 270.652 356.243 270.715 356.001 270.84C355.763 270.961 355.56 271.143 355.392 271.385C355.224 271.627 355.095 271.926 355.005 272.281C354.919 272.633 354.876 273.041 354.876 273.506V273.957C354.876 274.418 354.919 274.826 355.005 275.182C355.095 275.537 355.224 275.838 355.392 276.084C355.564 276.326 355.771 276.51 356.013 276.635C356.255 276.76 356.532 276.822 356.845 276.822C357.157 276.822 357.435 276.76 357.677 276.635C357.919 276.51 358.122 276.326 358.286 276.084C358.454 275.838 358.581 275.537 358.667 275.182C358.753 274.826 358.796 274.418 358.796 273.957ZM368.747 276.734V278H362.53V276.734H368.747ZM362.97 276.734V280.092H361.44L361.364 276.734H362.97ZM369.948 276.734L369.825 280.098H368.331V276.734H369.948ZM367.745 269.469V270.74H363.725V269.469H367.745ZM368.934 269.469V278H367.329V269.469H368.934ZM363.468 269.469H365.079L364.862 272.938C364.831 273.496 364.772 273.994 364.686 274.432C364.604 274.869 364.503 275.258 364.382 275.598C364.261 275.938 364.126 276.236 363.977 276.494C363.833 276.748 363.679 276.969 363.514 277.156C363.354 277.344 363.188 277.506 363.016 277.643C362.848 277.775 362.682 277.895 362.518 278H361.622V276.734H362.009C362.122 276.637 362.241 276.5 362.366 276.324C362.495 276.148 362.618 275.916 362.735 275.627C362.856 275.338 362.962 274.973 363.052 274.531C363.141 274.09 363.206 273.559 363.245 272.938L363.468 269.469ZM378.123 273.518V273.957C378.123 274.602 378.038 275.182 377.866 275.697C377.694 276.209 377.45 276.645 377.133 277.004C376.817 277.363 376.44 277.639 376.002 277.83C375.565 278.021 375.079 278.117 374.543 278.117C374.016 278.117 373.532 278.021 373.09 277.83C372.653 277.639 372.274 277.363 371.954 277.004C371.633 276.645 371.385 276.209 371.209 275.697C371.034 275.182 370.946 274.602 370.946 273.957V273.518C370.946 272.869 371.034 272.289 371.209 271.777C371.385 271.266 371.631 270.83 371.948 270.471C372.264 270.107 372.641 269.83 373.079 269.639C373.52 269.447 374.004 269.352 374.532 269.352C375.067 269.352 375.553 269.447 375.991 269.639C376.428 269.83 376.805 270.107 377.121 270.471C377.442 270.83 377.688 271.266 377.86 271.777C378.036 272.289 378.123 272.869 378.123 273.518ZM376.495 273.957V273.506C376.495 273.041 376.452 272.633 376.366 272.281C376.28 271.926 376.153 271.627 375.985 271.385C375.817 271.143 375.61 270.961 375.364 270.84C375.118 270.715 374.84 270.652 374.532 270.652C374.219 270.652 373.942 270.715 373.7 270.84C373.461 270.961 373.258 271.143 373.09 271.385C372.922 271.627 372.793 271.926 372.704 272.281C372.618 272.633 372.575 273.041 372.575 273.506V273.957C372.575 274.418 372.618 274.826 372.704 275.182C372.793 275.537 372.922 275.838 373.09 276.084C373.262 276.326 373.469 276.51 373.711 276.635C373.954 276.76 374.231 276.822 374.543 276.822C374.856 276.822 375.133 276.76 375.375 276.635C375.618 276.51 375.821 276.326 375.985 276.084C376.153 275.838 376.28 275.537 376.366 275.182C376.452 274.826 376.495 274.418 376.495 273.957ZM379.883 269.469H381.5V276.734H384.008V269.469H385.619V276.734H388.104V269.469H389.715V278H379.883V269.469ZM397.486 269.469V270.74H393.32V269.469H397.486ZM398.675 269.469V278H397.058V269.469H398.675ZM393.062 269.469H394.668L394.457 273.729C394.425 274.357 394.369 274.908 394.287 275.381C394.205 275.854 394.093 276.258 393.953 276.594C393.812 276.926 393.636 277.195 393.425 277.402C393.214 277.609 392.964 277.762 392.675 277.859C392.39 277.953 392.058 278 391.679 278H391.275V276.734L391.504 276.711C391.703 276.695 391.875 276.646 392.019 276.564C392.168 276.482 392.295 276.359 392.4 276.195C392.505 276.027 392.591 275.812 392.658 275.551C392.728 275.289 392.783 274.971 392.822 274.596C392.865 274.221 392.896 273.781 392.916 273.277L393.062 269.469ZM404.226 270.764L401.794 278H400.089L403.277 269.469H404.366L404.226 270.764ZM406.259 278L403.816 270.764L403.669 269.469H404.765L407.97 278H406.259ZM406.148 274.83V276.102H401.571V274.83H406.148ZM410.591 276.605L410.579 277.678C410.579 278.096 410.475 278.52 410.268 278.949C410.061 279.379 409.794 279.734 409.466 280.016L408.645 279.564C408.751 279.389 408.848 279.211 408.938 279.031C409.032 278.852 409.106 278.656 409.161 278.445C409.22 278.238 409.249 278.006 409.249 277.748V276.605H410.591ZM422.711 269.469V278H421.1V270.74H417.49V278H415.879V269.469H422.711ZM430.423 276.734V278H425.888V276.734H430.423ZM426.38 269.469V278H424.769V269.469H426.38ZM429.832 272.99V274.227H425.888V272.99H429.832ZM430.406 269.469V270.74H425.888V269.469H430.406ZM435.224 274.889H433.027V273.623H435.224C435.583 273.623 435.874 273.564 436.097 273.447C436.323 273.326 436.489 273.162 436.595 272.955C436.7 272.744 436.753 272.504 436.753 272.234C436.753 271.973 436.7 271.729 436.595 271.502C436.489 271.275 436.323 271.092 436.097 270.951C435.874 270.811 435.583 270.74 435.224 270.74H433.554V278H431.943V269.469H435.224C435.888 269.469 436.454 269.588 436.923 269.826C437.396 270.061 437.755 270.387 438.001 270.805C438.251 271.219 438.376 271.691 438.376 272.223C438.376 272.773 438.251 273.248 438.001 273.646C437.755 274.045 437.396 274.352 436.923 274.566C436.454 274.781 435.888 274.889 435.224 274.889ZM445.696 276.734V278H441.161V276.734H445.696ZM441.653 269.469V278H440.042V269.469H441.653ZM445.104 272.99V274.227H441.161V272.99H445.104ZM445.679 269.469V270.74H441.161V269.469H445.679ZM452.875 272.99V274.256H448.387V272.99H452.875ZM448.827 269.469V278H447.215V269.469H448.827ZM454.071 269.469V278H452.459V269.469H454.071ZM463.02 273.518V273.957C463.02 274.602 462.934 275.182 462.762 275.697C462.59 276.209 462.346 276.645 462.029 277.004C461.713 277.363 461.336 277.639 460.898 277.83C460.461 278.021 459.975 278.117 459.439 278.117C458.912 278.117 458.428 278.021 457.986 277.83C457.549 277.639 457.17 277.363 456.85 277.004C456.529 276.645 456.281 276.209 456.105 275.697C455.93 275.182 455.842 274.602 455.842 273.957V273.518C455.842 272.869 455.93 272.289 456.105 271.777C456.281 271.266 456.527 270.83 456.844 270.471C457.16 270.107 457.537 269.83 457.975 269.639C458.416 269.447 458.9 269.352 459.428 269.352C459.963 269.352 460.449 269.447 460.887 269.639C461.324 269.83 461.701 270.107 462.018 270.471C462.338 270.83 462.584 271.266 462.756 271.777C462.932 272.289 463.02 272.869 463.02 273.518ZM461.391 273.957V273.506C461.391 273.041 461.348 272.633 461.262 272.281C461.176 271.926 461.049 271.627 460.881 271.385C460.713 271.143 460.506 270.961 460.26 270.84C460.014 270.715 459.736 270.652 459.428 270.652C459.115 270.652 458.838 270.715 458.596 270.84C458.357 270.961 458.154 271.143 457.986 271.385C457.818 271.627 457.689 271.926 457.6 272.281C457.514 272.633 457.471 273.041 457.471 273.506V273.957C457.471 274.418 457.514 274.826 457.6 275.182C457.689 275.537 457.818 275.838 457.986 276.084C458.158 276.326 458.365 276.51 458.607 276.635C458.85 276.76 459.127 276.822 459.439 276.822C459.752 276.822 460.029 276.76 460.271 276.635C460.514 276.51 460.717 276.326 460.881 276.084C461.049 275.838 461.176 275.537 461.262 275.182C461.348 274.826 461.391 274.418 461.391 273.957ZM469.777 275.193H471.388C471.345 275.764 471.187 276.27 470.914 276.711C470.64 277.148 470.259 277.492 469.771 277.742C469.283 277.992 468.691 278.117 467.996 278.117C467.461 278.117 466.978 278.023 466.548 277.836C466.123 277.645 465.757 277.373 465.453 277.021C465.152 276.666 464.922 276.24 464.761 275.744C464.601 275.244 464.521 274.684 464.521 274.062V273.412C464.521 272.791 464.603 272.23 464.767 271.73C464.931 271.23 465.166 270.805 465.47 270.453C465.779 270.098 466.148 269.824 466.578 269.633C467.011 269.441 467.496 269.346 468.031 269.346C468.726 269.346 469.314 269.475 469.795 269.732C470.275 269.986 470.648 270.336 470.914 270.781C471.179 271.227 471.339 271.738 471.394 272.316H469.783C469.752 271.957 469.673 271.652 469.548 271.402C469.427 271.152 469.244 270.963 468.998 270.834C468.755 270.701 468.433 270.635 468.031 270.635C467.718 270.635 467.443 270.693 467.205 270.811C466.97 270.928 466.775 271.104 466.619 271.338C466.463 271.568 466.345 271.857 466.267 272.205C466.189 272.549 466.15 272.947 466.15 273.4V274.062C466.15 274.496 466.185 274.885 466.255 275.229C466.326 275.572 466.435 275.863 466.584 276.102C466.732 276.34 466.923 276.521 467.158 276.646C467.392 276.771 467.672 276.834 467.996 276.834C468.39 276.834 468.711 276.771 468.957 276.646C469.207 276.521 469.396 276.338 469.525 276.096C469.658 275.854 469.742 275.553 469.777 275.193ZM474.612 275.422L478.216 269.469H479.833V278H478.216V272.047L474.612 278H473.001V269.469H474.612V275.422ZM482.577 269.469H483.971L486.304 275.891L488.63 269.469H490.03L486.86 278H485.741L482.577 269.469ZM481.874 269.469H483.239L483.485 275.369V278H481.874V269.469ZM489.362 269.469H490.733V278H489.122V275.369L489.362 269.469ZM501.816 276.734V278H497.281V276.734H501.816ZM497.773 269.469V278H496.162V269.469H497.773ZM501.225 272.99V274.227H497.281V272.99H501.225ZM501.799 269.469V270.74H497.281V269.469H501.799ZM508.99 276.734V278H504.455V276.734H508.99ZM504.947 269.469V278H503.336V269.469H504.947ZM508.398 272.99V274.227H504.455V272.99H508.398ZM508.972 269.469V270.74H504.455V269.469H508.972ZM504.062 268.133C504.062 267.934 504.134 267.768 504.279 267.635C504.423 267.498 504.607 267.43 504.83 267.43C505.056 267.43 505.24 267.498 505.38 267.635C505.525 267.768 505.597 267.934 505.597 268.133C505.597 268.328 505.525 268.494 505.38 268.631C505.24 268.764 505.056 268.83 504.83 268.83C504.607 268.83 504.423 268.764 504.279 268.631C504.134 268.494 504.062 268.328 504.062 268.133ZM506.857 268.139C506.857 267.939 506.927 267.773 507.068 267.641C507.213 267.504 507.398 267.436 507.625 267.436C507.847 267.436 508.031 267.504 508.175 267.641C508.32 267.773 508.392 267.939 508.392 268.139C508.392 268.334 508.32 268.5 508.175 268.637C508.031 268.77 507.847 268.836 507.625 268.836C507.398 268.836 507.213 268.77 507.068 268.637C506.927 268.5 506.857 268.334 506.857 268.139ZM517.167 274.197H514.987L514.975 273.061H516.845C517.165 273.061 517.432 273.016 517.647 272.926C517.862 272.836 518.024 272.705 518.134 272.533C518.247 272.361 518.304 272.152 518.304 271.906C518.304 271.633 518.251 271.41 518.145 271.238C518.044 271.066 517.884 270.941 517.665 270.863C517.446 270.781 517.169 270.74 516.833 270.74H515.509V278H513.897V269.469H516.833C517.317 269.469 517.749 269.516 518.128 269.609C518.511 269.699 518.835 269.84 519.1 270.031C519.366 270.223 519.567 270.463 519.704 270.752C519.845 271.041 519.915 271.385 519.915 271.783C519.915 272.135 519.833 272.459 519.669 272.756C519.509 273.049 519.261 273.287 518.925 273.471C518.593 273.654 518.171 273.76 517.659 273.787L517.167 274.197ZM517.096 278H514.513L515.186 276.734H517.096C517.417 276.734 517.68 276.682 517.888 276.576C518.098 276.471 518.255 276.326 518.356 276.143C518.462 275.955 518.514 275.74 518.514 275.498C518.514 275.232 518.468 275.002 518.374 274.807C518.284 274.611 518.139 274.461 517.94 274.355C517.745 274.25 517.487 274.197 517.167 274.197H515.491L515.503 273.061H517.636L518.005 273.5C518.497 273.504 518.897 273.602 519.206 273.793C519.518 273.984 519.749 274.23 519.897 274.531C520.046 274.832 520.12 275.156 520.12 275.504C520.12 276.051 520.001 276.51 519.763 276.881C519.528 277.252 519.184 277.531 518.731 277.719C518.282 277.906 517.737 278 517.096 278ZM530.963 272.99V274.256H526.475V272.99H530.963ZM526.914 269.469V278H525.303V269.469H526.914ZM532.158 269.469V278H530.547V269.469H532.158ZM541.107 273.518V273.957C541.107 274.602 541.021 275.182 540.849 275.697C540.677 276.209 540.433 276.645 540.117 277.004C539.8 277.363 539.423 277.639 538.986 277.83C538.548 278.021 538.062 278.117 537.527 278.117C537 278.117 536.515 278.021 536.074 277.83C535.636 277.639 535.257 277.363 534.937 277.004C534.617 276.645 534.369 276.209 534.193 275.697C534.017 275.182 533.929 274.602 533.929 273.957V273.518C533.929 272.869 534.017 272.289 534.193 271.777C534.369 271.266 534.615 270.83 534.931 270.471C535.248 270.107 535.625 269.83 536.062 269.639C536.504 269.447 536.988 269.352 537.515 269.352C538.05 269.352 538.537 269.447 538.974 269.639C539.412 269.83 539.789 270.107 540.105 270.471C540.425 270.83 540.672 271.266 540.843 271.777C541.019 272.289 541.107 272.869 541.107 273.518ZM539.478 273.957V273.506C539.478 273.041 539.435 272.633 539.349 272.281C539.263 271.926 539.136 271.627 538.968 271.385C538.8 271.143 538.593 270.961 538.347 270.84C538.101 270.715 537.824 270.652 537.515 270.652C537.203 270.652 536.925 270.715 536.683 270.84C536.445 270.961 536.242 271.143 536.074 271.385C535.906 271.627 535.777 271.926 535.687 272.281C535.601 272.633 535.558 273.041 535.558 273.506V273.957C535.558 274.418 535.601 274.826 535.687 275.182C535.777 275.537 535.906 275.838 536.074 276.084C536.246 276.326 536.453 276.51 536.695 276.635C536.937 276.76 537.214 276.822 537.527 276.822C537.839 276.822 538.117 276.76 538.359 276.635C538.601 276.51 538.804 276.326 538.968 276.084C539.136 275.838 539.263 275.537 539.349 275.182C539.435 274.826 539.478 274.418 539.478 273.957ZM548.286 276.734V278H543.997V276.734H548.286ZM544.484 269.469V278H542.872V269.469H544.484ZM552.313 278H550.473L550.485 276.734H552.313C552.809 276.734 553.225 276.625 553.561 276.406C553.897 276.184 554.151 275.865 554.323 275.451C554.495 275.033 554.581 274.533 554.581 273.951V273.512C554.581 273.062 554.532 272.666 554.434 272.322C554.337 271.979 554.192 271.689 554.001 271.455C553.813 271.221 553.581 271.043 553.304 270.922C553.026 270.801 552.708 270.74 552.348 270.74H550.438V269.469H552.348C552.919 269.469 553.438 269.564 553.907 269.756C554.38 269.947 554.788 270.223 555.132 270.582C555.479 270.938 555.745 271.363 555.929 271.859C556.116 272.355 556.21 272.91 556.21 273.523V273.951C556.21 274.561 556.116 275.115 555.929 275.615C555.745 276.111 555.479 276.537 555.132 276.893C554.788 277.248 554.378 277.521 553.901 277.713C553.425 277.904 552.895 278 552.313 278ZM551.376 269.469V278H549.764V269.469H551.376Z" fill="#888888"/>
<rect x="166" y="64" width="20" height="20" rx="10" fill="#EBEBEB"/>
<path d="M177.672 69.4453V78H176.119V71.2559L174.062 71.9355V70.6816L177.496 69.4453H177.672Z" fill="#888888"/>
<rect x="344" y="64" width="20" height="20" rx="10" fill="#EBEBEB"/>
<path d="M357.465 76.7812V78H351.688V76.957L354.459 73.9629C354.748 73.6348 354.977 73.3496 355.145 73.1074C355.312 72.8652 355.432 72.6465 355.502 72.4512C355.576 72.252 355.613 72.0625 355.613 71.8828C355.613 71.6211 355.566 71.3926 355.473 71.1973C355.379 70.998 355.242 70.8438 355.062 70.7344C354.887 70.625 354.67 70.5703 354.412 70.5703C354.127 70.5703 353.883 70.6367 353.68 70.7695C353.48 70.8984 353.328 71.0781 353.223 71.3086C353.121 71.5391 353.07 71.8027 353.07 72.0996H351.518C351.518 71.5957 351.635 71.1367 351.869 70.7227C352.104 70.3047 352.439 69.9707 352.877 69.7207C353.314 69.4707 353.834 69.3457 354.436 69.3457C355.021 69.3457 355.518 69.4434 355.924 69.6387C356.33 69.8301 356.639 70.1035 356.85 70.459C357.061 70.8145 357.166 71.2383 357.166 71.7305C357.166 72.0039 357.121 72.2734 357.031 72.5391C356.941 72.8047 356.814 73.0684 356.65 73.3301C356.49 73.5879 356.299 73.8496 356.076 74.1152C355.854 74.3809 355.605 74.6523 355.332 74.9297L353.668 76.7812H357.465Z" fill="#888888"/>
<rect x="522" y="64" width="20" height="20" rx="10" fill="#EBEBEB"/>
<path fill-rule="evenodd" clip-rule="evenodd" d="M537.025 70.6413C537.269 70.8854 537.269 71.2811 537.025 71.5252L531.191 77.3585C530.947 77.6026 530.551 77.6026 530.307 77.3585L526.974 74.0252C526.73 73.7811 526.73 73.3854 526.974 73.1413C527.218 72.8972 527.614 72.8972 527.858 73.1413L530.749 76.0327L536.141 70.6413C536.385 70.3972 536.781 70.3972 537.025 70.6413Z" fill="#888888"/>
</g>
<defs>
<filter id="filter0_d_998_5385" x="-64" y="-36" width="354" height="360" filterUnits="userSpaceOnUse" color-interpolation-filters="sRGB">
<feFlood flood-opacity="0" result="BackgroundImageFix"/>
<feColorMatrix in="SourceAlpha" type="matrix" values="0 0 0 0 0 0 0 0 0 0 0 0 0 0 0 0 0 0 127 0" result="hardAlpha"/>
<feOffset dy="4"/>
<feGaussianBlur stdDeviation="48"/>
<feComposite in2="hardAlpha" operator="out"/>
<feColorMatrix type="matrix" values="0 0 0 0 0 0 0 0 0 0 0 0 0 0 0 0 0 0 0.08 0"/>
<feBlend mode="normal" in2="BackgroundImageFix" result="effect1_dropShadow_998_5385"/>
<feBlend mode="normal" in="SourceGraphic" in2="effect1_dropShadow_998_5385" result="shape"/>
</filter>
<filter id="filter1_d_998_5385" x="114" y="-36" width="354" height="360" filterUnits="userSpaceOnUse" color-interpolation-filters="sRGB">
<feFlood flood-opacity="0" result="BackgroundImageFix"/>
<feColorMatrix in="SourceAlpha" type="matrix" values="0 0 0 0 0 0 0 0 0 0 0 0 0 0 0 0 0 0 127 0" result="hardAlpha"/>
<feOffset dy="4"/>
<feGaussianBlur stdDeviation="48"/>
<feComposite in2="hardAlpha" operator="out"/>
<feColorMatrix type="matrix" values="0 0 0 0 0 0 0 0 0 0 0 0 0 0 0 0 0 0 0.08 0"/>
<feBlend mode="normal" in2="BackgroundImageFix" result="effect1_dropShadow_998_5385"/>
<feBlend mode="normal" in="SourceGraphic" in2="effect1_dropShadow_998_5385" result="shape"/>
</filter>
<filter id="filter2_d_998_5385" x="292" y="-36" width="354" height="360" filterUnits="userSpaceOnUse" color-interpolation-filters="sRGB">
<feFlood flood-opacity="0" result="BackgroundImageFix"/>
<feColorMatrix in="SourceAlpha" type="matrix" values="0 0 0 0 0 0 0 0 0 0 0 0 0 0 0 0 0 0 127 0" result="hardAlpha"/>
<feOffset dy="4"/>
<feGaussianBlur stdDeviation="48"/>
<feComposite in2="hardAlpha" operator="out"/>
<feColorMatrix type="matrix" values="0 0 0 0 0 0 0 0 0 0 0 0 0 0 0 0 0 0 0.08 0"/>
<feBlend mode="normal" in2="BackgroundImageFix" result="effect1_dropShadow_998_5385"/>
<feBlend mode="normal" in="SourceGraphic" in2="effect1_dropShadow_998_5385" result="shape"/>
</filter>
<filter id="filter3_d_998_5385" x="470" y="-36" width="354" height="360" filterUnits="userSpaceOnUse" color-interpolation-filters="sRGB">
<feFlood flood-opacity="0" result="BackgroundImageFix"/>
<feColorMatrix in="SourceAlpha" type="matrix" values="0 0 0 0 0 0 0 0 0 0 0 0 0 0 0 0 0 0 127 0" result="hardAlpha"/>
<feOffset dy="4"/>
<feGaussianBlur stdDeviation="48"/>
<feComposite in2="hardAlpha" operator="out"/>
<feColorMatrix type="matrix" values="0 0 0 0 0 0 0 0 0 0 0 0 0 0 0 0 0 0 0.08 0"/>
<feBlend mode="normal" in2="BackgroundImageFix" result="effect1_dropShadow_998_5385"/>
<feBlend mode="normal" in="SourceGraphic" in2="effect1_dropShadow_998_5385" result="shape"/>
</filter>
<linearGradient id="paint0_linear_998_5385" x1="259.5" y1="49.5" x2="195" y2="57" gradientUnits="userSpaceOnUse">
<stop stop-color="#333333"/>
<stop offset="1" stop-color="#333333" stop-opacity="0"/>
</linearGradient>
<linearGradient id="paint1_linear_998_5385" x1="437" y1="49" x2="372.5" y2="56.5" gradientUnits="userSpaceOnUse">
<stop stop-color="#333333"/>
<stop offset="1" stop-color="#333333" stop-opacity="0"/>
</linearGradient>
<clipPath id="clip0_998_5385">
<rect width="760" height="339" rx="8" fill="white"/>
</clipPath>
</defs>
</svg>
