<svg class="inline-svg" fill="none" xmlns="http://www.w3.org/2000/svg" viewBox="0 0 36 41" aria-hidden="true"><path d="M6.77 33.3c-.6-.4-1.12-.9-1.72-1.63l-.94-1.15c-.92-1.15-1.5-1.68-2.11-1.9a2 2 0 1 1 1.35-3.77c1.5.54 2.52 1.47 3.9 3.18l.86 1.08c.38.45.66.73.88.87.41.28 1.18.4 2.3.28.05-.76.19-1.5.4-2.19C5.77 26.62 2.4 22.8 2.4 15.28c0-2.48.74-4.71 2.12-6.58-.44-1.8-.37-3.95.6-6.39a2 2 0 0 1 1.26-1.16c.16-.05.25-.07.42-.1 1.6-.24 3.87.34 6.83 2.2a23.46 23.46 0 0 1 10.74 0c2.95-1.87 5.22-2.46 6.84-2.2a2 2 0 0 1 1.67 1.26c.97 2.44 1.04 4.6.6 6.38a10.87 10.87 0 0 1 2.12 6.59c0 7.51-3.35 11.33-9.28 12.78.25.83.38 1.76.38 2.76 0 1.81-.01 3.63-.03 5.44a2 2 0 0 1-.04 3.91c-2.27.46-3.96-1.06-3.96-3.05v-.89l.01-1.41.02-4c0-1.39-.37-2.3-.85-2.72a2 2 0 0 1 1.08-3.5c5.93-.67 8.67-2.96 8.67-9.32 0-1.91-.62-3.49-1.83-4.8a2 2 0 0 1-.38-2.1 5.5 5.5 0 0 0 .2-3.23l-.02.01c-.99.28-2.22.88-3.72 1.9a2 2 0 0 1-1.67.27 19.25 19.25 0 0 0-10.36 0 2 2 0 0 1-1.66-.27 13.68 13.68 0 0 0-3.74-1.9 5.43 5.43 0 0 0 .18 3.22 2 2 0 0 1-.37 2.1 6.9 6.9 0 0 0-1.83 4.8c0 6.34 2.74 8.66 8.64 9.32a2 2 0 0 1 1.1 3.5c-.4.33-.87 1.46-.87 2.72v6.3c0 1.98-1.67 3.45-3.92 3.06a2 2 0 0 1-.08-3.92v-1.98c-1.82.12-3.32-.18-4.5-.97Z" fill="currentColor"/></svg>