<svg width="32" height="26" viewBox="0 0 32 26" fill="none" xmlns="http://www.w3.org/2000/svg">
<path d="M19.9684 24.0402H11.8338C11.6742 24.0402 11.5449 23.911 11.5449 23.7513V20.8472C11.5449 20.6876 11.6742 20.5583 11.8338 20.5583H19.9684C20.128 20.5583 20.2573 20.6876 20.2573 20.8472V23.7513C20.2649 23.911 20.1356 24.0402 19.9684 24.0402Z" fill="currentColor"/>
<path d="M31.1671 3.88642C31.1671 2.08466 29.7075 0.625 27.9057 0.625H4.01141C2.20964 0.625 0.75 2.08466 0.75 3.88642V17.5403C0.75 19.3421 2.20964 20.8017 4.01141 20.8017H27.9057C29.7075 20.8017 31.1671 19.3421 31.1671 17.5403V3.88642ZM29.0689 16.9017C29.0689 18.0193 28.2022 18.9163 27.1378 18.9163H4.77925C3.71492 18.9163 2.84827 18.0116 2.84827 16.9017V4.52502C2.84827 3.40747 3.71492 2.51039 4.77925 2.51039H27.1378C28.2022 2.51039 29.0689 3.41507 29.0689 4.52502V16.9017Z" fill="currentColor"/>
<path d="M29.6457 25.5H2.27708C1.64608 25.5 1.13672 24.9906 1.13672 24.3596C1.13672 23.7286 1.64608 23.2192 2.27708 23.2192H29.6457C30.2767 23.2192 30.786 23.7286 30.786 24.3596C30.786 24.9906 30.2767 25.5 29.6457 25.5Z" fill="currentColor"/>
<path fill-rule="evenodd" clip-rule="evenodd" d="M18.5581 5.78031C18.7474 5.29839 18.5103 4.75425 18.0283 4.56493C17.5464 4.3756 17.0023 4.6128 16.813 5.09471L12.688 15.5947C12.4986 16.0766 12.7358 16.6208 13.2177 16.8101C13.6997 16.9994 14.2438 16.7622 14.4331 16.2803L18.5581 5.78031ZM12.5985 7.02459C12.9646 7.39071 12.9646 7.9843 12.5985 8.35042L10.3864 10.5625L12.5985 12.7746C12.9646 13.1407 12.9646 13.7343 12.5985 14.1004C12.2323 14.4665 11.6388 14.4665 11.2726 14.1004L8.39763 11.2254C8.03152 10.8593 8.03152 10.2657 8.39763 9.89959L11.2726 7.02459C11.6388 6.65848 12.2323 6.65848 12.5985 7.02459ZM19.3976 7.02459C19.0315 7.39071 19.0315 7.9843 19.3976 8.35042L21.6097 10.5625L19.3976 12.7746C19.0315 13.1407 19.0315 13.7343 19.3976 14.1004C19.7638 14.4665 20.3573 14.4665 20.7235 14.1004L23.5985 11.2254C23.9646 10.8593 23.9646 10.2657 23.5985 9.89959L20.7235 7.02459C20.3573 6.65848 19.7638 6.65848 19.3976 7.02459Z" fill="currentColor"/>
</svg>
