<svg width="26" height="32" viewBox="0 0 26 32" fill="none" xmlns="http://www.w3.org/2000/svg">
<path d="M4.7514 24.4287H1.96505V4.80794H15.8694V16.8022H17.2454V2.69251C17.2454 1.54922 16.3212 0.625 15.1779 0.625H2.5675C1.42421 0.625 0.5 1.54922 0.5 2.69251V26.64C0.5 27.7833 1.42421 28.7075 2.5675 28.7075H4.74455V24.4287H4.7514Z" fill="currentColor"/>
<path d="M15.8757 22.2242V23.8878H16.1838C16.6562 23.8878 17.0395 24.2712 17.0395 24.7436C17.0395 25.2159 16.6562 25.5993 16.1838 25.5993H8.83797C8.36559 25.5993 7.98221 25.2159 7.98221 24.7436C7.98221 24.634 8.00274 24.5245 8.04382 24.4287H6.80469V28.7074H8.52305C8.20813 28.5842 7.98221 28.2761 7.98221 27.9133C7.98221 27.5778 8.1739 27.2903 8.44774 27.1534H7.53037C7.20176 27.1534 6.93476 26.8864 6.93476 26.5578V26.5235C6.93476 26.1949 7.20176 25.9279 7.53037 25.9279H10.2209C10.5426 25.9279 10.8096 26.1949 10.8096 26.5235V26.5578C10.8096 26.77 10.7001 26.9548 10.5358 27.0575H16.1838C16.5603 27.0575 16.8821 27.2971 16.9916 27.6394C17.1491 27.3451 17.2449 27.0028 17.2449 26.6399V22.2242H15.8757ZM15.8757 18.8491V20.4922H17.2449V18.8491H15.8757Z" fill="currentColor"/>
<path d="M25.6118 20.4922H6.13477C6.21007 19.1983 7.24383 18.1646 8.52404 18.1646H23.2225C24.5027 18.1646 25.5365 19.1983 25.6118 20.4922Z" fill="currentColor"/>
<path d="M6.12109 22.2242V28.8512C6.12109 30.2136 7.19593 31.3226 8.52406 31.3226H23.2225C24.5507 31.3226 25.6255 30.2136 25.6255 28.8512V22.2242H6.12109ZM8.83898 23.8878H16.1848C16.6572 23.8878 17.0405 24.2712 17.0405 24.7436C17.0405 25.216 16.6572 25.5993 16.1848 25.5993H8.83898C8.3666 25.5993 7.98322 25.216 7.98322 24.7436C7.98322 24.6341 8.00376 24.5245 8.04483 24.4287C8.16806 24.1138 8.47614 23.8878 8.83898 23.8878ZM16.1848 28.7691H8.83898C8.72944 28.7691 8.6199 28.7485 8.52406 28.7075C8.20914 28.5842 7.98322 28.2761 7.98322 27.9133C7.98322 27.5779 8.17491 27.2903 8.44875 27.1534C8.56513 27.0918 8.69521 27.0576 8.83898 27.0576H16.1848C16.5613 27.0576 16.8831 27.2972 16.9926 27.6395C17.0268 27.7216 17.0405 27.8175 17.0405 27.9133C17.0405 28.3857 16.6572 28.7691 16.1848 28.7691Z" fill="currentColor"/>
</svg>
