<svg width="32" height="16" viewBox="0 0 32 16" fill="none" xmlns="http://www.w3.org/2000/svg">
<path d="M21.1 4.30666L18.5274 2.26751C18.2362 2.02475 17.8964 1.8791 17.5566 1.83054L15.7606 1.44214L14.1103 1.10227C13.6734 1.00517 13.2366 1.10227 12.8968 1.34503L9.74174 3.62695C9.49904 3.82115 9.2078 3.82115 8.91656 3.72405L7.606 3.23854C7.3633 3.14143 7.07206 3.28709 6.97498 3.48129L4.98486 7.75382C4.83924 7.99657 4.98486 8.33643 5.2761 8.43353L9.35342 10.0843L14.3045 4.98638C14.3045 4.98638 15.7606 4.93783 16.877 4.40377C16.877 4.40377 18.9642 6.49148 20.7602 5.61755C21.6339 5.32625 21.4883 4.59797 21.1 4.30666Z" fill="currentColor"/>
<path d="M24.9838 3.48122L24.013 3.77253C23.6247 3.86963 23.2363 3.82108 22.8966 3.62687L19.3046 1.39351C18.8192 1.1022 18.2368 1.0051 17.7028 1.1993L17.2174 1.34496L17.8484 1.49061C18.2368 1.58772 18.6251 1.78192 18.9649 2.02468L21.586 4.11239C21.8772 4.35515 22.0228 4.74356 21.9743 5.13197C21.9258 5.37472 21.7802 5.86024 21.1491 6.2001C19.4017 7.02547 17.6058 5.56893 17.0233 5.08342C16.101 5.47183 15.0817 5.56893 14.6934 5.61748L12.0237 8.33636L9.64527 10.8125C8.91718 11.5893 9.54819 12.9002 10.6161 12.706C10.8102 12.6574 11.0044 12.6089 11.1985 12.5118C11.1985 12.5118 11.3927 14.114 13.0916 14.0169C13.0916 14.0169 13.3343 15.6676 15.2273 15.2307C15.2273 15.2307 16.1496 16.93 18.7222 14.5509C19.9842 13.3857 24.2071 9.98711 24.2071 9.98711L26.7312 9.21028C27.0224 9.11318 27.168 8.82187 27.071 8.57911L25.7119 3.91818C25.5662 3.52977 25.275 3.38412 24.9838 3.48122Z" fill="currentColor"/>
<path d="M2.26697 8.91903L0.713703 8.14221C0.179768 7.89945 -0.0143901 7.26828 0.228308 6.78277L3.14068 0.713847C3.38338 0.179781 4.01439 -0.0144242 4.49978 0.228333L6.05305 1.00515C6.58699 1.24791 6.78114 1.87908 6.53845 2.36459L3.62607 8.43352C3.38338 8.91903 2.8009 9.16179 2.26697 8.91903Z" fill="currentColor"/>
<path d="M31.0518 9.35604L29.3529 9.84155C28.8189 9.9872 28.2365 9.6959 28.0908 9.16183L26.2463 2.65595C26.1007 2.12188 26.392 1.53926 26.9259 1.39361L28.6248 0.908094C29.1587 0.76244 29.7412 1.05375 29.8868 1.58781L31.7313 8.04515C31.8769 8.62777 31.5857 9.16183 31.0518 9.35604Z" fill="currentColor"/>
</svg>
