<svg width="64" height="64" viewBox="0 0 64 64" fill="none" xmlns="http://www.w3.org/2000/svg">
<rect width="64" height="64" rx="20" fill="#E05538"/>
<path d="M27.2939 27.2929C27.6844 26.9024 28.3176 26.9024 28.7081 27.2929L32.001 30.5858L35.2939 27.2929C35.6844 26.9024 36.3176 26.9024 36.7081 27.2929C37.0986 27.6834 37.0986 28.3166 36.7081 28.7071L33.4152 32L36.7081 35.2929C37.0986 35.6834 37.0986 36.3166 36.7081 36.7071C36.3176 37.0976 35.6844 37.0976 35.2939 36.7071L32.001 33.4142L28.7081 36.7071C28.3176 37.0976 27.6844 37.0976 27.2939 36.7071C26.9034 36.3166 26.9034 35.6834 27.2939 35.2929L30.5868 32L27.2939 28.7071C26.9033 28.3166 26.9033 27.6834 27.2939 27.2929Z" fill="white"/>
<path fill-rule="evenodd" clip-rule="evenodd" d="M25.7566 21.025C29.8734 20.5649 34.1286 20.5649 38.2453 21.025C40.6805 21.2972 42.647 23.2154 42.9335 25.6646C43.4258 29.8739 43.4258 34.1261 42.9335 38.3354C42.647 40.7846 40.6805 42.7028 38.2453 42.975C34.1285 43.4351 29.8734 43.4351 25.7566 42.975C23.3214 42.7028 21.3549 40.7846 21.0684 38.3354C20.5761 34.1261 20.5761 29.8739 21.0684 25.6646C21.3549 23.2154 23.3214 21.2972 25.7566 21.025ZM38.0231 23.0126C34.054 22.569 29.9479 22.569 25.9788 23.0126C24.4529 23.1832 23.2315 24.3875 23.0549 25.897C22.5807 29.9518 22.5807 34.0482 23.0549 38.103C23.2315 39.6125 24.4529 40.8168 25.9788 40.9874C29.9479 41.431 34.054 41.431 38.0231 40.9874C39.5491 40.8168 40.7705 39.6125 40.947 38.103C41.4213 34.0482 41.4213 29.9518 40.947 25.897C40.7705 24.3875 39.5491 23.1832 38.0231 23.0126Z" fill="white"/>
</svg>
