<svg width="24" height="32" viewBox="0 0 24 32" fill="none" xmlns="http://www.w3.org/2000/svg">
<path d="M22.9892 10.0859C22.2078 5.39738 18.6676 1.68732 14.2169 0.647692C13.7208 0.532177 13.7073 0.491406 12.9666 0.423457C12.2259 0.355507 11.7843 0.369098 11.2611 0.403072C10.7379 0.437047 10.6087 0.484612 10.2894 0.545766C6.50458 1.25924 3.69825 3.39286 1.99951 7.00779C0.76282 9.64424 0.470639 12.3894 1.50348 15.2161C2.26451 17.2886 3.27696 19.2116 4.41173 21.0802C6.31432 24.2263 8.48192 27.1617 10.765 30.0156C11.1659 30.5184 11.5804 31.0077 12.0085 31.5309C12.124 31.395 12.2124 31.2998 12.3007 31.1911C14.2644 28.8265 16.1195 26.3803 17.8522 23.8254C19.449 21.4607 20.9439 19.0281 22.0787 16.3713C22.9348 14.3668 23.3629 12.3147 22.9892 10.0859ZM17.3086 19.8571C16.0107 19.8639 14.7061 19.8571 13.4083 19.8571C13.3879 19.8571 13.3743 19.8503 13.3335 19.8435C13.3335 18.403 13.3335 16.976 13.3335 15.5355C13.2724 15.5355 13.2316 15.5287 13.1908 15.5287C12.4026 15.5287 11.6144 15.5287 10.8262 15.5287C10.7107 15.5287 10.6767 15.5627 10.6767 15.6918C10.6835 17.01 10.6767 18.335 10.6767 19.6532C10.6767 19.7144 10.6767 19.7756 10.6767 19.8571C10.6155 19.8571 10.568 19.8571 10.5204 19.8571C9.27693 19.8571 8.02665 19.8571 6.78317 19.8571C6.30073 19.8571 6.03572 19.5717 6.03572 19.0485C6.03572 17.309 6.03572 15.5763 6.03572 13.8367C6.03572 13.7076 6.08329 13.6261 6.17162 13.5446C7.09574 12.7224 8.01306 11.9002 8.93039 11.078C9.73899 10.3509 10.5476 9.63065 11.363 8.90359C11.5804 8.71333 11.7911 8.51628 12.0153 8.31922C12.3415 8.61141 12.6608 8.89679 12.9802 9.18218C13.9111 10.018 14.842 10.847 15.7661 11.6827C16.4796 12.3215 17.1931 12.9602 17.8998 13.6057C17.9405 13.6465 17.9813 13.728 17.9813 13.7892C17.9881 15.5695 17.9881 17.3497 17.9813 19.13C17.9745 19.5581 17.6959 19.8571 17.3086 19.8571ZM18.5996 11.7507C18.4094 11.9545 18.1512 12.0497 17.8998 12.0497C17.6619 12.0497 17.4241 11.9613 17.2338 11.7847L12.0085 6.83792L6.78317 11.7847C6.39586 12.1516 5.78431 12.138 5.41738 11.7507C5.05045 11.3634 5.06404 10.7518 5.45136 10.3849L11.3426 4.80622C11.7163 4.45288 12.3007 4.45288 12.6744 4.80622L18.5657 10.3849C18.9462 10.7518 18.9666 11.3634 18.5996 11.7507Z" fill="currentColor"/>
</svg>
