<svg width="24" height="24" viewBox="0 0 24 24" fill="none" xmlns="http://www.w3.org/2000/svg">
<path fill-rule="evenodd" clip-rule="evenodd" d="M10.8921 1.59214C7.03276 2.18349 4.09082 4.32884 2.49539 7.71509C1.56553 9.68865 1.50079 10.2782 1.50035 16.7705L1.5 22.143L1.71449 22.3581C2.14277 22.7878 2.37298 22.687 3.50134 21.576C4.94082 20.1587 5.06383 20.122 6.13278 20.7903C14.6383 26.1081 24.9449 18.3662 21.9799 8.88658C20.5258 4.23803 15.4439 0.894639 10.8921 1.59214ZM8.43319 10.6267C9.14253 11.1296 9.38122 12.2373 8.93599 12.9601C8.09813 14.3202 5.93909 13.8877 5.72862 12.3176C5.52531 10.8005 7.20077 9.75307 8.43319 10.6267ZM12.9763 10.6267C13.6857 11.1296 13.9244 12.2373 13.4791 12.9601C12.6413 14.3202 10.4822 13.8877 10.2718 12.3176C10.0685 10.8005 11.7439 9.75307 12.9763 10.6267ZM17.5195 10.6267C18.2288 11.1296 18.4675 12.2373 18.0223 12.9601C17.1844 14.3202 15.0254 13.8877 14.8149 12.3176C14.6116 10.8005 16.2871 9.75307 17.5195 10.6267Z" fill="currentColor"/>
</svg>
