<svg class="inline-svg" fill="none" xmlns="http://www.w3.org/2000/svg" viewBox="0 0 20 20" aria-hidden="true"><path d="M12.38 0a1.9 1.9 0 0 0-1.9 1.9v4.77a1.9 1.9 0 1 0 3.8 0V1.9a1.9 1.9 0 0 0-1.9-1.9ZM18.1 4.76a1.9 1.9 0 0 0-1.91 1.9V8.1c0 .26.21.47.48.47h1.43a1.9 1.9 0 1 0 0-3.8ZM7.62 11.43a1.9 1.9 0 0 0-1.9 1.9v4.77a1.9 1.9 0 1 0 3.8 0v-4.77a1.9 1.9 0 0 0-1.9-1.9ZM1.9 11.43a1.9 1.9 0 1 0 1.91 1.9V11.9a.48.48 0 0 0-.48-.47H1.9ZM13.33 10.48a1.9 1.9 0 1 0 0 3.8h4.77a1.9 1.9 0 1 0 0-3.8h-4.77ZM11.9 16.2a.48.48 0 0 0-.47.47v1.43a1.9 1.9 0 1 0 1.9-1.91H11.9ZM1.9 5.71a1.9 1.9 0 1 0 0 3.81h4.77a1.9 1.9 0 1 0 0-3.8H1.9ZM6.67 0a1.9 1.9 0 1 0 0 3.81H8.1c.26 0 .47-.21.47-.48V1.9A1.9 1.9 0 0 0 6.67 0Z" fill="currentColor"/></svg>