<svg width="32" height="28" viewBox="0 0 32 28" fill="none" xmlns="http://www.w3.org/2000/svg">
<path d="M2.52892 5.23471C2.40974 5.23471 2.29058 5.23471 2.1714 5.23471C1.57554 5.1155 1.03926 4.8175 0.681743 4.34069C0.324225 3.86388 0.205045 3.26787 0.264631 2.67186C0.383804 2.07585 0.681736 1.53945 1.15843 1.18184C1.63512 0.824234 2.23098 0.705034 2.82685 0.764635C4.07816 0.943438 4.91237 2.07586 4.73361 3.32748C4.55485 4.4599 3.60147 5.23471 2.52892 5.23471ZM2.52892 2.07585C2.35016 2.07585 2.11181 2.13546 1.99264 2.25466C1.81388 2.37386 1.63512 2.61226 1.63512 2.85067C1.57553 3.38708 1.93305 3.86389 2.40974 3.92349C2.88644 3.98309 3.42272 3.62548 3.4823 3.14867C3.54189 2.61226 3.18437 2.13546 2.70768 2.07585C2.5885 2.07585 2.5885 2.07585 2.52892 2.07585Z" fill="currentColor"/>
<path d="M2.82774 27.2872C2.70857 27.2872 2.5894 27.2872 2.47023 27.2872C1.87437 27.168 1.33809 26.87 0.980571 26.3932C0.623053 25.9164 0.503873 25.3204 0.563459 24.7244C0.682632 24.1283 0.980564 23.5919 1.45726 23.2343C1.93395 22.8767 2.52981 22.7575 3.12568 22.8171C4.37699 22.9959 5.2112 24.1283 5.03244 25.38C4.91327 26.5124 3.95989 27.2872 2.82774 27.2872ZM2.82774 24.1283C2.64898 24.1283 2.41064 24.1879 2.29147 24.3071C2.11271 24.4264 1.93395 24.6648 1.93395 24.9032C1.87436 25.4396 2.23188 25.9164 2.70857 25.976C3.18526 26.0356 3.72154 25.678 3.78113 25.2012C3.84072 24.6648 3.4832 24.1879 3.0065 24.1283C2.94692 24.1283 2.88733 24.1283 2.82774 24.1283Z" fill="currentColor"/>
<path d="M9.14415 27.0487C9.02498 27.0487 8.9058 27.0487 8.78663 27.0487C8.19076 26.9295 7.65449 26.6315 7.29697 26.1547C6.93945 25.6778 6.82028 25.0818 6.87987 24.4858C6.99904 23.8898 7.29697 23.3534 7.77366 22.9958C8.25035 22.6382 8.84622 22.519 9.44208 22.5786C10.6934 22.7574 11.5276 23.8898 11.3488 25.1414C11.1701 26.2739 10.2167 27.0487 9.14415 27.0487ZM9.14415 23.8898C8.96539 23.8898 8.72704 23.9494 8.60787 24.0686C8.42911 24.1878 8.25035 24.4262 8.25035 24.6646C8.19077 25.201 8.54829 25.6779 9.02498 25.7375C9.50167 25.7971 10.0379 25.4394 10.0975 24.9626C10.1571 24.4262 9.7996 23.9494 9.32291 23.8898C9.20374 23.8898 9.20374 23.8898 9.14415 23.8898Z" fill="currentColor"/>
<path d="M29.4605 27.0487C29.3414 27.0487 29.2222 27.0487 29.103 27.0487C28.5072 26.9295 27.9709 26.6315 27.6134 26.1547C27.2559 25.6778 27.1367 25.0818 27.1963 24.4858C27.3154 23.8898 27.6134 23.3534 28.0901 22.9958C28.5668 22.6382 29.1626 22.519 29.7585 22.5786C31.0098 22.7574 31.844 23.8898 31.6653 25.1414C31.5461 26.2739 30.5927 27.0487 29.4605 27.0487ZM29.4605 23.8898C29.2818 23.8898 29.0434 23.9494 28.9243 24.0686C28.7455 24.1878 28.5668 24.4262 28.5668 24.6646C28.5072 25.201 28.8647 25.6779 29.3414 25.7375C29.8181 25.7971 30.3543 25.4394 30.4139 24.9626C30.4735 24.4262 30.116 23.9494 29.6393 23.8898C29.5797 23.8898 29.5201 23.8898 29.4605 23.8898Z" fill="currentColor"/>
<path d="M29.4605 5.23471C29.3414 5.23471 29.2222 5.23471 29.103 5.23471C28.5072 5.1155 27.9709 4.8175 27.6134 4.34069C27.2559 3.86388 27.1367 3.26787 27.1963 2.67186C27.3154 2.07585 27.6134 1.53945 28.0901 1.18184C28.5668 0.824234 29.1626 0.705034 29.7585 0.764635C31.0098 0.943438 31.844 2.07586 31.6653 3.32748C31.5461 4.4599 30.5927 5.23471 29.4605 5.23471ZM29.4605 2.07585C29.2818 2.07585 29.0434 2.13546 28.9243 2.25466C28.7455 2.37386 28.5668 2.61226 28.5668 2.85067C28.5072 3.38708 28.8647 3.86389 29.3414 3.92349C29.8181 3.98309 30.3543 3.62548 30.4139 3.14867C30.4735 2.61226 30.116 2.13546 29.6393 2.07585C29.5797 2.07585 29.5201 2.07585 29.4605 2.07585Z" fill="currentColor"/>
<path d="M8.48713 12.208H2.82642C2.29015 12.208 1.87305 12.6252 1.87305 13.1616V23.1746C1.87305 23.711 2.29015 24.1282 2.82642 24.1282C3.3627 24.1282 3.77981 23.711 3.77981 23.1746V14.1152H8.48713C9.02341 14.1152 9.44052 13.698 9.44052 13.1616C9.44052 12.6252 9.02341 12.208 8.48713 12.208Z" fill="currentColor"/>
<path d="M17.9609 3.0293V10.837C17.9609 11.0158 17.9013 11.1946 17.8417 11.3734C17.7822 11.3138 17.663 11.2542 17.6034 11.1946C17.2459 11.0158 16.8288 10.837 16.4117 10.837C16.2925 10.837 16.2329 10.837 16.1137 10.837V3.98291H4.4944C3.95812 3.98291 3.54102 3.56571 3.54102 3.0293C3.54102 2.49289 3.95812 2.07568 4.4944 2.07568H17.0075C17.5438 2.07568 17.9609 2.49289 17.9609 3.0293Z" fill="currentColor"/>
<path d="M28.2103 3.0293C28.2103 2.49289 27.7932 2.07568 27.2569 2.07568H20.762C20.2257 2.07568 19.8086 2.49289 19.8086 3.0293V10.837C19.8086 11.3734 20.2257 11.7906 20.762 11.7906C21.2983 11.7906 21.7154 11.3734 21.7154 10.837V3.98291H27.2569C27.7932 3.98291 28.2103 3.50611 28.2103 3.0293Z" fill="currentColor"/>
<path d="M18.2581 18.3467C17.7218 18.3467 17.3047 18.7639 17.3047 19.3003V23.83H10.9885C10.4523 23.83 10.0352 24.2472 10.0352 24.7836C10.0352 25.32 10.4523 25.7372 10.9885 25.7372H18.2581C18.7944 25.7372 19.2115 25.32 19.2115 24.7836V19.3003C19.2115 18.7639 18.7348 18.3467 18.2581 18.3467Z" fill="currentColor"/>
<path d="M27.5552 23.8895H23.8013V19.3599C23.8013 18.8235 23.3842 18.4062 22.8479 18.4062C22.3116 18.4062 21.8945 18.8235 21.8945 19.3599V24.8432C21.8945 25.3796 22.3116 25.7968 22.8479 25.7968H27.5552C28.0915 25.7968 28.5086 25.3796 28.5086 24.8432C28.5086 24.3067 28.0915 23.8895 27.5552 23.8895Z" fill="currentColor"/>
<path d="M24.4568 9.3472H15.638C15.3997 9.3472 15.1613 9.22801 15.1017 8.9896L13.91 6.30756C13.7908 6.06916 13.6121 5.94995 13.3737 5.94995H7.83219C7.47467 5.94995 7.23633 6.24796 7.23633 6.54596V19.7774C7.23633 20.135 7.53426 20.3734 7.83219 20.3734H24.6356C24.9931 20.3734 25.2314 20.0754 25.2314 19.7774L25.0527 9.94321C25.0527 9.64521 24.7547 9.3472 24.4568 9.3472ZM14.8038 17.2145C14.8038 16.4397 14.5059 15.7245 14.0888 15.1285C13.7312 14.6517 13.4929 14.0557 13.5525 13.4001C13.6121 12.0292 14.6846 10.8968 16.0551 10.7776C16.1743 10.7776 16.2339 10.7776 16.353 10.7776C16.7701 10.7776 17.1872 10.8968 17.5448 11.1352C17.6044 11.1948 17.7235 11.2544 17.7831 11.314C18.4386 11.7908 18.9153 12.6253 18.9153 13.4597C18.9153 14.1153 18.6769 14.6517 18.3194 15.1285C17.8427 15.7245 17.6639 16.4993 17.6044 17.2145C17.5448 18.2277 14.8038 18.1681 14.8038 17.2145ZM17.4256 18.7642C16.5914 19.1218 15.7572 19.1218 15.0421 18.7642C14.923 18.7642 14.8634 18.645 14.8634 18.5258V18.4065C14.8634 18.2873 14.923 18.1681 15.0421 18.1681C15.8168 18.3469 16.651 18.4065 17.4256 18.1681C17.5448 18.1681 17.6044 18.2873 17.6044 18.4065V18.5258C17.5448 18.645 17.4852 18.7642 17.4256 18.7642Z" fill="currentColor"/>
</svg>
