<svg width="32" height="32" viewBox="0 0 32 32" fill="none" xmlns="http://www.w3.org/2000/svg">
<path d="M22.5909 7.64572C22.5909 7.72588 22.5909 7.80604 22.5836 7.87892C22.5763 7.95908 22.5763 8.03195 22.5691 8.11212C22.5545 8.22872 22.5399 8.33803 22.518 8.45463C22.4962 8.57851 22.467 8.69511 22.4379 8.819C22.3796 9.04491 22.2994 9.27082 22.2047 9.48216C22.1901 9.51131 22.1755 9.54046 22.161 9.57689C22.1099 9.68621 22.0589 9.78823 22.0006 9.89025C21.9861 9.9194 21.9642 9.94855 21.9496 9.9777C21.7383 10.3348 21.4759 10.6627 21.1772 10.9542C21.148 10.9834 21.1189 11.0052 21.0897 11.0344C21.0387 11.0781 20.9877 11.1218 20.9367 11.1656C20.9002 11.1947 20.8711 11.2239 20.8346 11.2457C20.7545 11.304 20.6743 11.3623 20.5942 11.4206C20.5796 11.4279 20.5723 11.4352 20.5577 11.4425C20.4484 11.5154 20.3391 11.5809 20.2225 11.6465C20.1205 11.7048 20.0112 11.7558 19.9091 11.8069C19.9018 11.8069 19.8946 11.8141 19.8873 11.8141C19.6759 11.9089 19.45 11.989 19.2241 12.0473C19.1731 12.0619 19.1294 12.0765 19.0784 12.0838C18.8525 12.1348 18.612 12.1785 18.3715 12.1931C18.2913 12.2004 18.2184 12.2004 18.1383 12.2077C18.1019 12.2077 18.0581 12.2077 18.0217 12.2077C17.9853 12.2077 17.9415 12.2077 17.9051 12.2077C17.8249 12.2077 17.7521 12.2004 17.6719 12.1931C17.4314 12.1712 17.1982 12.1348 16.965 12.0838C16.914 12.0692 16.8703 12.0619 16.8193 12.0473C16.5933 11.9818 16.3674 11.9089 16.1561 11.8141C16.1488 11.8141 16.1415 11.8069 16.1342 11.8069C16.0395 11.7631 15.9448 11.7194 15.85 11.6684C15.7261 11.6028 15.6023 11.5299 15.4857 11.4498C15.4711 11.4425 15.4638 11.4352 15.4492 11.4279C15.3691 11.3696 15.2889 11.3113 15.2087 11.253C15.1723 11.2239 15.1359 11.1947 15.1067 11.1728C15.0557 11.1291 15.0047 11.0854 14.9537 11.0417C14.8954 10.9907 14.8444 10.9396 14.7933 10.8886C14.5237 10.619 14.2905 10.3202 14.0938 9.99228C14.0792 9.96313 14.0573 9.93398 14.0427 9.90483C13.9844 9.8028 13.9334 9.70078 13.8824 9.59147C13.8678 9.56232 13.8533 9.53317 13.8387 9.49673C13.744 9.2854 13.6638 9.05949 13.6055 8.83357C13.5763 8.71698 13.5472 8.59309 13.5253 8.4692C13.5035 8.35989 13.4889 8.24329 13.4743 8.12669C13.467 8.04653 13.4597 7.97366 13.4597 7.89349C13.4525 7.81333 13.4525 7.74046 13.4525 7.66029C13.4525 7.58013 13.4452 7.49997 13.4525 7.4271C13.4525 7.37608 13.4525 7.33236 13.4525 7.28135C13.4525 7.2522 13.467 7.22305 13.467 7.1939C13.467 7.16475 13.4816 7.1356 13.4816 7.10645C13.4889 7.019 13.5035 6.93884 13.5253 6.85139C13.5472 6.7275 13.5763 6.6109 13.6055 6.48702C13.6638 6.2611 13.744 6.03519 13.8387 5.82386C13.846 5.80928 13.8533 5.79471 13.8606 5.78013C13.8678 5.76556 13.8751 5.75098 13.8824 5.73641C13.9334 5.6271 13.9844 5.52507 14.0427 5.42305C14.0573 5.3939 14.0792 5.36475 14.0938 5.3356C14.3051 4.97851 14.5674 4.65058 14.8662 4.35908C14.8954 4.32993 14.9245 4.30807 14.9537 4.27892C15.0047 4.23519 15.0557 4.19147 15.1067 4.14774C15.1431 4.11859 15.1723 4.08944 15.2087 4.06758C15.3035 3.98742 15.3763 3.92912 15.4638 3.87082C15.4784 3.86353 15.4857 3.85625 15.5002 3.84896C15.7043 3.7105 15.9229 3.5939 16.1488 3.49187C16.1561 3.49187 16.1634 3.48459 16.1707 3.48459C16.382 3.38985 16.6079 3.30969 16.8338 3.25139C16.8848 3.23681 16.9286 3.22224 16.9796 3.21495C17.2055 3.16394 17.446 3.12021 17.6865 3.10564C17.7666 3.09835 17.8395 3.09835 17.9197 3.09106C17.9561 3.09106 17.9998 3.09106 18.0363 3.09106C18.0727 3.09106 18.1164 3.09106 18.1529 3.09106C18.233 3.09106 18.3059 3.09835 18.3861 3.10564C18.6265 3.1275 18.8597 3.16394 19.0929 3.21495C19.144 3.22953 19.1877 3.23681 19.2387 3.25139C19.4573 3.3024 19.6759 3.38256 19.8946 3.4773C19.9018 3.4773 19.9091 3.48459 19.9164 3.48459C20.1423 3.58661 20.361 3.7105 20.565 3.84167C20.5796 3.84896 20.5869 3.85625 20.6014 3.86353C20.6816 3.92183 20.7618 3.98013 20.8419 4.03843C20.8784 4.06758 20.9148 4.09673 20.944 4.11859C20.995 4.16232 21.046 4.20604 21.097 4.24977C21.1261 4.27892 21.1553 4.30078 21.1844 4.32993C21.4832 4.61414 21.7456 4.94208 21.9569 5.30645C21.9715 5.3356 21.9933 5.36475 22.0079 5.3939C22.0662 5.49592 22.1172 5.59795 22.1682 5.70726C22.1828 5.73641 22.1974 5.76556 22.212 5.802C22.3067 6.01333 22.3869 6.23924 22.4452 6.46515C22.4743 6.58175 22.5035 6.70564 22.5253 6.82953C22.5472 6.93884 22.5618 7.05544 22.5763 7.17204C22.5836 7.20847 22.5836 7.24491 22.5836 7.28135C22.5836 7.32507 22.5909 7.36151 22.5909 7.40523C22.5836 7.4854 22.5909 7.56556 22.5909 7.64572Z" fill="currentColor"/>
<path d="M13.4023 7.22314C13.4096 7.22314 13.4096 7.23043 13.4169 7.23043C13.4388 7.24501 13.4534 7.25229 13.4898 7.26687C13.4825 7.26687 13.4825 7.25958 13.4752 7.25958C13.4461 7.24501 13.4242 7.23043 13.4023 7.22314Z" fill="currentColor"/>
<path d="M13.4023 7.22314C13.4243 7.23046 13.4462 7.24508 13.4682 7.25971C13.4535 7.2524 13.4316 7.24508 13.4097 7.23046C13.4097 7.22314 13.4023 7.22314 13.4023 7.22314Z" fill="currentColor"/>
<path d="M25.6088 16.3033V21.0256C25.6088 21.1203 25.5723 21.0984 25.4776 21.0984C20.5003 25.2741 15.5302 25.2887 10.5748 21.0984C10.48 21.0984 10.3926 21.1203 10.3926 21.0256V16.3033C10.3926 16.2304 10.3926 16.1503 10.3926 16.0774C10.4436 14.9551 10.8954 13.9349 11.6023 13.1697C11.6242 13.1478 11.646 13.126 11.6679 13.1041C12.0177 12.7397 12.4331 12.4337 12.8849 12.2077C12.914 12.1932 12.9432 12.1786 12.965 12.1713C13.0889 12.113 13.2201 12.062 13.3513 12.011C13.3804 12.0037 13.4096 11.9891 13.4387 11.9818C13.5553 11.9454 13.6719 11.909 13.7958 11.8798C13.9416 12.0256 14.1019 12.1567 14.2622 12.2806C14.6703 12.6013 15.1221 12.8709 15.5958 13.0822C15.6833 13.1187 15.778 13.1624 15.8655 13.1915C16.2153 13.33 16.5723 13.4247 16.9367 13.4976C17.2938 13.5632 17.6582 13.5996 18.0298 13.5996C18.4525 13.5996 18.8679 13.5413 19.2687 13.4539C19.3197 13.4466 20.0412 13.2717 20.2306 13.1915C20.3035 13.1624 20.3837 13.0968 20.4565 13.0604C20.8282 12.8928 21.178 12.7616 21.5059 12.4264C21.5424 12.4264 21.5788 12.4045 21.6152 12.3754C21.8339 12.215 22.0379 12.0547 22.2347 11.8652C24.1076 12.3025 25.514 14.015 25.6088 16.0701C25.6088 16.143 25.6088 16.2231 25.6088 16.3033Z" fill="currentColor"/>
<path d="M15.5953 13.0751C15.1216 12.8637 14.6771 12.6014 14.2617 12.2734C14.6698 12.5941 15.1143 12.8637 15.5953 13.0751C15.6828 13.1115 15.7702 13.1552 15.865 13.1844C16.2148 13.3228 16.5718 13.4176 16.9362 13.4904" fill="currentColor"/>
<path d="M18.0005 25.3324C11.0702 25.3324 5.42969 19.6919 5.42969 12.7615C5.42969 5.83116 11.0702 0.190674 18.0005 0.190674C24.9309 0.190674 30.5714 5.83116 30.5714 12.7615C30.5714 19.6919 24.9309 25.3324 18.0005 25.3324ZM18.0005 2.37691C12.2726 2.37691 7.61592 7.03359 7.61592 12.7615C7.61592 18.4895 12.2726 23.1461 18.0005 23.1461C23.7285 23.1461 28.3852 18.4895 28.3852 12.7615C28.3852 7.03359 23.7285 2.37691 18.0005 2.37691Z" fill="currentColor"/>
<path d="M11.2962 21.9801L2.70426 31.3445C2.15041 31.9858 1.17389 32.0586 0.532599 31.5048C-0.108696 30.9509 -0.181571 29.9744 0.372275 29.3331C0.408713 29.2894 0.459725 29.2384 0.503449 29.1947L9.65649 20.5153C9.96256 20.2384 10.8152 20.3258 11.0921 20.6319C11.3545 20.9161 11.5366 21.6959 11.2962 21.9801Z" fill="currentColor"/>
</svg>
