<svg class="inline-svg" fill="none" xmlns="http://www.w3.org/2000/svg" viewBox="0 0 24 24" aria-hidden="true"><path fill-rule="evenodd" clip-rule="evenodd" d="M10.89.9c-1.1.29-1.37.52-5.02 4.17-3.7 3.7-3.85 3.9-4.12 5.04-.22.94-.2 8.97.03 9.84a4.39 4.39 0 0 0 3.16 3.13c.8.21 13.32.22 14.13 0a4.37 4.37 0 0 0 3.18-3.13c.14-.54.16-1.16.16-4.93 0-4.7-.02-5.03-.53-5.99-.32-.6-6.65-7.01-7.46-7.56-1-.67-2.37-.9-3.53-.58Zm-.3 8.26c.58.36.67.65.67 2.07 0 2-.24 2.25-2.25 2.25-2 0-2.25-.24-2.25-2.25 0-1.42.1-1.71.68-2.07a6.04 6.04 0 0 1 3.14 0Zm6 0c.58.36.67.65.67 2.07 0 2-.24 2.25-2.25 2.25-2 0-2.25-.24-2.25-2.25 0-1.42.1-1.71.68-2.07a6.04 6.04 0 0 1 3.14 0Zm-6 6c.58.36.67.65.67 2.07 0 2-.24 2.25-2.25 2.25-2 0-2.25-.24-2.25-2.25 0-1.42.1-1.71.68-2.07a6.04 6.04 0 0 1 3.14 0Zm6 0c.58.36.67.65.67 2.07 0 2-.24 2.25-2.25 2.25-2 0-2.25-.24-2.25-2.25 0-1.42.1-1.71.68-2.07a6.04 6.04 0 0 1 3.14 0Z" fill="currentColor"/></svg>