<svg width="64" height="64" viewBox="0 0 64 64" fill="none" xmlns="http://www.w3.org/2000/svg">
<rect width="64" height="64" rx="20" fill="#3E72E9"/>
<path d="M25.3327 29.3333C23.8599 29.3333 22.666 30.5272 22.666 32C22.666 33.4727 23.8599 34.6666 25.3327 34.6666C26.8054 34.6666 27.9993 33.4727 27.9993 32C27.9993 30.5272 26.8054 29.3333 25.3327 29.3333Z" fill="white"/>
<path fill-rule="evenodd" clip-rule="evenodd" d="M25.3327 24.3333C21.0985 24.3333 17.666 27.7658 17.666 32C17.666 36.2342 21.0985 39.6666 25.3327 39.6666C28.2401 39.6666 30.7677 38.0484 32.0671 35.6666H36.3327V38.6666C36.3327 39.2189 36.7804 39.6666 37.3327 39.6666H41.9993C42.5516 39.6666 42.9993 39.2189 42.9993 38.6666V35.6666H45.3327C45.885 35.6666 46.3327 35.2189 46.3327 34.6666V30.6666C46.3327 29.378 45.288 28.3333 43.9993 28.3333H32.0671C30.7677 25.9516 28.2401 24.3333 25.3327 24.3333ZM19.666 32C19.666 28.8704 22.2031 26.3333 25.3327 26.3333C27.6548 26.3333 29.6529 27.7302 30.5283 29.7337C30.6874 30.0979 31.0471 30.3333 31.4446 30.3333H43.9993C44.1834 30.3333 44.3327 30.4826 44.3327 30.6666V33.6666H41.9993C41.4471 33.6666 40.9993 34.1144 40.9993 34.6666V37.6666H38.3327V34.6666C38.3327 34.1144 37.885 33.6666 37.3327 33.6666H31.4446C31.0471 33.6666 30.6874 33.902 30.5283 34.2663C29.6529 36.2697 27.6548 37.6666 25.3327 37.6666C22.2031 37.6666 19.666 35.1296 19.666 32Z" fill="white"/>
</svg>
