<svg width="24" height="24" viewBox="0 0 24 24" fill="none" xmlns="http://www.w3.org/2000/svg">
<path fill-rule="evenodd" clip-rule="evenodd" d="M10.0356 1.0743C8.70659 1.4326 7.6335 2.43899 7.12031 3.80843C6.84202 4.55096 6.8245 8.31491 7.09556 9.10623C8.79836 14.0765 15.3196 14.0422 16.8546 9.05493C17.3307 7.50806 17.0548 3.96439 16.3736 2.87704C15.3377 1.22347 12.4882 0.413002 10.0356 1.0743ZM5.1013 11.9427C2.7191 13.6741 2.295 14.559 2.34793 17.6867C2.39549 20.491 2.80411 21.0717 5.35688 21.9626C9.59809 23.4427 14.4479 23.4284 18.7057 21.9232C21.2057 21.0394 21.5693 20.4668 21.5624 17.4247C21.5554 14.2988 21.2086 13.624 18.6824 11.8206C17.5542 11.0151 17.6697 11.0225 17.1616 11.723C14.7079 15.1058 9.2373 15.1058 6.78362 11.723C6.27303 11.0191 6.39354 11.0034 5.1013 11.9427Z" fill="currentColor"/>
</svg>
