<svg width="24" height="24" viewBox="0 0 24 24" fill="none" xmlns="http://www.w3.org/2000/svg">
<path fill-rule="evenodd" clip-rule="evenodd" d="M1.2756 0.906249C0.838477 1.10317 0.702755 1.6915 1.01015 2.05665C1.22183 2.30805 1.33676 2.33059 2.40752 2.33059C3.74001 2.33059 4.1121 2.47438 4.42546 3.11026L4.53378 3.33005L4.55927 8.51329C4.58411 13.5602 4.58727 13.7051 4.68002 14.0219C5.14198 15.6003 6.26167 16.6982 7.8129 17.094C8.14728 17.1793 8.39961 17.183 13.906 17.183H19.6503L20.0689 17.0524C21.4645 16.6169 22.4947 15.6432 22.9219 14.3557C23.1637 13.6268 23.1654 13.5872 23.1516 9.15587C23.1372 4.54516 23.1666 4.94085 22.8185 4.68104L22.69 4.58518L14.3734 4.57319L6.05674 4.5612L6.03395 3.85265C5.98627 2.36769 5.3131 1.39282 4.04541 0.972817C3.65777 0.844422 1.52663 0.793194 1.2756 0.906249ZM14.2671 7.66128C14.5926 7.90422 14.579 7.81325 14.5936 9.84777L14.6068 11.6869L15.1783 11.1269C15.6984 10.6172 15.7688 10.564 15.9622 10.5351C16.3712 10.4738 16.7403 10.7404 16.8184 11.1534C16.8799 11.4782 16.763 11.6364 15.6382 12.7515C14.4399 13.9394 14.3771 13.9795 13.7742 13.944C13.2708 13.9143 13.1433 13.8226 11.9826 12.6551C10.9864 11.6532 10.9366 11.5946 10.9059 11.3891C10.8241 10.8412 11.3307 10.3941 11.8448 10.5604C11.9681 10.6002 12.1891 10.7819 12.5688 11.1552L13.1153 11.6927V9.92006C13.1153 8.08147 13.1245 7.98376 13.3161 7.77522C13.5445 7.52657 14.0115 7.47064 14.2671 7.66128ZM8.51547 18.535C7.55332 18.7935 6.78963 19.7808 6.78963 20.7659C6.78963 22.8707 9.32171 23.9446 10.7903 22.4627C12.4857 20.752 10.8398 17.9102 8.51547 18.535ZM17.9035 18.549C16.1799 19.1003 15.6576 21.1959 16.929 22.4592C18.7892 24.3077 21.8066 22.1551 20.6797 19.7835C20.1935 18.7603 18.9591 18.2114 17.9035 18.549Z" fill="currentColor"/>
</svg>
