<svg width="24" height="24" viewBox="0 0 24 24" fill="none" xmlns="http://www.w3.org/2000/svg">
<mask id="mask0_1601_5567" style="mask-type:alpha" maskUnits="userSpaceOnUse" x="4" y="6" width="16" height="12">
<path d="M18.4762 6H5.52381C4.68223 6 4 6.71634 4 7.6V16.4C4 17.2837 4.68223 18 5.52381 18H18.4762C19.3178 18 20 17.2837 20 16.4V7.6C20 6.71634 19.3178 6 18.4762 6Z" fill="white"/>
</mask>
<g mask="url(#mask0_1601_5567)">
</g>
<g clip-path="url(#clip0_1601_5567)">
<path d="M0 6V18H24V6H0Z" fill="#012169"/>
<path d="M0 6L24 18L0 6ZM24 6L0 18Z" fill="black"/>
<path d="M24 6L0 18M0 6L24 18L0 6Z" stroke="white" stroke-width="2.4"/>
<path d="M0 6L24 18L0 6ZM24 6L0 18Z" fill="black"/>
<path d="M24 6L0 18M0 6L24 18L0 6Z" stroke="#C8102E" stroke-width="1.6"/>
<path d="M12 6V18V6ZM0 12H24Z" fill="black"/>
<path d="M0 12H24M12 6V18V6Z" stroke="white" stroke-width="4"/>
<path d="M12 6V18V6ZM0 12H24Z" fill="black"/>
<path d="M0 12H24M12 6V18V6Z" stroke="#C8102E" stroke-width="2.4"/>
</g>
<defs>
<clipPath id="clip0_1601_5567">
<rect x="4" y="6" width="16" height="12" rx="1" fill="white"/>
</clipPath>
</defs>
</svg>
