<svg class="inline-svg" fill="none" xmlns="http://www.w3.org/2000/svg" viewBox="0 0 40 40"><path d="M20 40a20 20 0 1 1 0-40 20 20 0 0 1 0 40Zm-4.58-4.67A35.8 35.8 0 0 1 12.05 22H4.12a16.02 16.02 0 0 0 11.3 13.33ZM16.06 22c.3 4.88 1.7 9.46 3.94 13.5A31.81 31.81 0 0 0 23.94 22h-7.88Zm19.82 0h-7.93a35.8 35.8 0 0 1-3.37 13.33A16.02 16.02 0 0 0 35.88 22ZM4.12 18h7.93a35.8 35.8 0 0 1 3.37-13.33A16.02 16.02 0 0 0 4.12 18Zm11.94 0h7.88A31.81 31.81 0 0 0 20 4.5 31.81 31.81 0 0 0 16.06 18Zm8.52-13.33A35.8 35.8 0 0 1 27.95 18h7.93a16.02 16.02 0 0 0-11.3-13.33Z" fill="currentColor"/></svg>