<svg class="inline-svg" fill="none" xmlns="http://www.w3.org/2000/svg" viewBox="0 0 24 24" aria-hidden="true"><path fill-rule="evenodd" clip-rule="evenodd" d="M1.28.9A.75.75 0 0 0 1 2.07c.21.25.33.27 1.4.27 1.33 0 1.7.14 2.02.78l.1.22.03 5.18c.02 5.05.03 5.2.12 5.51a4.3 4.3 0 0 0 3.13 3.07c.34.09.59.1 6.1.1h5.74l.42-.14a4.24 4.24 0 0 0 2.85-2.7c.24-.72.25-.76.23-5.2-.01-4.6.02-4.2-.33-4.47l-.13-.1h-8.32l-8.31-.02-.03-.7C6 2.35 5.31 1.38 4.05.96 3.65.84 1.53.8 1.28.91Zm12.99 6.76c.32.24.3.15.32 2.19l.02 1.84.57-.56c.52-.51.59-.57.78-.6.41-.06.78.21.86.62.06.33-.06.49-1.18 1.6-1.2 1.19-1.26 1.23-1.87 1.2-.5-.04-.63-.13-1.79-1.3-1-1-1.04-1.06-1.07-1.26-.09-.55.42-1 .93-.83.13.04.35.22.73.6l.55.53V9.92c0-1.84 0-1.94.2-2.14.22-.25.7-.3.95-.12ZM8.52 18.54a2.43 2.43 0 0 0-1.73 2.23c0 2.1 2.53 3.17 4 1.7 1.7-1.72.05-4.56-2.27-3.93Zm9.38 0a2.34 2.34 0 0 0-.97 3.92c1.86 1.85 4.88-.3 3.75-2.68a2.36 2.36 0 0 0-2.78-1.23Z" fill="currentColor"/></svg>