<svg width="26" height="32" viewBox="0 0 26 32" fill="none" xmlns="http://www.w3.org/2000/svg">
<path d="M24.1341 10.1286C23.9186 10.0208 23.757 9.96691 23.5954 9.85914C23.3799 9.75136 23.1105 9.48193 22.9489 9.21249C22.9489 9.10472 23.1105 8.83528 23.757 8.29641C25.1577 7.16478 24.7806 6.03315 24.188 5.17096C23.5415 4.20099 22.7873 3.28491 21.1172 4.09322C20.3091 4.47043 20.0397 4.41654 19.932 4.36265C19.8781 4.30876 19.7703 4.20099 19.7703 4.09322C19.7703 3.98544 19.7165 3.93155 19.7165 3.76989V3.71601C19.6626 3.50046 19.6626 3.3388 19.6626 3.17714C19.6626 3.06936 19.6626 2.9077 19.6626 2.74604C19.6626 2.04551 19.6626 1.34497 19.1239 1.07553C18.6929 0.859986 18.208 0.698324 17.7231 0.536663C17.2383 0.428889 16.6995 0.375 16.2147 0.375C15.622 0.375 15.2988 1.02165 14.9756 1.61441C14.9217 1.77607 14.8678 1.88384 14.7601 1.99161C14.6523 2.15328 14.5446 2.31494 14.4368 2.4766C14.4368 2.4766 14.4368 2.53048 14.383 2.53048C14.3291 2.58437 14.2752 2.69215 14.2213 2.74604C14.1136 2.85381 14.0058 2.9077 13.8981 2.96158C13.8442 2.96158 13.521 2.9077 12.9822 2.20717C11.8509 0.752215 10.7734 1.18331 9.74979 1.77607C8.83393 2.31494 7.97195 3.12325 8.72618 4.79375C9.04943 5.54817 9.04943 5.87149 8.99555 5.97927C8.72618 6.08704 8.40294 6.2487 8.13357 6.2487C7.97195 6.2487 7.75645 6.2487 7.54095 6.2487C6.84059 6.19481 5.49375 6.08704 5.22438 7.97309L5.1705 8.24252C4.90113 10.0747 5.1705 10.2902 7.05609 11.3141C7.27158 11.4219 7.4332 11.6374 7.48707 11.853C7.54095 12.0685 7.4332 12.2841 7.27158 12.4996L7.2177 12.5535C7.16383 12.6074 7.10996 12.6613 7.05609 12.7152H10.7195C10.3963 12.0685 10.2346 11.368 10.2346 10.6136C10.2346 7.86531 12.4973 5.60206 15.2449 5.60206C17.9925 5.60206 20.2552 7.86531 20.2552 10.6136C20.2552 13.2001 18.3157 15.3556 15.7837 15.6251V19.2894C16.053 18.5889 16.3224 18.3194 16.484 18.2655C16.6457 18.2116 17.0228 18.4272 17.5615 19.0738C18.4774 20.2055 19.4471 20.3132 20.6323 19.5049L20.8478 19.3433C21.6021 18.8583 22.7873 18.05 21.7637 16.3795C21.7098 16.2717 21.6559 16.11 21.6021 15.9484L21.5482 15.8406C21.4943 15.5712 21.4943 15.3556 21.6559 15.194C21.8176 14.9784 22.033 14.9245 22.3024 14.8706C24.4574 14.8706 24.7806 14.709 25.3732 12.9846L25.4271 12.7152C26.0197 10.9369 24.8345 10.4519 24.1341 10.1286Z" fill="currentColor"/>
<path d="M14.3824 13.6851H1.12939C0.860024 13.6851 0.644531 13.9006 0.644531 14.17V28.3962C0.644531 28.6657 0.860024 28.8812 1.12939 28.8812H14.3824C14.6518 28.8812 14.8673 28.6657 14.8673 28.3962V14.17C14.8673 13.9006 14.6518 13.6851 14.3824 13.6851ZM5.11606 27.3185C5.11606 27.5879 4.90057 27.8035 4.6312 27.8035H3.06886C2.79949 27.8035 2.58398 27.5879 2.58398 27.3185V20.0437C2.58398 19.7743 2.79949 19.5588 3.06886 19.5588H4.6312C4.90057 19.5588 5.11606 19.7743 5.11606 20.0437V27.3185ZM9.04886 27.3185C9.04886 27.5879 8.83336 27.8035 8.56399 27.8035H7.00165C6.73228 27.8035 6.51679 27.5879 6.51679 27.3185V19.0199C6.51679 18.7504 6.73228 18.5349 7.00165 18.5349H8.56399C8.83336 18.5349 9.04886 18.7504 9.04886 19.0199V27.3185ZM12.9278 27.3185C12.9278 27.5879 12.7123 27.8035 12.4429 27.8035H10.8806C10.6112 27.8035 10.3957 27.5879 10.3957 27.3185V18.0499C10.3957 17.7805 10.6112 17.5649 10.8806 17.5649H12.4429C12.7123 17.5649 12.9278 17.7805 12.9278 18.0499V27.3185Z" fill="currentColor"/>
<path d="M14.3822 29.9052H1.18311C0.752118 29.9052 0.375 30.3362 0.375 30.8212C0.375 31.3062 0.752118 31.7373 1.18311 31.7373H14.3822C14.8132 31.7373 15.1903 31.3062 15.1903 30.8212C15.1903 30.3362 14.8132 29.9052 14.3822 29.9052Z" fill="currentColor"/>
</svg>
