<svg width="30" height="28" viewBox="0 0 30 28" fill="none" xmlns="http://www.w3.org/2000/svg">
<path d="M28.2502 14.821H23.2579C23.1665 17.4053 21.9004 19.6894 19.9688 21.1513L22.2398 25.2039C22.3442 25.1843 22.4552 25.1713 22.5661 25.1713C22.9316 25.1713 23.2709 25.2757 23.5646 25.4388L29.1247 15.813C28.7332 15.5911 28.4264 15.2452 28.2502 14.821Z" fill="currentColor"/>
<path d="M22.5729 2.93071C22.4424 2.93071 22.3184 2.91766 22.1944 2.89155L19.5645 7.59679C21.5353 8.91504 22.9123 11.0556 23.2125 13.5159H28.1788C28.3223 12.9873 28.6682 12.55 29.125 12.2824L23.5649 2.65662C23.2712 2.82629 22.9384 2.93071 22.5729 2.93071Z" fill="currentColor"/>
<path d="M1.70279 13.5158H6.66908C6.96927 11.0555 8.33972 8.91498 10.3106 7.59673L7.67406 2.89149C7.55007 2.9176 7.42608 2.93065 7.29556 2.93065C6.93664 2.93065 6.60382 2.82624 6.30362 2.66309L0.75 12.2824C1.21335 12.55 1.55922 12.9872 1.70279 13.5158Z" fill="currentColor"/>
<path d="M7.9082 14.5274C7.9082 16.4787 8.70438 18.2407 9.98999 19.5198V17.2096C9.98999 17.1574 9.98999 17.1117 9.98999 17.0595C10.0226 16.3286 10.3228 15.6629 10.7796 15.1604C10.7927 15.1474 10.8057 15.1278 10.8188 15.1147C11.0472 14.8733 11.3148 14.6775 11.615 14.5274C11.6345 14.5209 11.6476 14.5078 11.6672 14.5013C11.7455 14.4621 11.8303 14.4295 11.9151 14.3969C11.9347 14.3903 11.9543 14.3838 11.9739 14.3773C12.0522 14.3512 12.1305 14.3316 12.2088 14.312C12.3067 14.4034 12.4046 14.4948 12.509 14.5731C12.7766 14.7819 13.0703 14.9581 13.377 15.0952C13.4357 15.1213 13.4944 15.1474 13.5532 15.1669C13.7816 15.2583 14.0165 15.3236 14.2515 15.3627C14.4864 15.4084 14.7213 15.428 14.9628 15.428C15.2369 15.428 15.511 15.3888 15.772 15.3366C15.8046 15.3301 16.2745 15.2191 16.3985 15.1669C16.4507 15.1474 16.4964 15.1017 16.5486 15.0821C16.7901 14.9777 17.0185 14.8863 17.2338 14.671C17.2599 14.671 17.2795 14.6514 17.3056 14.6383C17.4492 14.5339 17.5797 14.4295 17.7102 14.3055C18.9306 14.5926 19.8507 15.7086 19.9095 17.0529C19.9095 17.0986 19.9095 17.1574 19.9095 17.203V19.4871C21.1755 18.2146 21.9652 16.4591 21.9652 14.5274C21.9652 10.651 18.8131 7.4989 14.9367 7.4989C11.0602 7.4989 7.9082 10.651 7.9082 14.5274ZM15.0476 8.58222C15.0998 8.58222 15.152 8.58875 15.1977 8.58875C15.3543 8.6018 15.511 8.6279 15.6611 8.66053C15.6937 8.66706 15.7263 8.67358 15.759 8.68663C15.9091 8.72579 16.0526 8.778 16.1897 8.84326C16.1962 8.84326 16.1962 8.84978 16.2027 8.84978C16.3528 8.91504 16.4899 8.99335 16.6269 9.08472C16.6334 9.09124 16.64 9.09777 16.653 9.09777C16.7052 9.13693 16.7574 9.16956 16.8096 9.20871C16.8357 9.22829 16.8553 9.24787 16.8749 9.26092C16.9075 9.28702 16.9402 9.31965 16.9728 9.34576C16.9924 9.36533 17.0119 9.37839 17.0315 9.39797C17.2273 9.58722 17.397 9.79605 17.5406 10.031C17.5536 10.0506 17.5667 10.0701 17.5732 10.0897C17.6123 10.155 17.645 10.2268 17.6776 10.292C17.6841 10.3116 17.6972 10.3312 17.7037 10.3508C17.7624 10.4878 17.8146 10.6314 17.8538 10.7815C17.8734 10.8598 17.893 10.9381 17.906 11.0164C17.9191 11.0882 17.9321 11.1665 17.9386 11.2383C17.9386 11.2644 17.9452 11.284 17.9452 11.3101C17.9452 11.3362 17.9517 11.3623 17.9517 11.3884C17.9517 11.4406 17.9582 11.4928 17.9582 11.5385C17.9582 11.5842 17.9582 11.6429 17.9517 11.6886C17.9517 11.7408 17.9452 11.793 17.9386 11.8387C17.9321 11.9105 17.9191 11.9888 17.906 12.0606C17.893 12.1389 17.8734 12.2172 17.8538 12.2955C17.8146 12.4456 17.7624 12.5892 17.7037 12.7262C17.6972 12.7458 17.6841 12.7654 17.6776 12.785C17.645 12.8567 17.6123 12.922 17.5732 12.9873C17.5601 13.0068 17.5536 13.0264 17.5406 13.046C17.4035 13.2809 17.2338 13.4963 17.0381 13.679C17.0185 13.6986 16.9989 13.7116 16.9793 13.7312C16.9467 13.7639 16.9141 13.79 16.8814 13.8161C16.8619 13.8356 16.8357 13.8552 16.8162 13.8683C16.764 13.9074 16.7118 13.9466 16.6596 13.9792C16.653 13.9857 16.6465 13.9923 16.6334 13.9923C16.5617 14.0379 16.4899 14.0836 16.4181 14.1228C16.3528 14.1619 16.281 14.1946 16.2093 14.2272C16.2027 14.2272 16.2027 14.2337 16.1962 14.2337C16.0591 14.299 15.9156 14.3447 15.7655 14.3903C15.7329 14.3969 15.7002 14.4099 15.6676 14.4165C15.5175 14.4491 15.3674 14.4752 15.2043 14.4882C15.152 14.4948 15.0998 14.4948 15.0541 14.4948C15.028 14.4948 15.0019 14.4948 14.9758 14.4948C14.9497 14.4948 14.9236 14.4948 14.8975 14.4948C14.8453 14.4948 14.7931 14.4882 14.7474 14.4882C14.5908 14.4752 14.4342 14.4491 14.2841 14.4165C14.2515 14.4099 14.2188 14.4034 14.1862 14.3903C14.0361 14.3512 13.8925 14.299 13.7555 14.2337C13.749 14.2337 13.749 14.2272 13.7424 14.2272C13.6772 14.2011 13.6184 14.1685 13.5597 14.1358C13.4749 14.0902 13.3966 14.0445 13.3248 13.9923C13.3182 13.9857 13.3117 13.9792 13.2987 13.9792C13.2465 13.9401 13.1942 13.9074 13.142 13.8683C13.1225 13.8487 13.0964 13.8291 13.0768 13.8161C13.0441 13.79 13.0115 13.7573 12.9789 13.7312C12.9397 13.6986 12.9071 13.666 12.8745 13.6268C12.6983 13.4506 12.5482 13.2548 12.4177 13.0395C12.4046 13.0199 12.3915 13.0003 12.385 12.9807C12.3459 12.9155 12.3132 12.8437 12.2806 12.7784C12.2741 12.7588 12.261 12.7393 12.2545 12.7197C12.1958 12.5826 12.1436 12.4391 12.1044 12.289C12.0848 12.2107 12.0653 12.1324 12.0522 12.054C12.0392 11.9823 12.0261 11.9039 12.0196 11.8322C12.013 11.7799 12.013 11.7343 12.0065 11.6821C12.0065 11.6299 12 11.5776 12 11.532C12 11.4863 11.9935 11.4275 12 11.3819C12 11.3492 12 11.3166 12 11.2905C12 11.2709 12.0065 11.2513 12.0131 11.2318C12.0131 11.2122 12.0196 11.1926 12.0196 11.173C12.0261 11.1143 12.0392 11.0621 12.0457 11.0099C12.0587 10.9316 12.0783 10.8533 12.0979 10.7749C12.137 10.6249 12.1892 10.4813 12.248 10.3442C12.2545 10.3312 12.2545 10.3247 12.261 10.3116C12.2676 10.2986 12.2676 10.292 12.2741 10.279C12.3067 10.2072 12.3394 10.1419 12.3785 10.0767C12.3916 10.0571 12.3981 10.0375 12.4111 10.0179C12.5482 9.783 12.7178 9.56764 12.9136 9.38491C12.9332 9.36533 12.9528 9.35229 12.9724 9.33271C13.005 9.30008 13.0376 9.27397 13.0703 9.24787C13.0898 9.22829 13.1159 9.20871 13.1355 9.19566C13.1877 9.15651 13.2399 9.11735 13.2921 9.08472C13.2987 9.07819 13.3052 9.07167 13.3183 9.07167C13.4488 8.9803 13.5923 8.90199 13.7424 8.83673C13.749 8.83673 13.749 8.8302 13.7555 8.8302C13.8925 8.76494 14.0361 8.71926 14.1862 8.67358C14.2188 8.66706 14.2515 8.654 14.2841 8.64748C14.4342 8.61485 14.5843 8.58874 14.7474 8.57569C14.7996 8.56916 14.8453 8.56916 14.8975 8.56916C14.9236 8.56916 14.9497 8.56916 14.9758 8.56916C14.9954 8.58221 15.0215 8.58222 15.0476 8.58222Z" fill="currentColor"/>
<path d="M18.8801 21.8691C17.7055 22.5022 16.3676 22.8611 14.9384 22.8611C13.5288 22.8611 12.1975 22.5022 11.0294 21.8822L8.81055 25.85C9.13685 26.2154 9.34566 26.6918 9.34566 27.2139H20.5247C20.5247 26.6657 20.74 26.1763 21.0924 25.8108L18.8801 21.8691Z" fill="currentColor"/>
<path d="M11.4536 6.96374C12.5173 6.47429 13.692 6.18715 14.9384 6.18715C16.1849 6.18715 17.3596 6.46777 18.4233 6.95722L21.0598 2.24546C20.7335 1.88 20.5247 1.4036 20.5247 0.875H9.34566C9.34566 1.4036 9.14337 1.88 8.81055 2.24546L11.4536 6.96374Z" fill="currentColor"/>
<path d="M7.29556 25.1713C7.42608 25.1713 7.55007 25.1843 7.67406 25.2104L9.93207 21.1774C7.98732 19.709 6.70822 17.4184 6.61686 14.821H1.62448C1.4548 15.2452 1.14156 15.5911 0.75 15.813L6.30362 25.4323C6.60382 25.2757 6.93664 25.1713 7.29556 25.1713Z" fill="currentColor"/>
</svg>
