<svg class="inline-svg" fill="none" xmlns="http://www.w3.org/2000/svg" viewBox="0 0 24 24" aria-hidden="true"><path fill-rule="evenodd" clip-rule="evenodd" d="M12 23a11 11 0 1 0 0-22 11 11 0 0 0 0 22ZM7.5 6.93v3.7a2.56 2.56 0 0 1 3.1-.78c.33.15.58.35.74.58.16.24.28.5.34.8.06.28.09.72.09 1.33v3.95h-1.75v-3.56c0-.7-.04-1.15-.1-1.34a.87.87 0 0 0-.35-.46 1.1 1.1 0 0 0-.64-.16c-.28 0-.54.07-.77.21-.23.15-.4.36-.5.65-.11.3-.16.72-.16 1.29v3.38H5.75V6.93H7.5Zm6.89 0v3.7a2.56 2.56 0 0 1 3.1-.78c.33.15.58.35.74.58.16.24.28.5.34.8.06.28.09.72.09 1.33v3.95H16.9v-3.56c0-.7-.04-1.15-.1-1.34a.87.87 0 0 0-.35-.46 1.1 1.1 0 0 0-.64-.16c-.29 0-.55.07-.77.21-.23.15-.4.36-.5.65-.1.3-.16.72-.16 1.29v3.38h-1.75V6.93h1.75Z" fill="currentColor"/></svg>