<svg width="16" height="16" viewBox="0 0 16 16" fill="none" xmlns="http://www.w3.org/2000/svg">
<path d="M12.8058 7.42086C13.9835 7.42086 14.8702 6.93019 15.524 6.07597L14.6502 5.4093C14.4344 5.69375 14.1554 5.92419 13.8353 6.08245C13.5153 6.24072 13.1628 6.32248 12.8058 6.3213C11.5275 6.3213 10.6013 5.27996 10.6013 4.00218C10.6013 2.72441 11.5124 1.62442 12.8422 1.62442C13.4333 1.62442 13.8511 1.76397 14.2155 1.98975V3.11329H15.3151V1.47508L15.1044 1.3093C14.5 0.833743 13.5769 0.581299 12.8053 0.581299C10.9191 0.581299 9.38487 2.11553 9.38487 4.00175C9.38487 5.88619 10.9182 7.42086 12.8053 7.42086H12.8058ZM15.0871 14.1675L15.048 12.5929V8.75019H12.7546V9.85019H13.8898V12.4573C13.8898 13.5804 13.032 14.3755 12.1666 14.3755C11.3013 14.3755 10.8498 13.7755 10.8498 12.6529V8.74974H8.70753V9.84974H9.69153V12.8435C9.69153 14.3671 10.5458 15.4169 12.0693 15.4169C12.9449 15.4169 13.6115 14.9311 14.0093 14.1822H14.0271L14.184 15.2293H15.9462V14.1689H15.0884V14.1666L15.0871 14.1675ZM9.13153 0.742635H7.22042L5.5582 5.5693H5.53242L3.87909 0.742635H1.84264V1.84307H2.98798L4.95909 7.34441H6.0062V7.34307L8.06176 1.84352H9.13064V0.743083L9.13153 0.742635ZM0.0541992 15.2435H1.18664V14.1115H0.0546437V15.2435H0.0541992ZM4.42753 10.0257H4.41509L4.34398 8.75019H2.32264V9.75286H3.3982V14.168H2.32264V15.2289H7.3182V14.1889H4.53687V11.5244C4.66264 10.56 5.38576 9.73641 6.37242 9.73641H6.3902L6.3702 10.7222H7.46975V8.73196H6.60042C5.60487 8.72929 4.8662 9.26797 4.42709 10.0262L4.42753 10.0257Z" fill="currentColor"/>
</svg>
