<svg width="32" height="22" viewBox="0 0 32 22" fill="none" xmlns="http://www.w3.org/2000/svg">
<path d="M11.5307 21.7578C12.5669 21.7578 13.407 20.9175 13.407 19.881C13.407 18.8444 12.5669 18.0042 11.5307 18.0042C10.4944 18.0042 9.6543 18.8444 9.6543 19.881C9.6543 20.9175 10.4944 21.7578 11.5307 21.7578Z" fill="currentColor"/>
<path d="M26.1478 21.7578C27.1841 21.7578 28.0242 20.9175 28.0242 19.881C28.0242 18.8444 27.1841 18.0042 26.1478 18.0042C25.1116 18.0042 24.2715 18.8444 24.2715 19.881C24.2715 20.9175 25.1116 21.7578 26.1478 21.7578Z" fill="currentColor"/>
<path d="M26.6895 4.07617H22.7393V15.3371H7.03711V19.8316H8.96285C8.96285 18.3993 10.0985 17.2633 11.5305 17.2633C12.9625 17.2633 14.0982 18.3993 14.0982 19.8316H23.5293C23.5293 18.3993 24.665 17.2633 26.097 17.2633C27.529 17.2633 28.6647 18.3993 28.6647 19.8316H31.8742V9.31152L26.6895 4.07617ZM30.0966 10.645H23.9244V5.26153H26.0476L30.0472 9.3609V10.645H30.0966Z" fill="currentColor"/>
<path d="M14.7402 9.7561C14.5427 9.7561 14.3945 9.90427 14.3945 10.1018V10.6945C14.3945 10.8921 14.5427 11.0402 14.7402 11.0402C14.9377 11.0402 15.0858 10.8921 15.0858 10.6945V10.1018C15.0858 9.90427 14.9377 9.7561 14.7402 9.7561Z" fill="currentColor"/>
<path d="M14.742 3.38473C14.9395 3.38473 15.0876 3.23655 15.0876 3.03899V2.44631C15.0876 2.24875 14.9395 2.10059 14.742 2.10059C14.5445 2.10059 14.3963 2.24875 14.3963 2.44631V3.03899C14.347 3.23655 14.5445 3.38473 14.742 3.38473Z" fill="currentColor"/>
<path d="M17.2585 4.96528L15.4315 6.00247C15.234 5.8543 14.9871 5.75552 14.7402 5.75552C14.6415 5.75552 14.5427 5.75552 14.444 5.80491L12.617 3.48358C12.5182 3.33541 12.2713 3.28602 12.1232 3.43419C11.9751 3.53297 11.9257 3.77992 12.0738 3.92809L13.8514 6.24942C13.7527 6.39759 13.6539 6.59516 13.6539 6.84211C13.6539 7.43479 14.1477 7.87929 14.6909 7.87929C15.234 7.87929 15.7278 7.3854 15.7278 6.84211C15.7278 6.79272 15.7278 6.74333 15.7278 6.69394L17.5548 5.65674C17.7523 5.55796 17.8017 5.3604 17.7029 5.16284C17.6535 4.91589 17.4066 4.8665 17.2585 4.96528Z" fill="currentColor"/>
<path d="M11.0866 6.29871H10.4941C10.2966 6.29871 10.1484 6.44687 10.1484 6.64443C10.1484 6.842 10.2966 6.99016 10.4941 6.99016H11.0866C11.2841 6.99016 11.4323 6.842 11.4323 6.64443C11.4323 6.44687 11.2841 6.29871 11.0866 6.29871Z" fill="currentColor"/>
<path d="M0.125 0.6189V0.964629C0.125 1.26097 0.322512 1.45853 0.61878 1.45853H6.88978C7.18605 1.45853 7.38356 1.65609 7.38356 1.95243V2.24877C7.38356 2.54511 7.18605 2.74267 6.88978 2.74267H2.29763C2.00136 2.74267 1.80385 2.94023 1.80385 3.23657V3.82925C1.80385 4.12559 2.00136 4.32315 2.29763 4.32315H6.88978C7.18605 4.32315 7.38356 4.52071 7.38356 4.81705V5.26156C7.38356 5.5579 7.18605 5.75546 6.88978 5.75546H4.81591C4.51964 5.75546 4.32213 5.95302 4.32213 6.24936V6.49631C4.32213 6.79265 4.51964 6.99021 4.81591 6.99021H6.79103C7.0873 6.99021 7.28481 7.18777 7.28481 7.48411V8.0768C7.28481 8.37314 7.0873 8.5707 6.79103 8.5707H0.61878C0.322512 8.5707 0.125 8.76826 0.125 9.0646V9.36094C0.125 9.65728 0.322512 9.85484 0.61878 9.85484H6.79103C7.0873 9.85484 7.28481 10.0524 7.28481 10.3487V10.7439C7.28481 11.0402 7.0873 11.2378 6.79103 11.2378H5.65533C5.35907 11.2378 5.16156 11.4353 5.16156 11.7317V11.9786C5.16156 12.2749 4.96404 12.4725 4.66778 12.4725H0.61878C0.322512 12.4725 0.125 12.6701 0.125 12.9664V13.3615C0.125 13.6579 0.322512 13.8554 0.61878 13.8554H20.765C21.0613 13.8554 21.2588 13.6579 21.2588 13.3615V0.6189C21.2588 0.32256 21.0613 0.125 20.765 0.125H0.61878C0.37189 0.125 0.125 0.37195 0.125 0.6189ZM18.3949 10.3981C13.0127 14.3987 6.93916 8.37314 10.9882 2.98962C11.0375 2.94023 11.0375 2.89085 11.0869 2.89085C16.4691 -1.10975 22.5426 4.91584 18.4936 10.2994C18.4442 10.3487 18.4442 10.3981 18.3949 10.3981Z" fill="currentColor"/>
<path d="M18 6.64443C18 6.842 18.1481 6.99016 18.3456 6.99016H18.9382C19.1357 6.99016 19.2838 6.842 19.2838 6.64443C19.2838 6.44687 19.1357 6.29871 18.9382 6.29871H18.3456C18.1481 6.29871 18 6.44687 18 6.64443Z" fill="currentColor"/>
</svg>
