<svg width="32" height="32" viewBox="0 0 32 32" fill="none" xmlns="http://www.w3.org/2000/svg">
<path fill-rule="evenodd" clip-rule="evenodd" d="M29.884 12.4451L17.1478 1.55233C16.4774 0.982556 15.4921 0.982556 14.8217 1.55233L2.08554 12.4451C1.63643 12.8272 1.375 13.3903 1.375 13.9802V30.8322H30.5811V13.9802C30.5945 13.3903 30.3331 12.8272 29.884 12.4451ZM3.47312 15.8571C3.46642 15.3611 3.82839 14.9589 4.2775 14.9589L6.98563 14.9857C7.43475 14.9924 7.80343 15.4013 7.80343 15.8973L7.81683 17.2112C7.82353 17.7072 7.46156 18.1094 7.01245 18.1027L4.30432 18.0759C3.8552 18.0692 3.48652 17.6603 3.48652 17.1642L3.47312 15.8571ZM3.49992 19.3763C3.49322 18.8803 3.86191 18.4781 4.30432 18.4781L7.01245 18.5049C7.46156 18.5116 7.83023 18.9205 7.83693 19.4165L7.85035 20.7237C7.85706 21.2197 7.49507 21.6219 7.04595 21.6219L4.33783 21.5951C3.88871 21.5884 3.52003 21.1795 3.52003 20.6834L3.49992 19.3763ZM3.53345 22.8955C3.52675 22.3995 3.88871 21.9973 4.33783 22.004L7.04595 22.0308C7.49507 22.0375 7.86375 22.4464 7.86375 22.9424L7.87715 24.2563C7.88386 24.7523 7.52189 25.1545 7.07277 25.1545L4.36465 25.1277C3.91553 25.121 3.54684 24.7121 3.54014 24.2161L3.53345 22.8955ZM7.10628 28.667L4.39818 28.6402C3.94906 28.6335 3.58038 28.2246 3.58038 27.7286L3.56696 26.4214C3.56026 25.9254 3.92224 25.5232 4.37136 25.5232L7.07948 25.55C7.5286 25.5567 7.89726 25.9656 7.89726 26.4617L7.91068 27.7755C7.91738 28.2715 7.5554 28.6737 7.10628 28.667ZM8.65473 19.4299C8.64803 18.9339 9.01001 18.5317 9.45913 18.5317L12.1673 18.5585C12.6164 18.5652 12.985 18.9741 12.9917 19.4702L13.0052 20.7773C13.0119 21.2733 12.6499 21.6755 12.2008 21.6755L9.49264 21.6487C9.04352 21.642 8.67484 21.2331 8.67484 20.7371L8.65473 19.4299ZM8.68155 22.9491C8.67485 22.4531 9.03683 22.0509 9.48595 22.0576L12.1941 22.0844C12.6432 22.0911 13.0119 22.5 13.0119 22.9961L13.0253 24.3032C13.032 24.7992 12.67 25.2014 12.2209 25.2014L9.51275 25.1746C9.06363 25.1679 8.69495 24.759 8.69495 24.263L8.68155 22.9491ZM12.2544 28.714L9.54628 28.6871C9.09716 28.6804 8.72847 28.2715 8.72177 27.7755L8.70837 26.4617C8.70167 25.9656 9.06363 25.5634 9.51275 25.5634L12.2209 25.5902C12.67 25.5969 13.0387 26.0058 13.0454 26.5019L13.0588 27.809C13.0655 28.3185 12.7035 28.7207 12.2544 28.714ZM13.7425 12.4384C13.7358 11.9424 14.0978 11.5402 14.5469 11.5402L17.255 11.567C17.7041 11.5737 18.0728 11.9826 18.0728 12.4787L18.0862 13.7925C18.0929 14.2885 17.7309 14.6907 17.2818 14.684L14.5737 14.6572C14.1246 14.6505 13.7559 14.2416 13.7559 13.7456L13.7425 12.4384ZM13.7693 15.9576C13.7626 15.4616 14.1246 15.0594 14.5737 15.0594L17.2818 15.0862C17.7309 15.0929 18.0996 15.5018 18.0996 15.9979L18.113 17.305C18.1198 17.801 17.7578 18.2032 17.3086 18.2032L14.6005 18.1764C14.1514 18.1697 13.7827 17.7608 13.7827 17.2648L13.7693 15.9576ZM13.8029 19.4769C13.7962 18.9808 14.1581 18.5786 14.6072 18.5786L17.3154 18.6054C17.7645 18.6121 18.1332 19.021 18.1332 19.5171L18.1466 20.8242C18.1533 21.3203 17.7913 21.7224 17.3422 21.7224L14.6341 21.6956C14.1849 21.6889 13.8163 21.28 13.8163 20.784L13.8029 19.4769ZM13.8297 22.9961C13.8229 22.5 14.1849 22.0978 14.6341 22.1045L17.3422 22.1313C17.7913 22.1381 18.16 22.547 18.16 23.043L18.1734 24.3568C18.1801 24.8529 17.8181 25.2551 17.369 25.2551L14.6609 25.2283C14.2118 25.2216 13.8431 24.8127 13.8364 24.3166L13.8297 22.9961ZM17.4092 28.7676L14.7011 28.7408C14.252 28.7341 13.8833 28.3252 13.8833 27.8291L13.8699 26.522C13.8632 26.0259 14.2252 25.6237 14.6743 25.6237L17.3824 25.6506C17.8315 25.6573 18.2002 26.0662 18.2002 26.5622L18.2136 27.876C18.2136 28.3654 17.8516 28.7676 17.4092 28.7676ZM18.9174 16.0046C18.9107 15.5085 19.2727 15.1063 19.7218 15.1063L22.4299 15.1331C22.8791 15.1398 23.2477 15.5487 23.2544 16.0448L23.2679 17.3519C23.2746 17.848 22.9126 18.2502 22.4635 18.2502L19.7553 18.2233C19.3062 18.2166 18.9375 17.8077 18.9308 17.3117L18.9174 16.0046ZM18.951 19.5305C18.9443 19.0344 19.3129 18.6322 19.7553 18.6389L22.4635 18.6658C22.9126 18.6725 23.2813 19.0814 23.288 19.5774L23.3014 20.8845C23.3081 21.3806 22.9461 21.7828 22.497 21.7828L19.7889 21.756C19.3397 21.7493 18.9711 21.3404 18.9711 20.8443L18.951 19.5305ZM18.9845 23.0497C18.9778 22.5537 19.3397 22.1515 19.7889 22.1515L22.497 22.1783C22.9461 22.185 23.3148 22.5939 23.3215 23.0899L23.3349 24.3971C23.3416 24.8931 22.9729 25.2953 22.5305 25.2953L19.8224 25.2685C19.3733 25.2618 19.0046 24.8529 18.9979 24.3568L18.9845 23.0497ZM22.5573 28.8145L19.8492 28.7877C19.4001 28.781 19.0314 28.3721 19.0314 27.876L19.018 26.5622C19.0113 26.0662 19.3733 25.664 19.8224 25.664L22.5305 25.6908C22.9796 25.6975 23.3483 26.1064 23.3483 26.6024L23.3617 27.9163C23.3617 28.419 23.0064 28.8212 22.5573 28.8145ZM24.0991 19.5774C24.0924 19.0814 24.4543 18.6792 24.9035 18.6792L27.6116 18.706C28.0607 18.7127 28.4294 19.1216 28.4361 19.6176L28.4495 20.9248C28.4562 21.4208 28.0942 21.823 27.6451 21.8163L24.937 21.7895C24.4878 21.7828 24.1192 21.3739 24.1192 20.8778L24.0991 19.5774ZM24.1326 23.0966C24.1259 22.6006 24.4878 22.1984 24.937 22.2051L27.6451 22.2319C28.0942 22.2386 28.4629 22.6475 28.4629 23.1435L28.4763 24.4507C28.483 24.9467 28.121 25.3489 27.6719 25.3489L24.9638 25.3221C24.5147 25.3154 24.146 24.9065 24.146 24.4105L24.1326 23.0966ZM27.7054 28.8681L24.9973 28.8413C24.5482 28.8346 24.1795 28.4257 24.1795 27.9297L24.1661 26.6158C24.1594 26.1198 24.5214 25.7176 24.9705 25.7176L27.6786 25.7444C28.1277 25.7511 28.4964 26.16 28.4964 26.6561L28.5098 27.9632C28.5165 28.4659 28.1545 28.8681 27.7054 28.8681Z" fill="currentColor"/>
</svg>
