<svg width="32" height="30" viewBox="0 0 32 30" fill="none" xmlns="http://www.w3.org/2000/svg">
<path d="M32.0011 17.9302C31.9417 17.6924 31.7633 17.4545 31.5255 17.395L29.9799 16.8599C30.396 13.8867 29.9204 10.7946 28.3748 7.99989C26.5319 4.55103 23.4405 1.99412 19.6953 0.864322C15.95 -0.265476 11.967 0.0913021 8.51896 1.93466C6.79496 2.8266 5.30875 4.07533 4.11978 5.50244L0.493413 7.58365C0.255619 7.70257 0.136719 7.94042 0.136719 8.17828C0.136719 8.41613 0.255619 8.65398 0.493413 8.77291L1.80128 9.54593C1.68238 9.9027 1.50404 10.2595 1.44459 10.6163C0.315072 14.3624 0.671755 18.3465 2.51466 21.8548C5.18984 26.7902 10.243 29.6444 15.5339 29.6444C17.8524 29.6444 20.2303 29.1093 22.4299 27.92C25.3429 26.374 27.483 23.9954 28.7909 21.2601L31.8822 18.6438C31.9417 18.4059 32.0011 18.1681 32.0011 17.9302ZM4.47646 11.1514C4.59536 11.2109 4.71426 11.2704 4.83316 11.2704C4.95205 11.2704 5.07095 11.2704 5.1304 11.2109C5.36819 11.092 5.48708 10.8541 5.48708 10.6163V6.51331C6.49771 5.32405 7.74613 4.25371 9.23234 3.4807C11.2536 2.41036 13.3343 1.93466 15.3555 1.93466C19.9925 1.93466 24.4512 4.4321 26.7697 8.77291C28.0181 11.092 28.4937 13.6489 28.1964 16.2058L27.0075 15.7895C26.7697 15.7301 26.5319 15.7301 26.3535 15.9085C26.1752 16.0869 26.0563 16.3247 26.1157 16.5626L26.8885 20.725C25.6996 23.1035 23.8567 25.0063 21.4787 26.3145C15.1772 29.6444 7.32999 27.2659 4.00087 21.0223C2.21742 17.6329 2.03907 13.8273 3.28749 10.4973L4.47646 11.1514Z" fill="currentColor"/>
<path d="M11.3729 6.51311L8.10324 14.1244C7.98434 14.3622 8.28158 14.6595 8.51938 14.4812L11.3729 12.8757C11.4918 12.8162 11.5513 12.8162 11.6702 12.8757L14.4642 14.6001C14.702 14.719 14.9993 14.4812 14.8804 14.2433L11.9079 6.51311C11.8485 6.27525 11.4918 6.27525 11.3729 6.51311Z" fill="currentColor"/>
<path d="M14.6417 14.8973C14.5228 14.8973 14.4634 14.8973 14.3445 14.8379L11.5504 13.1135L8.63742 14.719C8.39963 14.8379 8.16184 14.8379 7.98349 14.6595C7.80515 14.4811 7.74569 14.2433 7.86459 14.0054L11.1343 6.39413C11.2532 6.15628 11.4315 6.03735 11.6693 6.03735C11.9071 6.03735 12.0854 6.15628 12.2043 6.39413L15.1768 14.1243C15.2362 14.3622 15.1768 14.6 14.9984 14.7784C14.939 14.8379 14.7606 14.8973 14.6417 14.8973ZM11.5504 12.5783C11.6693 12.5783 11.7288 12.5783 11.8476 12.6378L14.6417 14.3622L14.939 14.2433L14.7012 14.3622L11.7287 6.63198H11.6693L8.39963 14.2433L8.45907 14.3027L11.3126 12.6972C11.3721 12.6378 11.4315 12.5783 11.5504 12.5783Z" fill="currentColor"/>
<path d="M11.5486 10.735C11.073 10.735 10.6569 11.1512 10.6569 11.6269L10.4785 19.6544C10.4785 20.1301 10.8352 20.5464 11.3702 20.5464C11.8458 20.5464 12.262 20.1301 12.262 19.6544L12.4403 11.6269C12.4998 11.1512 12.0836 10.735 11.5486 10.735Z" fill="currentColor"/>
<path d="M19.2763 10.854C18.8007 10.854 18.3845 11.2702 18.3845 11.7459L18.2656 19.7735C18.2656 20.2492 18.6223 20.6654 19.1574 20.6654C19.6329 20.6654 20.0491 20.2492 20.0491 19.7735L20.2274 11.7459C20.2274 11.2702 19.8113 10.854 19.2763 10.854Z" fill="currentColor"/>
<path d="M19.0995 6.57268L15.8298 14.1839C15.7109 14.4218 16.0081 14.7191 16.2459 14.5407L19.0995 12.9352C19.2184 12.8758 19.2778 12.8758 19.3967 12.9352L22.1908 14.6596C22.4286 14.7786 22.7258 14.5407 22.6069 14.3029L19.6345 6.57268C19.5751 6.33482 19.2184 6.33482 19.0995 6.57268Z" fill="currentColor"/>
<path d="M22.3683 14.9569C22.2494 14.9569 22.1899 14.9569 22.071 14.8975L19.277 13.173L16.364 14.7785C16.1262 14.8975 15.8884 14.838 15.7101 14.7191C15.5317 14.5407 15.4723 14.3028 15.5912 14.065L18.8608 6.4537C18.9797 6.21585 19.1581 6.09692 19.3959 6.09692C19.6337 6.09692 19.812 6.21585 19.9309 6.4537L22.9033 14.1839C22.9628 14.4217 22.9033 14.6596 22.725 14.838C22.6655 14.9569 22.4872 14.9569 22.3683 14.9569ZM19.277 12.6973C19.3959 12.6973 19.4553 12.6973 19.5742 12.7568L22.3683 14.4812L22.6655 14.3623L22.4277 14.4812L19.4553 6.75102H19.3959L16.1262 14.3623L16.1856 14.4217L19.0392 12.8162C19.0986 12.6973 19.1581 12.6973 19.277 12.6973Z" fill="currentColor"/>
<path d="M22.6676 21.379H8.10267C7.62708 21.379 7.21094 21.7953 7.21094 22.271C7.21094 22.7467 7.62708 23.1629 8.10267 23.1629H22.6676C23.1431 23.1629 23.5593 22.7467 23.5593 22.271C23.5593 21.7953 23.2026 21.379 22.6676 21.379Z" fill="currentColor"/>
</svg>
