<svg width="26" height="32" viewBox="0 0 26 32" fill="none" xmlns="http://www.w3.org/2000/svg">
<path d="M25.8529 6.45473C25.8397 6.13274 25.7149 6.03418 25.452 5.97504C21.069 4.97622 17.0803 3.03771 13.4136 0.369806C13.2887 0.277809 13.1836 0.238381 13.085 0.244952V0.231812C12.9864 0.238383 12.8813 0.290952 12.7565 0.369806C11.4751 1.20435 10.2068 2.07175 8.87945 2.80772C6.20497 4.29938 3.39907 5.4362 0.422316 6.08017C0.212038 6.12617 0.0609019 6.18532 0.0543307 6.48759C-0.0113813 8.93208 0.126617 11.3503 0.632599 13.7488C0.85602 14.8133 1.13858 15.8581 1.47371 16.8307H1.49343L1.47371 16.8569C2.61053 20.2805 4.37818 23.3624 6.70438 26.1552C8.50489 28.3171 10.5354 30.1965 12.8879 31.767V31.7539C16.8109 29.1319 19.9322 25.7281 22.2913 21.5816C23.1587 20.0505 23.8618 18.5129 24.4072 16.8504H24.4138C25.5177 13.5582 25.9843 10.082 25.8529 6.45473ZM12.9536 23.6253C8.49833 23.6253 4.88417 20.0111 4.88417 15.5558C4.88417 11.1006 8.49833 7.48642 12.9536 7.48642C17.4089 7.48642 21.023 11.1006 21.023 15.5558C21.023 20.0111 17.4089 23.6253 12.9536 23.6253Z" fill="currentColor"/>
<path d="M13.9684 16.8541C14.489 16.8541 15.0096 16.7681 15.4434 16.5102C16.1375 16.1233 16.875 15.3925 16.875 13.802C16.875 12.1256 16.0074 11.3518 15.2699 11.0079C14.8794 10.836 14.4022 10.75 13.9684 10.75H10.7581V15.3925H9.5V16.8541H10.7147V17.5419H9.5V18.8744H10.7581V20.25H12.3199V18.8744H15.6169V17.5419H12.3199V16.8541H13.9684ZM12.2765 15.3925V11.9966H13.5779C14.6191 11.9966 15.4434 12.7704 15.4434 13.6731C15.4434 14.6188 14.6191 15.3495 13.5779 15.3495H12.2765V15.3925Z" fill="currentColor"/>
</svg>
