<svg width="32" height="28" viewBox="0 0 32 28" fill="none" xmlns="http://www.w3.org/2000/svg">
<path d="M24.8023 7.50001C24.4987 7.50001 24.2017 7.36141 24.0037 7.0974C21.4494 3.64554 18.7698 1.92291 16.0373 1.98231C11.4964 2.07471 8.09075 7.0116 8.05775 7.0644C7.74754 7.51321 7.13373 7.63201 6.68492 7.32841C6.22951 7.0248 6.11071 6.41099 6.42092 5.95558C6.57932 5.71798 10.4206 0.121073 15.9911 0.00227057C19.3968 -0.0769309 22.644 1.91631 25.6009 5.91598C25.9243 6.35819 25.8319 6.9786 25.3963 7.30201C25.2181 7.43401 25.0069 7.50001 24.8023 7.50001Z" fill="currentColor"/>
<path d="M10.7115 16.0735C10.0251 16.0735 9.4707 16.6279 9.4707 17.3143C9.4707 18.0007 10.0251 18.5551 10.7115 18.5551C11.3979 18.5551 11.9524 18.0007 11.9524 17.3143C11.9524 16.6279 11.3979 16.0735 10.7115 16.0735Z" fill="currentColor"/>
<path d="M6.75059 16.0735C6.06418 16.0735 5.50977 16.6279 5.50977 17.3143C5.50977 18.0007 6.06418 18.5551 6.75059 18.5551C7.43701 18.5551 7.99142 18.0007 7.99142 17.3143C7.99142 16.6279 7.43701 16.0735 6.75059 16.0735Z" fill="currentColor"/>
<path d="M14.6705 16.0735C13.9841 16.0735 13.4297 16.6279 13.4297 17.3143C13.4297 18.0007 13.9841 18.5551 14.6705 18.5551C15.3569 18.5551 15.9113 18.0007 15.9113 17.3143C15.9113 16.6279 15.3569 16.0735 14.6705 16.0735Z" fill="currentColor"/>
<path d="M30.9402 6.07434H1.12741C0.718206 6.07434 0.375 6.42415 0.375 6.84656V12.0541V12.2653V24.7263C0.375 26.5281 1.76763 28 3.47046 28H28.5971C30.2868 28 31.6728 26.5347 31.6728 24.7461V12.2719V12.0607V6.82676C31.6662 6.41095 31.3362 6.07434 30.9402 6.07434ZM28.9799 20.2514C28.1153 22.8255 26.0033 24.6471 23.5348 24.6405C21.502 24.6339 19.7134 23.3997 18.664 21.5252C18.3339 20.9312 17.7531 20.5418 17.0931 20.5418L5.08089 20.522C3.81367 20.522 2.79065 19.2944 2.79065 17.783V17.0371C2.79065 15.5257 3.82026 14.3047 5.08749 14.3047L17.3571 14.3245C17.9775 14.3245 18.5319 13.9747 18.8751 13.4401C19.9444 11.757 21.6406 10.6746 23.548 10.6746C25.9373 10.6812 27.9833 12.3841 28.8941 14.8261C29.0129 15.1495 28.7885 15.5059 28.4519 15.5059L23.614 15.4993C23.317 15.4993 23.0794 15.7831 23.0794 16.1329V18.938C23.0794 19.2878 23.317 19.5716 23.614 19.5716L28.5377 19.5782C28.8677 19.5848 29.0921 19.928 28.9799 20.2514Z" fill="currentColor"/>
</svg>
