<svg class="inline-svg" fill="none" xmlns="http://www.w3.org/2000/svg" viewBox="0 0 24 24" aria-hidden="true"><path fill-rule="evenodd" clip-rule="evenodd" d="M7.97 1.4C7.68 1.5 5.1 3 4.88 3.18c-.2.16-.45.62-.49.94-.05.35.05.66.43 1.34l.36.63-.08.15c-.04.08-.22.35-.4.59a9.76 9.76 0 0 0-.98 1.8c-.14.35-.1.33-1 .36-.92.02-1.17.1-1.5.47-.38.42-.38.4-.38 2.53v1.9l.13.26c.31.63.67.8 1.74.84.92.03.87 0 1.01.36.26.66.73 1.5 1.14 2.03.37.48.37.42-.04 1.15-.44.78-.51 1.06-.38 1.53.17.62.2.64 2.08 1.73 1.48.86 1.55.88 1.95.89.66 0 1.03-.27 1.52-1.12.4-.7.43-.73.83-.65.4.07 2.04.07 2.43 0 .4-.08.44-.04.84.65.49.85.86 1.12 1.51 1.12.41 0 .47-.03 1.99-.9 1.62-.94 1.7-1 1.88-1.32.35-.62.31-1-.21-1.93l-.36-.64.07-.15c.04-.08.23-.35.4-.6.33-.43.78-1.26.99-1.79.14-.35.09-.33 1-.36 1.08-.03 1.47-.23 1.77-.89.16-.33.16-3.9 0-4.23-.3-.66-.69-.85-1.77-.88-.91-.03-.86-.01-1-.37a9.5 9.5 0 0 0-1.14-2.02c-.37-.48-.37-.43.04-1.15.52-.92.56-1.32.21-1.93-.18-.32-.22-.35-1.8-1.27-1.6-.93-1.7-.97-2.15-.94-.65.04-.95.28-1.45 1.15-.38.66-.4.68-.85.6-.17-.02-.7-.04-1.18-.04s-1.01.02-1.19.05c-.44.07-.47.05-.84-.61-.37-.64-.56-.86-.9-1.02a1.66 1.66 0 0 0-1.14-.06Zm5.17 6.24c2.62.7 4.05 3.5 3.08 6a4.53 4.53 0 0 1-4.76 2.82 4.5 4.5 0 0 1-3.58-6.14 4.52 4.52 0 0 1 5.26-2.68Z" fill="currentColor"/></svg>