<svg width="20" height="32" viewBox="0 0 20 32" fill="none" xmlns="http://www.w3.org/2000/svg">
<path d="M16.8719 0.75H3.12808C1.88548 0.75 0.875 1.76047 0.875 3.00308V29.1047C0.875 30.3473 1.88548 31.3578 3.12808 31.3578H16.8719C18.1145 31.3578 19.125 30.3473 19.125 29.1047V3.00308C19.125 1.75364 18.1145 0.75 16.8719 0.75ZM7.88687 2.15647H12.1131C12.6798 2.15647 13.1372 2.61391 13.1372 3.1806C13.1372 3.74728 12.6798 4.20472 12.1131 4.20472H7.88687C7.32018 4.20472 6.86274 3.74728 6.86274 3.1806C6.86274 2.61391 7.32018 2.15647 7.88687 2.15647ZM11.6966 30.1152H8.39893C7.83225 30.1152 7.3748 29.6577 7.3748 29.091C7.3748 28.5243 7.83225 28.0669 8.39893 28.0669H11.6966C12.2633 28.0669 12.7208 28.5243 12.7208 29.091C12.7208 29.6577 12.2633 30.1152 11.6966 30.1152ZM17.6229 26.6877H2.46581V5.30395H17.6229V26.6877Z" fill="currentColor"/>
<path d="M11.3653 18.285C12.2333 18.285 13.1014 18.1403 13.8249 17.7062C14.9823 17.0552 16.2121 15.8253 16.2121 13.1487C16.2121 10.3274 14.7653 9.02523 13.5355 8.4465C12.8844 8.15713 12.0887 8.01245 11.3653 8.01245H6.01197V15.8253H3.91406V18.285H5.93963V19.4424H3.91406V21.685H6.01197V24H8.61627V21.685H14.1142V19.4424H8.61627V18.285H11.3653ZM8.54393 15.8253V10.1104H10.7142C12.4504 10.1104 13.8249 11.4125 13.8249 12.9317C13.8249 14.5232 12.4504 15.753 10.7142 15.753H8.54393V15.8253Z" fill="currentColor"/>
</svg>
