<svg class="inline-svg" fill="none" xmlns="http://www.w3.org/2000/svg" viewBox="0 0 24 24" aria-hidden="true"><path fill-rule="evenodd" clip-rule="evenodd" d="M13.13 1.37a.77.77 0 0 0-.4.49v4.56c0 4.95-.02 4.51.31 4.76.2.15 9.13.15 9.32 0 .33-.24.38-.47.29-1.4a9.26 9.26 0 0 0-8.19-8.4 3.43 3.43 0 0 0-1.33 0ZM9.62 4.21a9.26 9.26 0 1 0 9.27 13.3c.74-1.52 1.2-3.97.83-4.46-.24-.33.07-.3-3.77-.33l-3.44-.02-.26-.13a1.82 1.82 0 0 1-.8-.8l-.14-.27-.02-3.44c-.03-3.85 0-3.54-.33-3.78-.14-.11-.72-.14-1.34-.07Z" fill="currentColor"/></svg>