<svg width="32" height="28" viewBox="0 0 32 28" fill="none" xmlns="http://www.w3.org/2000/svg">
<path d="M29.9153 14.4554C29.7487 14.5554 29.5754 14.6354 29.3822 14.6887C29.1689 14.742 29.1156 15.0619 29.2889 15.2085C29.5821 15.4617 29.742 15.7882 29.8087 16.1481C29.9353 16.8078 29.6687 17.3409 29.1556 17.7741C28.9424 17.954 28.6958 18.094 28.4292 18.2006C28.1494 18.3139 28.116 18.6471 28.3426 18.8337C28.8557 19.2468 29.0023 19.8266 28.7291 20.4463C28.5092 20.9528 28.1627 21.3526 27.6496 21.6192C27.5829 21.6525 27.5096 21.6792 27.4363 21.7058C27.2564 21.7591 27.1831 21.8391 27.1698 22.019C27.1564 22.1523 27.2031 22.2589 27.3097 22.3522C27.5896 22.5788 27.7895 22.8587 27.8362 23.2119C27.8761 23.4851 27.8162 23.7383 27.6895 23.9849C27.503 24.3581 27.2231 24.658 26.8965 24.9179C26.7433 25.0378 26.3434 25.2311 26.0369 25.3577C25.8636 25.431 25.3438 25.5309 25.1906 25.5576C17.6203 27.0103 10.7031 24.518 10.7031 24.498V13.7691C10.8831 13.5891 11.5428 13.2293 11.6228 13.1426C11.6294 13.136 11.6427 13.1227 11.6494 13.116C13.1555 11.3301 14.1217 9.42416 15.2413 7.40498C15.9876 6.0522 16.1676 3.1667 16.1742 2.08048C16.1809 1.32745 16.5208 0.934279 17.4204 0.934279C19.5395 0.48113 19.8661 8.52453 19.6928 11.8032C23.7578 11.39 27.9561 11.47 28.5159 11.47C28.8424 11.47 29.1689 11.4633 29.4955 11.4767C30.0353 11.5033 30.6217 11.8298 30.7949 12.5096C30.9882 13.2426 30.6283 14.0356 29.9153 14.4554Z" fill="currentColor"/>
<path d="M20.2588 26.6904C14.7877 26.6904 10.4828 25.191 10.2895 25.0244C10.1363 24.8978 10.043 24.7046 10.043 24.5047V13.7757C10.043 13.5958 10.1163 13.4292 10.2429 13.3025C10.3962 13.1493 10.6427 12.996 10.9693 12.7894C11.0492 12.7361 11.1225 12.6961 11.1758 12.6628C12.4353 11.1568 13.3083 9.55741 14.2413 7.8581L14.6678 7.08508C15.2742 5.99219 15.5074 3.4932 15.5141 2.08045C15.5207 0.927582 16.1805 0.287842 17.3667 0.26785C17.7998 0.20121 18.2196 0.321162 18.5728 0.627704C20.3921 2.18707 20.4321 8.79105 20.3921 11.0635C22.7245 10.8569 25.3901 10.7702 28.3289 10.7969H28.5288H28.7887C29.0419 10.7969 29.2951 10.7969 29.5417 10.8102C30.3147 10.8502 31.201 11.3367 31.4609 12.3496C31.7208 13.3625 31.2277 14.4621 30.2614 15.0285C30.2148 15.0552 30.1614 15.0818 30.1081 15.1151C30.2881 15.375 30.4147 15.6816 30.4813 16.0214C30.6013 16.6212 30.5413 17.4942 29.6017 18.2872C29.4484 18.4138 29.2818 18.5271 29.1019 18.6337C29.5884 19.2135 29.6883 19.9665 29.3618 20.7195C29.0886 21.3526 28.6554 21.8391 28.0823 22.1656C28.3222 22.4522 28.4688 22.7787 28.5221 23.1319C28.5754 23.5184 28.5088 23.9116 28.3155 24.2981C28.1023 24.7179 27.7891 25.0977 27.3426 25.4576C27.0827 25.6708 26.5363 25.9041 26.3163 25.9974C26.1497 26.064 25.8232 26.144 25.3434 26.2373C23.5908 26.5638 21.8715 26.6904 20.2588 26.6904ZM11.3824 24.0315C12.9418 24.5246 18.7594 26.124 25.0702 24.9112C25.4434 24.8378 25.7166 24.7712 25.7899 24.7446C26.1364 24.5979 26.4163 24.4513 26.4829 24.4047C26.7762 24.1648 26.9694 23.9382 27.096 23.6916C27.1693 23.5517 27.196 23.4251 27.176 23.3051C27.1627 23.2118 27.116 23.0586 26.8894 22.872C26.6096 22.6454 26.4763 22.3189 26.5029 21.9657C26.5296 21.6525 26.6762 21.2393 27.2426 21.0661C27.276 21.0527 27.3159 21.0461 27.3493 21.0261C27.7024 20.8461 27.9557 20.5663 28.1223 20.1797C28.2689 19.8399 28.2089 19.58 27.929 19.3534C27.6292 19.1135 27.4892 18.747 27.5425 18.3805C27.5958 18.0206 27.8357 17.7207 28.1889 17.5808C28.3955 17.5008 28.5754 17.3875 28.7354 17.2609C29.2085 16.8611 29.2085 16.5279 29.1619 16.2813C29.1152 16.0414 29.0153 15.8548 28.8553 15.7149C28.5821 15.475 28.4688 15.1018 28.5554 14.7353C28.6354 14.3888 28.8953 14.1222 29.2285 14.0422C29.3285 14.0156 29.4417 13.9689 29.5883 13.8823C30.0415 13.6157 30.2814 13.1293 30.1681 12.6895C30.0482 12.2097 29.575 12.163 29.4817 12.163C29.2551 12.1497 29.0286 12.1563 28.802 12.1563H28.5354H28.3289C25.1168 12.123 22.238 12.2363 19.7857 12.4895C19.5924 12.5095 19.3992 12.4429 19.2526 12.3096C19.1126 12.1763 19.0326 11.9831 19.046 11.7898C19.2326 8.28459 18.8127 2.60024 17.7198 1.66728C17.6465 1.60064 17.6132 1.60731 17.5866 1.61397C17.5399 1.62064 17.4933 1.6273 17.4466 1.6273C16.8735 1.6273 16.8735 1.76724 16.8735 2.1071C16.8735 2.26704 16.8402 5.98553 15.8606 7.75814L15.4408 8.52449C14.4678 10.2971 13.5549 11.9631 12.2021 13.5758C12.1888 13.5958 12.1488 13.6357 12.1288 13.6557C12.0555 13.729 11.9489 13.7957 11.7023 13.949C11.629 13.9956 11.5157 14.0689 11.4091 14.1355V24.0315H11.3824Z" fill="currentColor"/>
<path d="M6.25766 27.75H2.63246C1.45294 27.75 0.5 26.7971 0.5 25.6176V11.6499C0.5 10.4704 1.45294 9.51746 2.63246 9.51746H6.25766C7.43718 9.51746 8.39012 10.4704 8.39012 11.6499V25.6176C8.39012 26.7971 7.43051 27.75 6.25766 27.75Z" fill="currentColor"/>
</svg>
