<svg width="30" height="31" viewBox="0 0 30 31" fill="none" xmlns="http://www.w3.org/2000/svg">
<path d="M28.3574 17.0027H1.40593C0.80164 17.0027 0.378633 17.6071 0.559921 18.2116L4.30655 30.0586C4.42741 30.4213 4.78998 30.6631 5.15256 30.6631H24.49C24.913 30.6631 25.2151 30.4213 25.336 30.0586L29.143 18.1511C29.3847 17.6071 28.9617 17.0027 28.3574 17.0027ZM18.3262 18.3325C18.2657 19.6018 18.0844 22.2613 18.0844 22.2613L18.024 23.168V23.2284H11.8602C11.8602 23.2284 11.8602 22.8658 11.7998 22.3218C11.7394 21.4151 11.6185 20.0853 11.5581 19.1182C11.5581 18.816 11.4976 18.5742 11.4976 18.3929H18.3262V18.3325ZM3.46053 22.3822C3.09796 21.0524 2.61452 19.6018 2.07066 18.3325H10.0473C10.1078 18.816 10.1078 19.2391 10.1682 19.7227C10.2286 20.8107 10.3495 21.9591 10.4099 23.2284H8.23446C7.75102 23.2284 7.26759 23.2284 6.78415 23.2284C6.059 23.2284 5.27342 23.2284 4.54827 23.2284C4.0044 23.2284 3.64182 23.0471 3.46053 22.3822ZM6.24029 29.152C6.059 29.152 5.75685 28.9102 5.69642 28.7289C5.21299 27.4595 4.78998 26.3715 4.36698 24.8H10.5308C10.5308 24.9813 10.5308 25.1626 10.5912 25.4044C10.6516 26.6738 10.7725 27.8222 10.8934 29.152C9.20133 29.0915 7.69059 29.152 6.24029 29.152ZM17.6614 27.8222C17.601 28.2453 17.601 28.7289 17.5406 29.152H12.2228C12.1624 28.0035 12.0415 26.976 11.9811 25.888C11.9811 25.5253 11.9206 25.1626 11.9206 24.8H17.8427C17.7823 25.888 17.7219 26.7946 17.6614 27.8222ZM24.2482 28.7893C24.1878 28.9706 23.8252 29.152 23.644 29.152C22.1332 29.152 20.6829 29.152 18.9909 29.152C18.9909 28.8497 19.0513 28.5475 19.0513 28.3057C19.1117 27.1573 19.2326 26.1298 19.293 24.9209C19.293 24.8604 19.293 24.8 19.293 24.8H25.336C24.9734 26.0693 24.6713 27.4595 24.2482 28.7893ZM26.0007 22.5031C25.9403 22.8053 25.5173 23.1075 25.2755 23.1075C24.3691 23.1075 23.4627 23.168 22.5562 23.168H21.4685C20.8038 23.168 20.1995 23.168 19.5348 23.168C19.6556 21.536 19.716 19.904 19.8369 18.3325H27.2093C26.7863 19.904 26.4237 21.1733 26.0007 22.5031Z" fill="currentColor"/>
<path d="M23.644 7.99657L14.5191 4.85348C13.7336 4.55125 12.8271 4.97436 12.525 5.82058L8.65749 17.0028L8.17406 18.3325H9.38265L9.86608 17.0028L13.0688 7.69435L23.1001 11.1397L21.1059 16.9423L20.6225 18.2721H21.7102L22.1937 16.9423L24.6109 9.93079C24.913 9.14501 24.49 8.29879 23.644 7.99657ZM20.8038 8.90323C20.6829 9.20546 20.3808 9.38679 20.0787 9.38679C20.0182 9.38679 19.8974 9.38679 19.8369 9.32634L16.6946 8.1779C16.332 8.05702 16.0903 7.57346 16.2112 7.2108C16.332 6.78769 16.755 6.60636 17.178 6.72724L20.3204 7.87568C20.7434 8.05702 20.9851 8.48013 20.8038 8.90323ZM9.44308 23.2285C8.95964 23.2285 8.47621 23.2285 7.99277 23.2285H6.54247C6.42161 23.7725 6.54247 24.3769 6.96547 24.7396H11.256C11.256 24.6792 11.256 24.6792 11.256 24.6187L11.3164 24.4978C11.3768 24.2561 11.679 24.0747 11.9811 24.1956L13.6731 24.8001H16.5737L12.102 23.2889H9.44308V23.2285Z" fill="currentColor"/>
<path d="M18.4473 24.8H19.535L20.0789 23.168H18.9911L18.4473 24.8Z" fill="currentColor"/>
<path d="M14.9426 0.199219C6.96595 0.199219 0.5 6.66674 0.5 14.6454C0.5 15.1289 0.923006 15.552 1.40644 15.552C1.88988 15.552 2.31288 15.1289 2.31288 14.6454C2.31288 7.69429 7.93282 2.01254 14.9426 2.01254C21.9524 2.01254 27.5724 7.69429 27.5724 14.6454C27.5724 15.1289 27.9954 15.552 28.4788 15.552C28.9622 15.552 29.3853 15.1289 29.3853 14.6454C29.3853 6.66674 22.8589 0.199219 14.9426 0.199219Z" fill="currentColor"/>
</svg>
