<svg width="64" height="64" viewBox="0 0 64 64" fill="none" xmlns="http://www.w3.org/2000/svg">
<rect width="64" height="64" rx="20" fill="#9ECD61"/>
<path fill-rule="evenodd" clip-rule="evenodd" d="M29.9811 21.4856C30.8803 19.9359 33.1182 19.9359 34.0175 21.4856L36.7713 26.2314C37.0251 26.6688 37.4638 26.9674 37.9639 27.0429L42.5368 27.7336C44.5301 28.0346 45.2293 30.5514 43.6769 31.8375L40.3451 34.5979C39.8774 34.9854 39.6575 35.5965 39.7711 36.1931L40.7044 41.0944C41.07 43.0144 39.0545 44.5061 37.3252 43.5955L32.7758 41.2001C32.2898 40.9441 31.7088 40.9441 31.2228 41.2001L26.6734 43.5955C24.9441 44.5061 22.9286 43.0144 23.2941 41.0944L24.2275 36.1931C24.3411 35.5965 24.1212 34.9854 23.6535 34.5979L20.3216 31.8375C18.7693 30.5514 19.4685 28.0346 21.4618 27.7336L26.0347 27.0429C26.5347 26.9674 26.9735 26.6688 27.2273 26.2314L29.9811 21.4856ZM32.2876 22.4893C32.1591 22.268 31.8394 22.268 31.711 22.4893L28.9572 27.2352C28.3987 28.1975 27.4335 28.8543 26.3333 29.0205L21.7605 29.7111C21.4757 29.7541 21.3758 30.1137 21.5976 30.2974L24.9295 33.0578C25.9583 33.9102 26.4421 35.2548 26.1922 36.5672L25.2588 41.4685C25.2066 41.7428 25.4945 41.9559 25.7416 41.8258L30.291 39.4304C31.3603 38.8674 32.6383 38.8674 33.7076 39.4304L38.257 41.8258C38.504 41.9559 38.792 41.7428 38.7397 41.4685L37.8064 36.5672C37.5565 35.2548 38.0403 33.9102 39.0691 33.0578L42.401 30.2974C42.6227 30.1137 42.5229 29.7541 42.2381 29.7111L37.6652 29.0205C36.565 28.8543 35.5998 28.1975 35.0414 27.2352L32.2876 22.4893Z" fill="white"/>
</svg>
