<svg width="16" height="13" viewBox="0 0 16 13" fill="none" xmlns="http://www.w3.org/2000/svg">
<path d="M15.9951 1.01983C16.0596 0.26112 15.4791 -0.181461 14.7052 0.0714424C11.8673 1.08306 9.09399 2.15789 6.25615 3.16951C4.32126 3.86499 2.45086 4.56048 0.515971 5.31919C0.193489 5.44564 0 5.63532 0 5.95144C0 6.26757 0.193489 6.45725 0.515971 6.5837C1.41892 6.89983 2.38637 7.21596 3.28932 7.53209C3.86978 7.72177 4.38576 7.65854 4.90173 7.34241C6.83662 6.14112 8.77151 4.93983 10.7709 3.67531C11.0289 3.48564 11.3514 3.35919 11.6094 3.16951C11.7383 3.10628 11.8673 3.04306 11.9963 3.16951C12.1253 3.29596 12.0608 3.42241 11.9318 3.54886L11.7383 3.73854L7.03011 8.16435C6.57863 8.60693 6.57863 8.98628 7.0946 9.36564C8.64252 10.5037 10.2549 11.5785 11.8028 12.7166C12.5768 13.2856 13.4152 12.9695 13.6087 12.0211C14.1247 9.87145 15.9306 1.90499 15.9951 1.01983Z" fill="currentColor"/>
</svg>
