<svg width="30" height="30" viewBox="0 0 30 30" fill="none" xmlns="http://www.w3.org/2000/svg">
<path fill-rule="evenodd" clip-rule="evenodd" d="M2.41353 15.3046C1.49551 15.3046 0.75 16.0501 0.75 16.9681V27.4545C0.75 28.3725 1.49551 29.118 2.41353 29.118H15.5616C23.1891 29.118 29.375 22.9321 29.375 15.3046H2.41353ZM7.13917 24.4848C5.88229 24.4848 4.8657 23.4682 4.8657 22.2113C4.8657 20.9544 5.88229 19.9378 7.13917 19.9378C8.39606 19.9378 9.41266 20.9544 9.41266 22.2113C9.41266 23.4682 8.39606 24.4848 7.13917 24.4848ZM13.0108 24.4848C11.7539 24.4848 10.7373 23.4682 10.7373 22.2113C10.7373 20.9544 11.7539 19.9378 13.0108 19.9378C14.2677 19.9378 15.2843 20.9544 15.2843 22.2113C15.2843 23.4682 14.2677 24.4848 13.0108 24.4848ZM18.8825 24.4848C17.6256 24.4848 16.609 23.4682 16.609 22.2113C16.609 20.9544 17.6256 19.9378 18.8825 19.9378C20.1393 19.9378 21.1559 20.9544 21.1559 22.2113C21.1559 23.4682 20.1393 24.4848 18.8825 24.4848Z" fill="currentColor"/>
<path d="M8.27218 5.38498H4.03942C3.52804 5.38498 3.11523 4.97218 3.11523 4.4608C3.11523 3.94942 3.52804 3.53662 4.03942 3.53662H8.27218C8.78356 3.53662 9.19636 3.94942 9.19636 4.4608C9.19636 4.97218 8.78356 5.38498 8.27218 5.38498Z" fill="currentColor"/>
<path d="M8.27218 2.72336H4.03942C3.52804 2.72336 3.11523 2.31056 3.11523 1.79918C3.11523 1.2878 3.52804 0.875 4.03942 0.875H8.27218C8.78356 0.875 9.19636 1.2878 9.19636 1.79918C9.19636 2.31056 8.78356 2.72336 8.27218 2.72336Z" fill="currentColor"/>
<path fill-rule="evenodd" clip-rule="evenodd" d="M12.129 6.70349H3.36777C2.65307 6.70349 2.08008 7.28265 2.08008 7.99118V12.686C2.08008 13.4007 2.65923 13.9737 3.36777 13.9737H19.3993C19.3993 9.96277 16.14 6.70349 12.129 6.70349ZM11.402 9.84571H4.0763C3.56492 9.84571 3.15212 9.43291 3.15212 8.92153C3.15212 8.41015 3.56492 7.99735 4.0763 7.99735H11.402C11.9134 7.99735 12.3262 8.41015 12.3262 8.92153C12.3262 9.43291 11.9134 9.84571 11.402 9.84571Z" fill="currentColor"/>
</svg>
