<svg width="26" height="30" viewBox="0 0 26 30" fill="none" xmlns="http://www.w3.org/2000/svg">
<path d="M24.399 13.9135H1.65865C1.05062 13.9135 0.625 13.427 0.625 12.8796V12.089C0.625 11.4808 1.11142 11.0551 1.65865 11.0551H24.399C25.007 11.0551 25.4326 11.5416 25.4326 12.089V12.8796C25.4934 13.427 25.007 13.9135 24.399 13.9135Z" fill="currentColor"/>
<path d="M23.1826 13.9134C23.0002 13.4269 22.8178 12.9404 22.5746 12.4538C22.3314 11.9673 22.0274 11.4807 21.6626 10.9942C20.6897 9.59537 19.4129 8.50064 17.8928 7.71001L17.7104 8.25738L15.8863 7.77083L16.1295 6.9802C15.1566 6.67611 14.0622 6.49365 12.9677 6.49365C11.7517 6.49365 10.5356 6.73692 9.44115 7.10183L9.68437 7.77083L7.86027 8.25738L7.73866 7.89247C6.40099 8.6831 5.24574 9.71701 4.3337 10.9942C4.02968 11.4807 3.72567 11.9673 3.42165 12.4538C3.17844 12.9404 2.93523 13.4269 2.81362 13.9134C2.32719 15.1906 2.08398 16.5894 2.08398 18.0491C2.08398 24.4349 6.94823 29.6653 12.9677 29.6653C18.9872 29.6653 23.7907 24.4958 23.7907 18.0491C23.9123 16.5894 23.6691 15.1906 23.1826 13.9134ZM18.9872 16.7111C18.9872 17.6233 18.2576 18.3531 17.3455 18.3531C16.4335 18.3531 15.7039 17.6233 15.7039 16.7111C15.7039 15.7988 16.4335 15.069 17.3455 15.069C18.2576 15.0082 18.9872 15.738 18.9872 16.7111ZM10.4748 16.7111C10.4748 17.6233 9.74516 18.3531 8.83312 18.3531C7.92107 18.3531 7.19144 17.6233 7.19144 16.7111C7.19144 15.7988 7.92107 15.069 8.83312 15.069C9.68436 15.0082 10.4748 15.738 10.4748 16.7111ZM18.8656 22.3671C17.4063 23.8876 15.2174 24.7998 12.9069 24.7998C12.7853 24.7998 12.6029 24.7998 12.4813 24.7998C10.2316 24.6782 8.28589 23.7659 7.19144 22.3063C6.88742 21.8806 6.94823 21.2724 7.37385 20.9075C7.79947 20.6034 8.4075 20.6642 8.77232 21.0899C9.56276 22.1239 10.9612 22.732 12.6029 22.8537C14.4878 22.9753 16.3119 22.2455 17.4672 21.0291C17.832 20.6642 18.44 20.6034 18.8656 20.9683C19.2304 21.3332 19.2304 21.9414 18.8656 22.3671Z" fill="currentColor"/>
<path d="M23.1219 7.95333V12.4539H2.99609V7.95333C2.99609 6.06798 4.45536 4.36507 6.21865 2.90544L7.86034 7.89251L7.98194 8.25742L9.80603 7.77088L9.56282 7.10188L7.79953 1.81072C10.9005 -0.196271 14.7919 -0.257085 17.9536 1.56745L16.1904 6.98024L15.9471 7.77088L17.7712 8.25742L17.9536 7.71006L19.5953 2.66218C21.4802 4.18262 23.1219 6.00716 23.1219 7.95333Z" fill="currentColor"/>
</svg>
