<svg width="24" height="24" viewBox="0 0 24 24" fill="none" xmlns="http://www.w3.org/2000/svg">
<path fill-rule="evenodd" clip-rule="evenodd" d="M13.1345 1.37058C12.9553 1.4487 12.768 1.67651 12.7359 1.85535C12.7217 1.93437 12.7159 3.989 12.723 6.42122C12.7373 11.3714 12.7079 10.9315 13.0425 11.1816C13.2366 11.3266 22.1694 11.3266 22.3634 11.1816C22.69 10.9376 22.7358 10.7122 22.6491 9.77492C22.2404 5.3558 18.8612 1.88933 14.4595 1.37397C13.7693 1.29317 13.3148 1.29201 13.1345 1.37058ZM9.61743 4.2086C2.70965 4.96475 -0.972061 12.7666 2.85604 18.5365C6.81279 24.5003 15.7541 23.9312 18.8863 17.5161C19.629 15.9948 20.0899 13.5382 19.7243 13.0481C19.4804 12.7212 19.7862 12.7476 15.9512 12.7227L12.5131 12.7004L12.2468 12.5697C11.9075 12.4033 11.6071 12.1027 11.4408 11.7631L11.3103 11.4965L11.288 8.0552C11.2631 4.21306 11.2901 4.5234 10.9591 4.2758C10.8165 4.1691 10.2414 4.14029 9.61743 4.2086Z" fill="currentColor"/>
</svg>
