<svg width="30" height="29" viewBox="0 0 30 29" fill="none" xmlns="http://www.w3.org/2000/svg">
<path d="M7.37465 27.3577H4.66369C4.10948 27.3577 3.66211 26.9103 3.66211 26.3561C3.66211 25.8019 4.10948 25.3545 4.66369 25.3545H7.37465C7.92886 25.3545 8.37623 25.8019 8.37623 26.3561C8.37623 26.9036 7.92886 27.3577 7.37465 27.3577Z" fill="currentColor"/>
<path d="M7.37465 23.7253H4.66369C4.10948 23.7253 3.66211 23.278 3.66211 22.7238C3.66211 22.1695 4.10948 21.7222 4.66369 21.7222H7.37465C7.92886 21.7222 8.37623 22.1695 8.37623 22.7238C8.37623 23.278 7.92886 23.7253 7.37465 23.7253Z" fill="currentColor"/>
<path d="M28.7485 15.5857H1.25171C0.88446 15.5857 0.583984 15.8862 0.583984 16.2534V27.0839C0.583984 27.4511 0.88446 27.7516 1.25171 27.7516H28.7485C29.1158 27.7516 29.4163 27.4511 29.4163 27.0839V16.2534C29.4163 15.8862 29.1158 15.5857 28.7485 15.5857ZM12.6097 25.6883C12.6097 26.0556 12.3092 26.3561 11.942 26.3561H3.4819C3.11465 26.3561 2.81418 26.0556 2.81418 25.6883V17.649C2.81418 17.2817 3.11465 16.9812 3.4819 16.9812H11.942C12.3092 16.9812 12.6097 17.2817 12.6097 17.649V25.6883ZM27.4131 25.6883C27.4131 26.0556 27.1126 26.3561 26.7454 26.3561H17.7178C17.3505 26.3561 17.05 26.0556 17.05 25.6883V17.649C17.05 17.2817 17.3505 16.9812 17.7178 16.9812H26.7454C27.1126 16.9812 27.4131 17.2817 27.4131 17.649V25.6883Z" fill="currentColor"/>
<path d="M28.7484 28.0788H1.25158C0.697374 28.0788 0.25 27.6314 0.25 27.0772V16.2467C0.25 15.6925 0.697374 15.2451 1.25158 15.2451H28.7484C29.3026 15.2451 29.75 15.6925 29.75 16.2467V27.0772C29.75 27.6314 29.3026 28.0788 28.7484 28.0788ZM1.25158 15.9195C1.06462 15.9195 0.917723 16.0664 0.917723 16.2534V27.0838C0.917723 27.2708 1.06462 27.4177 1.25158 27.4177H28.7484C28.9354 27.4177 29.0823 27.2708 29.0823 27.0838V16.2534C29.0823 16.0664 28.9354 15.9195 28.7484 15.9195H1.25158V15.9195ZM26.7452 26.6899H17.7176C17.1634 26.6899 16.716 26.2425 16.716 25.6883V17.6489C16.716 17.0947 17.1634 16.6473 17.7176 16.6473H26.7452C27.2995 16.6473 27.7468 17.0947 27.7468 17.6489V25.6883C27.7468 26.2358 27.2995 26.6899 26.7452 26.6899ZM17.7176 17.3151C17.5307 17.3151 17.3838 17.462 17.3838 17.6489V25.6883C17.3838 25.8753 17.5307 26.0222 17.7176 26.0222H26.7452C26.9322 26.0222 27.0791 25.8753 27.0791 25.6883V17.6489C27.0791 17.462 26.9322 17.3151 26.7452 17.3151H17.7176ZM11.9418 26.6899H3.48178C2.92757 26.6899 2.48019 26.2425 2.48019 25.6883V17.6489C2.48019 17.0947 2.92757 16.6473 3.48178 16.6473H11.9418C12.496 16.6473 12.9434 17.0947 12.9434 17.6489V25.6883C12.9434 26.2358 12.496 26.6899 11.9418 26.6899ZM3.48178 17.3151C3.29482 17.3151 3.14792 17.462 3.14792 17.6489V25.6883C3.14792 25.8753 3.29482 26.0222 3.48178 26.0222H11.9418C12.1288 26.0222 12.2757 25.8753 12.2757 25.6883V17.6489C12.2757 17.462 12.1288 17.3151 11.9418 17.3151H3.48178Z" fill="currentColor"/>
<path d="M21.5094 27.3577H18.7985C18.2442 27.3577 17.7969 26.9103 17.7969 26.3561C17.7969 25.8019 18.2442 25.3545 18.7985 25.3545H21.5094C22.0636 25.3545 22.511 25.8019 22.511 26.3561C22.511 26.9036 22.0636 27.3577 21.5094 27.3577Z" fill="currentColor"/>
<path d="M21.5094 23.7253H18.7985C18.2442 23.7253 17.7969 23.278 17.7969 22.7238C17.7969 22.1695 18.2442 21.7222 18.7985 21.7222H21.5094C22.0636 21.7222 22.511 22.1695 22.511 22.7238C22.511 23.278 22.0636 23.7253 21.5094 23.7253Z" fill="currentColor"/>
<path d="M2.81477 16.5874C2.68791 16.5874 2.56104 16.5607 2.43417 16.5139C1.92003 16.3069 1.67964 15.7193 1.88664 15.2052C1.99347 14.9381 4.63766 8.73495 12.9241 8.28757C20.1021 7.90029 24.3889 1.81066 24.4356 1.74389C24.7495 1.28984 25.3705 1.17632 25.8312 1.49015C26.2852 1.80398 26.3987 2.42496 26.0849 2.88569C25.8913 3.17281 21.1838 9.85005 13.0376 10.2907C5.99981 10.6713 3.76294 15.913 3.74291 15.9664C3.58266 16.3537 3.20873 16.5874 2.81477 16.5874Z" fill="currentColor"/>
<path d="M26.6594 0.688854L19.8953 3.42652C19.6616 3.52 19.6817 3.85386 19.922 3.92064L22.7064 4.69519C22.7999 4.7219 22.8667 4.79535 22.8867 4.88215L23.5878 7.67991C23.6479 7.92029 23.9818 7.947 24.0819 7.71998L26.9932 1.02939C27.0934 0.8224 26.8797 0.60205 26.6594 0.688854Z" fill="currentColor"/>
<path d="M23.8477 8.54789C23.821 8.54789 23.7943 8.54789 23.7676 8.54789C23.3736 8.51451 23.0397 8.23406 22.9463 7.84678L22.2986 5.27605L19.7479 4.56159C19.3673 4.45475 19.0935 4.11421 19.0735 3.72026C19.0534 3.3263 19.2871 2.95905 19.6544 2.80547L26.4184 0.0678103C26.7723 -0.0724115 27.1663 0.00771509 27.4334 0.281481C27.7004 0.555248 27.7739 0.955881 27.6203 1.3031L24.709 7.99368C24.5488 8.33422 24.2149 8.54789 23.8477 8.54789ZM21.2569 3.60006L22.8862 4.05412C23.2067 4.1476 23.4537 4.40133 23.5338 4.72184L23.9478 6.36444L25.9844 1.6837L21.2569 3.60006Z" fill="currentColor"/>
</svg>
