<svg class="inline-svg" fill="none" xmlns="http://www.w3.org/2000/svg" viewBox="0 0 20 20" aria-hidden="true"><path d="M10 0a10 10 0 0 0-3.16 19.49c.5.09.69-.21.69-.48l-.02-1.86c-2.51.46-3.16-.61-3.36-1.17-.11-.3-.6-1.18-1.03-1.42-.35-.19-.85-.65 0-.66.78-.01 1.34.72 1.53 1.03.9 1.5 2.34 1.08 2.91.82a2.1 2.1 0 0 1 .64-1.34c-2.22-.25-4.55-1.11-4.55-4.94A3.9 3.9 0 0 1 4.67 6.8a3.6 3.6 0 0 1 .1-2.65s.84-.26 2.76 1.02a9.28 9.28 0 0 1 5 0c1.9-1.3 2.75-1.02 2.75-1.02.54 1.37.2 2.4.1 2.65.63.7 1.02 1.58 1.02 2.68 0 3.84-2.34 4.7-4.56 4.94.36.31.67.91.67 1.85l-.01 2.75c0 .26.19.58.69.48A10.02 10.02 0 0 0 10 0Z" fill="currentColor"/></svg>