<svg width="33" height="32" viewBox="0 0 33 32" fill="none" xmlns="http://www.w3.org/2000/svg">
<path d="M19.317 3.25H4.1428C2.67257 3.25 1.47461 4.46611 1.47461 5.97264V13.9046C1.47461 15.4111 2.67257 16.6272 4.1428 16.6272C4.1428 16.6272 4.19119 16.6272 4.56631 16.6272C4.94143 16.6272 5.16529 17.0024 5.15319 17.1839C5.03218 18.8659 3.91289 19.2168 3.42281 19.5253C3.21105 19.6524 3.39861 19.7431 3.55592 19.7431C6.48427 19.7431 7.68828 18.3818 8.24491 17.3714C8.65028 16.4699 9.63647 16.6272 9.63647 16.6272H19.317C19.8312 16.6272 20.3092 16.482 20.7146 16.2219H13.793C13.2909 16.2219 12.8855 15.8165 12.8855 15.3143C12.8855 14.8121 13.2909 14.4068 13.793 14.4068H21.9368C21.967 14.2434 21.9852 14.074 21.9852 13.9046V5.97264C21.9852 4.46611 20.7932 3.25 19.317 3.25ZM4.16699 5.52491H19.565C20.0672 5.52491 20.4726 5.93028 20.4726 6.43246C20.4726 6.93464 20.0672 7.34001 19.565 7.34001H4.16699C3.66481 7.34001 3.25944 6.93464 3.25944 6.43246C3.25944 5.93028 3.66481 5.52491 4.16699 5.52491ZM4.16699 8.74973H19.565C20.0672 8.74973 20.4726 9.16115 20.4726 9.65728C20.4726 10.1595 20.0672 10.5648 19.565 10.5648H4.16699C3.66481 10.5648 3.25944 10.1595 3.25944 9.65728C3.25944 9.16115 3.66481 8.74973 4.16699 8.74973ZM20.4726 13.0394C20.4726 13.5416 20.0672 13.9469 19.565 13.9469H4.16699C3.66481 13.9469 3.25944 13.5416 3.25944 13.0394C3.25944 12.5372 3.66481 12.1319 4.16699 12.1319H19.565C20.0672 12.1319 20.4726 12.5372 20.4726 13.0394Z" fill="currentColor"/>
<path d="M29.0766 12.1318H13.9084C12.7468 12.1318 11.7606 12.8881 11.3915 13.9469C11.2947 14.2313 11.2402 14.5338 11.2402 14.8545V22.7864C11.2402 24.293 12.4321 25.5091 13.9084 25.5091H23.5889C23.5889 25.5091 24.5751 25.3518 24.9805 26.2533C25.5371 27.2637 26.7411 28.625 29.6695 28.625C29.8268 28.625 30.0144 28.5342 29.8026 28.4072C29.3065 28.0986 28.1932 27.7477 28.0722 26.0596C28.0601 25.8842 28.284 25.5091 28.6591 25.5091C29.0342 25.5091 29.0766 25.5091 29.0766 25.5091C30.5528 25.5091 31.7508 24.293 31.7508 22.7864V14.8545C31.7508 13.3479 30.5528 12.1318 29.0766 12.1318ZM29.1915 22.7078H13.7935C13.2913 22.7078 12.8859 22.3024 12.8859 21.8002C12.8859 21.2981 13.2913 20.8927 13.7935 20.8927H29.1915C29.6937 20.8927 30.0991 21.2981 30.0991 21.8002C30.0991 22.3024 29.6937 22.7078 29.1915 22.7078ZM29.1915 19.3922H13.7935C13.2913 19.3922 12.8859 18.9868 12.8859 18.4847C12.8859 17.9825 13.2913 17.5771 13.7935 17.5771H29.1915C29.6937 17.5771 30.0991 17.9825 30.0991 18.4847C30.0991 18.9868 29.6937 19.3922 29.1915 19.3922ZM29.1915 16.2218H13.7935C13.2913 16.2218 12.8859 15.8165 12.8859 15.3143C12.8859 14.8121 13.2913 14.4067 13.7935 14.4067H29.1915C29.6937 14.4067 30.0991 14.8121 30.0991 15.3143C30.0991 15.8165 29.6937 16.2218 29.1915 16.2218Z" fill="currentColor"/>
</svg>
