<svg width="64" height="64" viewBox="0 0 64 64" fill="none" xmlns="http://www.w3.org/2000/svg">
<rect width="64" height="64" rx="20" fill="#F3C846"/>
<path fill-rule="evenodd" clip-rule="evenodd" d="M35.1805 36.5944C31.6468 39.4246 26.4743 39.2018 23.1985 35.9261C19.6838 32.4114 19.6838 26.7129 23.1985 23.1982C26.7133 19.6835 32.4117 19.6835 35.9265 23.1982C39.2022 26.4739 39.4249 31.6464 36.5947 35.1801L43.4689 42.0543C43.8594 42.4448 43.8594 43.078 43.4689 43.4685C43.0784 43.8591 42.4452 43.8591 42.0547 43.4685L35.1805 36.5944ZM24.6128 34.5119C21.8791 31.7782 21.8791 27.3461 24.6128 24.6124C27.3464 21.8787 31.7786 21.8787 34.5122 24.6124C37.2439 27.344 37.2459 31.7717 34.5183 34.5059C34.5162 34.5078 34.5142 34.5098 34.5122 34.5118C34.5102 34.5139 34.5082 34.5159 34.5062 34.5179C31.7721 37.2455 27.3444 37.2435 24.6128 34.5119Z" fill="white"/>
</svg>
