<svg width="60" height="48" viewBox="0 0 60 48" fill="none" xmlns="http://www.w3.org/2000/svg">
<path d="M5.37215 40.9978L9.01518 37.3916L7.79204 36.1809L5.50854 38.4418L1.35954 34.3323L0 35.6819L5.37215 40.9978ZM6.87248 31.0473L7.79204 31.9542L9.67955 30.0796L10.7751 31.1644L8.88319 33.0391L10.0535 34.1934L12.3898 31.8805L13.4854 32.9653L9.78954 36.6279L4.41299 31.312L8.11322 27.6451L9.20877 28.73L6.87248 31.0473ZM18.8355 27.6798L15.1793 26.6427C15.3829 26.2112 15.4437 25.7275 15.3528 25.2602C15.262 24.7928 15.0243 24.3655 14.6733 24.0389C14.4634 23.8456 14.2164 23.6957 13.9468 23.5978C13.6773 23.5 13.3907 23.4563 13.1038 23.4692C12.8169 23.4821 12.5355 23.5515 12.2761 23.6732C12.0167 23.7948 11.7847 23.9664 11.5935 24.1778L8.86999 26.8726L14.2685 32.1929L15.6325 30.8433L11.2855 26.5385L12.1654 25.6706C12.2548 25.5786 12.3618 25.5049 12.4802 25.4538C12.5985 25.4027 12.7259 25.3751 12.8551 25.3727C12.9843 25.3703 13.1127 25.393 13.2329 25.4397C13.3532 25.4864 13.4629 25.556 13.5558 25.6446C13.7383 25.8305 13.8385 26.0803 13.8343 26.339C13.8302 26.5978 13.7221 26.8443 13.5338 27.0245L12.733 27.8187L17.3792 29.1205L18.8355 27.6798ZM16.376 19.2351C18.0568 17.573 20.2787 17.7336 21.8494 19.2915C23.4201 20.8494 23.5873 23.0495 21.9066 24.7116C20.2259 26.3736 18.0084 26.213 16.4332 24.6421C14.8581 23.0712 14.6953 20.8841 16.376 19.2221V19.2351ZM17.4408 20.3026C16.5872 21.1445 16.8732 22.1729 17.9116 23.2014C18.9499 24.2299 19.9839 24.5033 20.8374 23.6657C21.691 22.8282 21.405 21.7954 20.3667 20.7669C19.3283 19.7385 18.2943 19.4347 17.4408 20.3026ZM23.4685 16.4404L22.4654 13.4375L24.0581 11.8622L25.3912 17.0132L27.4943 19.0962L26.1348 20.4458L24.0405 18.3715L19.0555 16.8136L20.5558 15.3295L23.4377 16.4361L23.4685 16.4404ZM48.3229 34.7706L53.6995 29.4547L52.2652 28.0356L46.893 33.3516L48.3229 34.7706ZM27.7671 14.4182L31.9469 12.4437L28.8583 15.4988L30.1034 16.7312L35.4711 11.4109L33.7684 9.72285L29.725 11.6756L31.7489 7.72233L29.989 5.98218L24.6169 11.2981L25.8576 12.5305L28.9463 9.47549L26.9531 13.6111L27.7671 14.4182ZM37.0815 15.1733L36.1619 16.0802L38.2254 18.1198L37.1299 19.2047L35.0708 17.1651L33.9004 18.3194L36.4083 20.8017L35.3128 21.8865L31.4409 18.0547L36.8131 12.7345L40.6849 16.5663L39.5894 17.6512L37.0815 15.1733ZM42.2644 28.7777L45.9075 32.3882L47.135 31.1731L44.8515 28.9166L49.0005 24.807L47.6366 23.4618L42.2644 28.7777ZM56.7398 32.462L55.015 38.099H55.0106L58.7241 34.4278L60 35.6906L54.6279 41.0065L52.9427 39.3401L54.4123 33.5295H54.4167L50.7472 37.1617L49.5065 35.9336L54.8742 30.6177L56.7398 32.462ZM41.2481 27.7709L42.282 24.1518C42.7192 24.3555 43.2108 24.4165 43.6854 24.326C44.1601 24.2354 44.5932 23.9981 44.9219 23.6484C45.116 23.4405 45.2664 23.1968 45.3647 22.9313C45.4629 22.6659 45.5069 22.3839 45.4942 22.1016C45.4816 21.8193 45.4124 21.5422 45.2908 21.2863C45.1692 21.0305 44.9974 20.8009 44.7855 20.6107L41.8948 17.7466L36.5183 23.0799L37.8822 24.4295L42.238 20.1247L43.272 21.1705C43.3621 21.2591 43.4337 21.3644 43.4826 21.4803C43.5315 21.5962 43.5567 21.7204 43.5569 21.8459C43.5571 21.9715 43.5323 22.0958 43.4838 22.2118C43.4352 22.3279 43.364 22.4334 43.2742 22.5223C43.1843 22.6112 43.0776 22.6817 42.9601 22.73C42.8426 22.7782 42.7166 22.8031 42.5894 22.8033C42.4621 22.8035 42.336 22.779 42.2184 22.7311C42.1007 22.6833 41.9938 22.6131 41.9036 22.5244L40.9181 21.5567L39.7741 26.3302L41.2481 27.7709Z" fill="#251B00"/>
<path d="M6.39258 42.0176H53.6156L30.0019 18.6406L6.39258 42.0176Z" fill="#5AB030"/>
</svg>
